<svg width="39" height="39" viewBox="0 0 39 39" fill="none" xmlns="http://www.w3.org/2000/svg">
<circle cx="19.5" cy="19.5" r="19.5" fill="#26D287"/>
<path d="M22.0744 21.4862L21.8087 21.7659C21.8087 21.7659 21.1772 22.4307 19.4535 20.6159C17.7297 18.8012 18.3612 18.1363 18.3612 18.1363L18.5286 17.9601C18.9407 17.5262 18.9796 16.8296 18.62 16.321L17.8844 15.2806C17.4393 14.6511 16.5793 14.568 16.0692 15.105L15.1536 16.069C14.9006 16.3353 14.7311 16.6805 14.7517 17.0635C14.8043 18.0432 15.2229 20.1511 17.559 22.6105C20.0362 25.2186 22.3606 25.3223 23.3112 25.2285C23.6118 25.1988 23.8733 25.0367 24.084 24.8148L24.9127 23.9424C25.472 23.3535 25.3143 22.3439 24.5986 21.932L23.4841 21.2905C23.0142 21.02 22.4417 21.0995 22.0744 21.4862Z" fill="white"/>
</svg>
