<svg width="277" height="277" viewBox="0 0 277 277" fill="none" xmlns="http://www.w3.org/2000/svg">
<g filter="url(#filter0_d_253_1062)">
<rect x="44" y="44" width="189" height="189" rx="20" fill="white"/>
</g>
<path d="M146.06 76V123.935C146.06 141.027 159.914 154.886 177 154.886V106.951C177 89.859 163.152 76 146.06 76Z" fill="#26D287"/>
<path d="M109.215 76V101.917H140.783C140.783 87.6057 129.181 76 114.875 76H109.215Z" fill="#2B58D6"/>
<path d="M140.783 112.863C140.783 112.863 118.018 131.863 140.783 150.229C140.783 150.229 125.51 156.769 113.186 153.298C101.704 150.066 96.5523 136.69 102.476 126.333C107.182 118.092 117.685 108.639 140.783 112.863Z" fill="#FFA200"/>
<path d="M100.597 177.096C100.897 176.122 101.445 175.512 102.245 175.262C103.042 175.012 104.128 174.888 105.499 174.888C106.871 174.888 108.038 175.014 108.849 175.262C109.659 175.512 110.216 176.124 110.514 177.096L118.035 201.503C118.035 201.653 117.947 201.727 117.773 201.727H112.871C112.621 201.727 112.459 201.615 112.385 201.389L110.402 194.914C110.328 194.664 110.164 194.54 109.916 194.54H101.121C100.871 194.54 100.709 194.677 100.635 194.952L98.6518 201.353C98.5777 201.603 98.414 201.727 98.1659 201.727H93.2998C93.0999 201.727 93 201.653 93 201.503L100.597 177.096ZM105.949 180.428C105.875 180.154 105.811 179.973 105.761 179.885C105.711 179.797 105.624 179.754 105.499 179.754C105.375 179.754 105.238 179.978 105.088 180.428L102.469 188.963C102.469 189.013 102.462 189.051 102.45 189.075C102.436 189.101 102.431 189.125 102.431 189.15C102.431 189.324 102.531 189.412 102.73 189.412H108.306C108.506 189.412 108.606 189.325 108.606 189.15C108.606 189.125 108.599 189.1 108.587 189.075C108.575 189.051 108.568 189.013 108.568 188.963L105.949 180.428Z" fill="#151F2D"/>
<path d="M125.296 182.224H132.37C133.567 182.224 134.591 182.462 135.439 182.936C136.286 183.41 136.986 184.077 137.534 184.938C138.082 185.8 138.489 186.841 138.75 188.064C139.012 189.287 139.143 190.634 139.143 192.107C139.143 193.229 139.005 194.365 138.731 195.513C138.458 196.661 138.046 197.69 137.496 198.602C136.946 199.514 136.242 200.262 135.382 200.848C134.52 201.434 133.516 201.727 132.37 201.727H124.237C122.095 201.727 120.358 199.99 120.358 197.847V175.26C120.358 175.053 120.525 174.886 120.732 174.886H124.549C124.755 174.886 124.922 175.053 124.922 175.26V181.848C124.922 182.055 125.09 182.222 125.296 182.222V182.224ZM124.922 196.785C124.922 196.992 125.09 197.159 125.296 197.159H129.375C130.149 197.159 130.859 197.085 131.508 196.935C132.156 196.785 132.706 196.523 133.155 196.149C133.605 195.775 133.953 195.263 134.203 194.615C134.453 193.967 134.577 193.131 134.577 192.107C134.577 191.009 134.451 190.111 134.203 189.411C133.953 188.713 133.598 188.17 133.137 187.783C132.675 187.396 132.127 187.134 131.489 186.997C130.853 186.86 130.149 186.791 129.375 186.791H125.296C125.09 186.791 124.922 186.959 124.922 187.165V196.785Z" fill="#151F2D"/>
<path d="M141.611 174.886H145.427C145.634 174.886 145.801 175.053 145.801 175.26C145.801 177.575 143.925 179.452 141.611 179.452C141.404 179.452 141.237 179.285 141.237 179.078V175.26C141.237 175.053 141.404 174.886 141.611 174.886ZM141.237 182.598C141.237 182.391 141.404 182.224 141.611 182.224H145.427C145.634 182.224 145.801 182.391 145.801 182.598V201.353C145.801 201.56 145.634 201.727 145.427 201.727H141.611C141.404 201.727 141.237 201.56 141.237 201.353V182.598Z" fill="#151F2D"/>
<path d="M149.32 174.886H153.137C153.344 174.886 153.511 175.053 153.511 175.26V201.351C153.511 201.558 153.344 201.725 153.137 201.725H149.32C149.113 201.725 148.946 201.558 148.946 201.351V175.26C148.946 175.053 149.113 174.886 149.32 174.886Z" fill="#151F2D"/>
<path d="M157.029 174.886H160.846C161.053 174.886 161.22 175.053 161.22 175.26C161.22 177.575 159.343 179.452 157.029 179.452C156.822 179.452 156.655 179.285 156.655 179.078V175.26C156.655 175.053 156.822 174.886 157.029 174.886ZM156.655 182.598C156.655 182.391 156.822 182.224 157.029 182.224H160.846C161.053 182.224 161.22 182.391 161.22 182.598V201.353C161.22 201.56 161.053 201.727 160.846 201.727H157.029C156.822 201.727 156.655 201.56 156.655 201.353V182.598Z" fill="#151F2D"/>
<path d="M183 194.165C183 195.663 182.869 196.897 182.607 197.871C182.345 198.845 181.946 199.619 181.41 200.191C180.872 200.765 180.193 201.165 179.37 201.389C178.546 201.613 177.56 201.727 176.413 201.727H169.751C168.604 201.727 167.656 201.522 166.908 201.11C166.16 200.698 165.561 200.162 165.113 199.5C164.663 198.84 164.351 198.09 164.177 197.254C164.003 196.418 163.915 195.563 163.915 194.689V188.101C163.915 187.203 164.07 186.392 164.382 185.668C164.694 184.944 165.113 184.327 165.636 183.815C166.16 183.303 166.777 182.91 167.489 182.636C168.2 182.362 168.953 182.224 169.753 182.224H177.312C177.986 182.224 178.665 182.35 179.352 182.598C180.038 182.848 180.65 183.215 181.186 183.703C181.722 184.189 182.159 184.776 182.495 185.462C182.833 186.149 183 186.941 183 187.839V194.165ZM178.398 188.663C178.398 188.363 178.305 188.096 178.117 187.858C177.929 187.622 177.686 187.422 177.386 187.26C177.087 187.098 176.751 186.979 176.377 186.905C176.003 186.831 175.629 186.793 175.255 186.793H171.176C170.852 186.793 170.527 186.824 170.203 186.886C169.879 186.948 169.586 187.055 169.324 187.205C169.062 187.355 168.843 187.555 168.669 187.803C168.495 188.053 168.407 188.353 168.407 188.701V194.691C168.407 195.191 168.512 195.603 168.726 195.927C168.938 196.251 169.207 196.508 169.531 196.694C169.855 196.882 170.204 197.006 170.578 197.068C170.952 197.13 171.302 197.161 171.626 197.161H175.069C175.967 197.161 176.747 196.949 177.407 196.525C178.067 196.101 178.4 195.565 178.4 194.915V188.663H178.398Z" fill="#151F2D"/>
<defs>
<filter id="filter0_d_253_1062" x="0" y="0" width="277" height="277" filterUnits="userSpaceOnUse" color-interpolation-filters="sRGB">
<feFlood flood-opacity="0" result="BackgroundImageFix"/>
<feColorMatrix in="SourceAlpha" type="matrix" values="0 0 0 0 0 0 0 0 0 0 0 0 0 0 0 0 0 0 127 0" result="hardAlpha"/>
<feOffset/>
<feGaussianBlur stdDeviation="22"/>
<feComposite in2="hardAlpha" operator="out"/>
<feColorMatrix type="matrix" values="0 0 0 0 0 0 0 0 0 0 0 0 0 0 0 0 0 0 0.2 0"/>
<feBlend mode="normal" in2="BackgroundImageFix" result="effect1_dropShadow_253_1062"/>
<feBlend mode="normal" in="SourceGraphic" in2="effect1_dropShadow_253_1062" result="shape"/>
</filter>
</defs>
</svg>
