<svg width="55" height="55" viewBox="0 0 55 55" fill="none" xmlns="http://www.w3.org/2000/svg">
<circle cx="27.2361" cy="27.2361" r="27.2361" fill="#26D287"/>
<g clip-path="url(#clip0_251_73)">
<path fill-rule="evenodd" clip-rule="evenodd" d="M39.6562 28.875H14.3438V15.75C14.3438 14.715 15.1837 13.875 16.2188 13.875H37.7812C38.8162 13.875 39.6562 14.715 39.6562 15.75V28.875ZM39.6562 32.625C39.6562 33.66 38.8162 34.5 37.7812 34.5H16.2188C15.1837 34.5 14.3438 33.66 14.3438 32.625V30.75H39.6562V32.625ZM25.5938 36.375H29.3438V40.125H25.5938V36.375ZM37.7812 12H16.2188C14.1478 12 12.4688 13.6791 12.4688 15.75V32.625C12.4688 34.6959 14.1478 36.375 16.2188 36.375H23.7188V40.125H21.8438C21.3253 40.125 20.9062 40.545 20.9062 41.0625C20.9062 41.5809 21.3253 42 21.8438 42H33.0938C33.6122 42 34.0312 41.5809 34.0312 41.0625C34.0312 40.545 33.6122 40.125 33.0938 40.125H31.2188V36.375H37.7812C39.8522 36.375 41.5312 34.6959 41.5312 32.625V15.75C41.5312 13.6791 39.8522 12 37.7812 12Z" fill="white"/>
</g>
<defs>
<clipPath id="clip0_251_73">
<rect width="30" height="30" fill="white" transform="translate(12 12)"/>
</clipPath>
</defs>
</svg>
