<svg width="20" height="20" viewBox="0 0 20 20" fill="none" xmlns="http://www.w3.org/2000/svg">
<path d="M10 18.125C10.4675 18.125 12.295 16.79 13.7513 15.1338C15.6925 12.9275 16.875 10.465 16.875 8.125C16.875 4.42125 13.8313 1.875 10 1.875C6.16875 1.875 3.125 4.42125 3.125 8.125C3.125 10.475 4.3075 12.9375 6.24875 15.1412C7.70375 16.7937 9.53125 18.125 10 18.125ZM10 9.625C10.3315 9.625 10.6495 9.4933 10.8839 9.25888C11.1183 9.02446 11.25 8.70652 11.25 8.375C11.25 8.04348 11.1183 7.72554 10.8839 7.49112C10.6495 7.2567 10.3315 7.125 10 7.125C9.66848 7.125 9.35054 7.2567 9.11612 7.49112C8.8817 7.72554 8.75 8.04348 8.75 8.375C8.75 8.70652 8.8817 9.02446 9.11612 9.25888C9.35054 9.4933 9.66848 9.625 10 9.625ZM10 12.375C8.93913 12.375 7.92172 11.9536 7.17157 11.2034C6.42143 10.4533 6 9.43587 6 8.375C6 7.31413 6.42143 6.29672 7.17157 5.54657C7.92172 4.79643 8.93913 4.375 10 4.375C11.0609 4.375 12.0783 4.79643 12.8284 5.54657C13.5786 6.29672 14 7.31413 14 8.375C14 9.43587 13.5786 10.4533 12.8284 11.2034C12.0783 11.9536 11.0609 12.375 10 12.375Z" fill="#151F2D"/>
</svg>
