<svg width="20" height="20" viewBox="0 0 20 20" fill="none" xmlns="http://www.w3.org/2000/svg">
<path d="M7.98457 1.59998C7.04857 1.59998 6.32001 2.45191 6.40801 3.43591L6.96426 9.63982C6.96426 9.64382 6.96416 9.65223 6.96816 9.65623C7.10816 9.62023 7.2522 9.59998 7.4002 9.59998H12.6002C12.7482 9.59998 12.8922 9.62023 13.0322 9.65623C13.0362 9.65223 13.0361 9.64382 13.0361 9.63982L13.5924 3.43591C13.6804 2.45191 12.9518 1.59998 12.0158 1.59998H7.98457ZM4.0002 7.19998C3.7802 7.19998 3.58013 7.28791 3.43613 7.43591C3.28813 7.57991 3.2002 7.77998 3.2002 7.99998C3.2002 8.43998 3.5602 8.79998 4.0002 8.79998H4.8002C5.0202 8.79998 5.22026 8.71204 5.36426 8.56404C5.51226 8.42004 5.6002 8.21998 5.6002 7.99998C5.6002 7.85598 5.56038 7.71598 5.49238 7.59998C5.35238 7.35998 5.0962 7.19998 4.8002 7.19998H4.0002ZM15.2002 7.19998C14.9802 7.19998 14.7801 7.28791 14.6361 7.43591C14.5841 7.48391 14.544 7.53998 14.508 7.59998C14.44 7.71598 14.4002 7.85598 14.4002 7.99998C14.4002 8.43998 14.7602 8.79998 15.2002 8.79998H16.0002C16.2202 8.79998 16.4203 8.71204 16.5643 8.56404C16.7123 8.42004 16.8002 8.21998 16.8002 7.99998C16.8002 7.55998 16.4402 7.19998 16.0002 7.19998H15.2002ZM4.85254 9.59607C4.83654 9.60007 4.8162 9.59998 4.8002 9.59998H4.03613C4.18013 10.468 4.7921 11.18 5.6041 11.464C5.6001 11.444 5.6002 11.42 5.6002 11.4C5.6002 11.136 5.65635 10.888 5.76035 10.664C5.31235 10.468 4.97254 10.0761 4.85254 9.59607ZM15.1479 9.59607C15.0279 10.0761 14.688 10.468 14.24 10.664C14.344 10.888 14.4002 11.136 14.4002 11.4C14.4002 11.42 14.4003 11.444 14.3963 11.464C15.2083 11.18 15.8203 10.468 15.9643 9.59998H15.2002C15.1842 9.59998 15.1639 9.60007 15.1479 9.59607ZM7.4002 10.4C6.8478 10.4 6.4002 10.8476 6.4002 11.4C6.4002 11.9524 6.8478 12.4 7.4002 12.4H12.6002C13.1526 12.4 13.6002 11.9524 13.6002 11.4C13.6002 10.8476 13.1526 10.4 12.6002 10.4H7.4002ZM9.6002 13.2V14.4H9.2002V16H8.8002C8.13987 16 7.47053 16.2548 6.93926 16.6711C6.40799 17.0873 6.0002 17.6914 6.0002 18.4C5.99945 18.453 6.00924 18.5056 6.029 18.5548C6.04877 18.604 6.07811 18.6487 6.11533 18.6865C6.15255 18.7242 6.1969 18.7542 6.2458 18.7747C6.2947 18.7951 6.34719 18.8057 6.4002 18.8057C6.45321 18.8057 6.50569 18.7951 6.55459 18.7747C6.60349 18.7542 6.64784 18.7242 6.68506 18.6865C6.72228 18.6487 6.75162 18.604 6.77139 18.5548C6.79115 18.5056 6.80095 18.453 6.8002 18.4C6.8002 18.0042 7.04038 17.6084 7.43301 17.3008C7.82564 16.9931 8.35612 16.8 8.8002 16.8H9.6002V18.4C9.59945 18.453 9.60924 18.5056 9.629 18.5548C9.64877 18.604 9.67811 18.6487 9.71533 18.6865C9.75255 18.7242 9.7969 18.7542 9.8458 18.7747C9.8947 18.7951 9.94719 18.8057 10.0002 18.8057C10.0532 18.8057 10.1057 18.7951 10.1546 18.7747C10.2035 18.7542 10.2478 18.7242 10.2851 18.6865C10.3223 18.6487 10.3516 18.604 10.3714 18.5548C10.3912 18.5056 10.4009 18.453 10.4002 18.4V16.8H11.2002C11.6443 16.8 12.1748 16.9931 12.5674 17.3008C12.96 17.6084 13.2002 18.0042 13.2002 18.4C13.1994 18.453 13.2092 18.5056 13.229 18.5548C13.2488 18.604 13.2781 18.6487 13.3153 18.6865C13.3526 18.7242 13.3969 18.7542 13.4458 18.7747C13.4947 18.7951 13.5472 18.8057 13.6002 18.8057C13.6532 18.8057 13.7057 18.7951 13.7546 18.7747C13.8035 18.7542 13.8478 18.7242 13.8851 18.6865C13.9223 18.6487 13.9516 18.604 13.9714 18.5548C13.9912 18.5056 14.0009 18.453 14.0002 18.4C14.0002 17.6914 13.5924 17.0873 13.0611 16.6711C12.5299 16.2548 11.8605 16 11.2002 16H10.8002V14.4H10.4002V13.2H9.6002Z" fill="#151F2D"/>
</svg>
