<svg width="20" height="20" viewBox="0 0 20 20" fill="none" xmlns="http://www.w3.org/2000/svg">
<path fill-rule="evenodd" clip-rule="evenodd" d="M13.728 5.47425C13.4495 4.1176 12.4163 3.00162 11.0218 2.63277C10.3524 2.45574 9.64777 2.45574 8.97844 2.63277C7.5839 3.00161 6.55064 4.1176 6.2722 5.47424C4.78294 5.86593 3.57557 6.94053 3.0249 8.35692C3.98549 8.71092 5.06158 8.97967 6.19749 9.16308V8.90509C6.19749 8.57759 6.4663 8.31218 6.7979 8.31218C7.1295 8.31218 7.39832 8.57759 7.39832 8.90509V9.32308C9.10419 9.50417 10.896 9.50417 12.6019 9.32308V8.90509C12.6019 8.57759 12.8707 8.31218 13.2023 8.31218C13.5339 8.31218 13.8027 8.57759 13.8027 8.90509V9.16308C14.9386 8.97967 16.0147 8.71092 16.9753 8.35692C16.4246 6.94053 15.2173 5.86593 13.728 5.47425ZM10.711 3.77814C10.2453 3.65495 9.75494 3.65495 9.28919 3.77814C8.52035 3.98148 7.91291 4.51894 7.60974 5.20664C9.1906 4.92572 10.8096 4.92572 12.3904 5.20664C12.0873 4.51894 11.4799 3.98148 10.711 3.77814Z" fill="#151F2D"/>
<path d="M12.6017 10.5152V11.6718C12.6017 11.9993 12.8706 12.2647 13.2022 12.2647C13.5338 12.2647 13.8026 11.9993 13.8026 11.6718V10.3634C15.0523 10.1727 16.2411 9.88483 17.3068 9.5C17.6012 10.8327 17.5585 12.2246 17.1836 13.5398C16.6528 15.4015 15.1022 16.8246 13.1762 17.1963C11.0786 17.6012 8.92142 17.6012 6.82378 17.1963C4.89778 16.8246 3.34717 15.4015 2.81646 13.5398C2.44154 12.2246 2.39887 10.8327 2.69318 9.5C3.75893 9.88483 4.94767 10.1727 6.19739 10.3634V11.6718C6.19739 11.9993 6.4662 12.2647 6.7978 12.2647C7.1294 12.2647 7.39822 11.9993 7.39822 11.6718V10.5152C9.10817 10.6878 10.8918 10.6878 12.6017 10.5152Z" fill="#151F2D"/>
</svg>
