<svg width="55" height="55" viewBox="0 0 55 55" fill="none" xmlns="http://www.w3.org/2000/svg">
<circle cx="27.2361" cy="27.2361" r="27.2361" fill="#151F2D"/>
<path d="M30.75 20.75C30.75 22.8211 29.0711 24.5 27 24.5C24.9289 24.5 23.25 22.8211 23.25 20.75C23.25 18.6789 24.9289 17 27 17C29.0711 17 30.75 18.6789 30.75 20.75Z" stroke="white" stroke-width="3" stroke-linecap="round" stroke-linejoin="round"/>
<path d="M24.5 32C24.5 34.0711 22.8211 35.75 20.75 35.75C18.6789 35.75 17 34.0711 17 32C17 29.9289 18.6789 28.25 20.75 28.25C22.8211 28.25 24.5 29.9289 24.5 32Z" stroke="white" stroke-width="3" stroke-linecap="round" stroke-linejoin="round"/>
<path d="M37 32C37 34.0711 35.3211 35.75 33.25 35.75C31.1789 35.75 29.5 34.0711 29.5 32C29.5 29.9289 31.1789 28.25 33.25 28.25C35.3211 28.25 37 29.9289 37 32Z" stroke="white" stroke-width="3" stroke-linecap="round" stroke-linejoin="round"/>
</svg>
