<svg width="39" height="39" viewBox="0 0 39 39" fill="none" xmlns="http://www.w3.org/2000/svg">
<circle cx="19.5" cy="19.5" r="19.5" fill="#26D287"/>
<path d="M13.25 16.375L18.3531 19.9471C18.7663 20.2364 18.9729 20.3811 19.1977 20.4371C19.3962 20.4866 19.6038 20.4866 19.8023 20.4371C20.0271 20.3811 20.2337 20.2364 20.6469 19.9471L25.75 16.375M16.25 24.5H22.75C23.8001 24.5 24.3251 24.5 24.7262 24.2956C25.0791 24.1159 25.3659 23.8291 25.5456 23.4762C25.75 23.0751 25.75 22.5501 25.75 21.5V17.5C25.75 16.4499 25.75 15.9249 25.5456 15.5238C25.3659 15.171 25.0791 14.8841 24.7262 14.7044C24.3251 14.5 23.8001 14.5 22.75 14.5H16.25C15.1999 14.5 14.6749 14.5 14.2738 14.7044C13.921 14.8841 13.6341 15.171 13.4544 15.5238C13.25 15.9249 13.25 16.4499 13.25 17.5V21.5C13.25 22.5501 13.25 23.0751 13.4544 23.4762C13.6341 23.8291 13.921 24.1159 14.2738 24.2956C14.6749 24.5 15.1999 24.5 16.25 24.5Z" stroke="white" stroke-width="1.5" stroke-linecap="round" stroke-linejoin="round"/>
</svg>
