<svg width="82" height="82" viewBox="0 0 82 82" fill="none" xmlns="http://www.w3.org/2000/svg">
<circle cx="41" cy="41" r="41" fill="#FFA200"/>
<path fill-rule="evenodd" clip-rule="evenodd" d="M60.5001 36.45C59.7251 28.5 55.0251 16 40.5001 16C25.9751 16 21.2751 28.5 20.5001 36.45C17.7814 37.4818 15.9881 40.0921 16.0001 43V46.5C16.0001 50.366 19.1341 53.5 23.0001 53.5C26.8661 53.5 30.0001 50.366 30.0001 46.5V43C29.9876 40.1549 28.2601 37.5982 25.6251 36.525C26.1251 31.925 28.5751 21 40.5001 21C52.4251 21 54.8501 31.925 55.3501 36.525C52.7205 37.6006 51.0017 40.1589 51.0001 43V46.5C51.011 49.1875 52.5541 51.6332 54.9751 52.8C53.9251 54.775 51.2501 57.45 44.6751 58.25C43.3608 56.2542 40.818 55.4675 38.6062 56.3722C36.3945 57.277 35.1321 59.6203 35.5933 61.9651C36.0546 64.3098 38.1105 66 40.5001 66C42.3885 65.9895 44.1098 64.9161 44.9501 63.225C55.6751 62 59.1001 56.475 60.1751 53.225C63.0834 52.2829 65.0393 49.5568 65.0001 46.5V43C65.0122 40.0921 63.2188 37.4818 60.5001 36.45ZM25.0001 46.5C25.0001 47.6046 24.1047 48.5 23.0001 48.5C21.8956 48.5 21.0001 47.6046 21.0001 46.5V43C21.0001 42.2855 21.3813 41.6252 22.0001 41.2679C22.6189 40.9107 23.3813 40.9107 24.0001 41.2679C24.6189 41.6252 25.0001 42.2855 25.0001 43V46.5ZM56.0001 43C56.0001 41.8954 56.8955 41 58.0001 41C59.1047 41 60.0001 41.8954 60.0001 43V46.5C60.0001 47.6046 59.1047 48.5 58.0001 48.5C56.8955 48.5 56.0001 47.6046 56.0001 46.5V43Z" fill="white"/>
</svg>
