<svg width="42" height="42" viewBox="0 0 42 42" fill="none" xmlns="http://www.w3.org/2000/svg">
<path d="M26.25 13.7812C26.25 14.1435 25.956 14.4375 25.5938 14.4375H21.6563C21.294 14.4375 21 14.1435 21 13.7812C21 13.419 21.294 13.125 21.6563 13.125H25.5938C25.956 13.125 26.25 13.419 26.25 13.7812ZM16.4063 14.4375H13.7813C13.419 14.4375 13.125 14.7315 13.125 15.0938C13.125 15.456 13.419 15.75 13.7813 15.75H16.4063C16.7685 15.75 17.0625 15.456 17.0625 15.0938C17.0625 14.7315 16.7685 14.4375 16.4063 14.4375ZM16.4063 17.0625H13.7813C13.419 17.0625 13.125 17.3565 13.125 17.7188C13.125 18.081 13.419 18.375 13.7813 18.375H16.4063C16.7685 18.375 17.0625 18.081 17.0625 17.7188C17.0625 17.3565 16.7685 17.0625 16.4063 17.0625ZM36.1187 20.769L32.1969 21.1116C31.8373 21.1431 31.5683 21.462 31.6011 21.8229C31.6299 22.1642 31.9174 22.4214 32.2534 22.4214C32.2731 22.4214 32.2914 22.4201 32.3124 22.4188L36.2342 22.0763C36.5938 22.0448 36.8629 21.7258 36.8301 21.3649C36.7973 21.0052 36.4914 20.7362 36.1187 20.769ZM40.6455 34.8652C40.8345 37.0322 39.2319 38.9419 37.0663 39.1309L34.4518 39.3593C34.335 39.3698 34.2195 39.375 34.104 39.375C32.0841 39.375 30.3647 37.8302 30.1862 35.7801L28.875 20.7952V35.4375C28.875 37.6123 27.1123 39.375 24.9375 39.375H22.3125C20.9409 39.375 19.7361 38.6728 19.0313 37.6097C18.3264 38.6728 17.1216 39.375 15.75 39.375H14.4375C13.0659 39.375 11.8611 38.6728 11.1563 37.6097C10.4514 38.6728 9.24656 39.375 7.875 39.375H5.25C3.07519 39.375 1.3125 37.6123 1.3125 35.4375V9.1875C1.3125 7.01269 3.07519 5.25 5.25 5.25H7.875C10.0498 5.25 11.8125 7.01269 11.8125 9.1875V11.5224C12.5108 10.8938 13.4243 10.5 14.4375 10.5H15.75C16.7633 10.5 17.6768 10.8938 18.375 11.5224V7.875C18.375 5.70019 20.1377 3.9375 22.3125 3.9375H24.9375C27.1123 3.9375 28.875 5.70019 28.875 7.875V17.2252C29.3488 15.7671 30.6548 14.658 32.2783 14.5163L34.8928 14.2879C35.0096 14.2774 35.1251 14.2721 35.2406 14.2721C37.2606 14.2721 38.9799 15.8169 39.1584 17.8671L40.6455 34.8652ZM10.5 35.4375V9.1875C10.5 7.73981 9.32269 6.5625 7.875 6.5625H5.25C3.80231 6.5625 2.625 7.73981 2.625 9.1875V35.4375C2.625 36.8852 3.80231 38.0625 5.25 38.0625H7.875C9.32269 38.0625 10.5 36.8852 10.5 35.4375ZM18.375 14.4375C18.375 12.9898 17.1977 11.8125 15.75 11.8125H14.4375C12.9898 11.8125 11.8125 12.9898 11.8125 14.4375V35.4375C11.8125 36.8852 12.9898 38.0625 14.4375 38.0625H15.75C17.1977 38.0625 18.375 36.8852 18.375 35.4375V14.4375ZM27.5625 7.875C27.5625 6.42731 26.3852 5.25 24.9375 5.25H22.3125C20.8648 5.25 19.6875 6.42731 19.6875 7.875V11.8125V35.4375C19.6875 36.8852 20.8648 38.0625 22.3125 38.0625H24.9375C26.3852 38.0625 27.5625 36.8852 27.5625 35.4375V7.875ZM39.3383 34.9794L37.8512 17.9812C37.7331 16.6372 36.5873 15.5846 35.2406 15.5846C35.1632 15.5846 35.0858 15.5886 35.007 15.5951L32.3925 15.8235C31.6943 15.8852 31.0616 16.2146 30.6101 16.7514C30.1599 17.2882 29.9447 17.9694 30.0064 18.6677L31.4934 35.6659C31.6116 37.0099 32.7574 38.0625 34.104 38.0625C34.1814 38.0625 34.2589 38.0586 34.3376 38.052L36.9521 37.8236C37.6504 37.7619 38.283 37.4325 38.7345 36.8957C39.186 36.3589 39.3999 35.6777 39.3383 34.9794ZM32.0814 19.8043L36.0045 19.4604C36.3641 19.4289 36.6332 19.11 36.6004 18.7491C36.5702 18.3894 36.2644 18.1204 35.889 18.1532L31.9659 18.4971C31.6063 18.5286 31.3373 18.8475 31.3701 19.2084C31.3989 19.5497 31.6864 19.8069 32.0224 19.8069C32.0421 19.8069 32.0618 19.8056 32.0814 19.8043ZM25.5938 7.875H21.6563C21.294 7.875 21 8.169 21 8.53125C21 8.8935 21.294 9.1875 21.6563 9.1875H25.5938C25.956 9.1875 26.25 8.8935 26.25 8.53125C26.25 8.169 25.956 7.875 25.5938 7.875ZM25.5938 10.5H21.6563C21.294 10.5 21 10.794 21 11.1562C21 11.5185 21.294 11.8125 21.6563 11.8125H25.5938C25.956 11.8125 26.25 11.5185 26.25 11.1562C26.25 10.794 25.956 10.5 25.5938 10.5ZM8.53125 14.4375H4.59375C4.2315 14.4375 3.9375 14.7315 3.9375 15.0938C3.9375 15.456 4.2315 15.75 4.59375 15.75H8.53125C8.8935 15.75 9.1875 15.456 9.1875 15.0938C9.1875 14.7315 8.8935 14.4375 8.53125 14.4375ZM8.53125 9.1875H4.59375C4.2315 9.1875 3.9375 9.4815 3.9375 9.84375C3.9375 10.206 4.2315 10.5 4.59375 10.5H8.53125C8.8935 10.5 9.1875 10.206 9.1875 9.84375C9.1875 9.4815 8.8935 9.1875 8.53125 9.1875ZM8.53125 11.8125H4.59375C4.2315 11.8125 3.9375 12.1065 3.9375 12.4688C3.9375 12.831 4.2315 13.125 4.59375 13.125H8.53125C8.8935 13.125 9.1875 12.831 9.1875 12.4688C9.1875 12.1065 8.8935 11.8125 8.53125 11.8125Z" fill="#0B1719"/>
</svg>
