<svg width="42" height="42" viewBox="0 0 42 42" fill="none" xmlns="http://www.w3.org/2000/svg">
<g clip-path="url(#clip0_118_531)">
<path d="M41.8309 14.4616C41.6057 14.2362 41.2402 14.2362 41.0148 14.4616L37.4204 18.0561C37.3268 18.1497 37.2683 18.2726 37.2546 18.4042C36.9684 21.1422 35.7389 23.7221 33.7922 25.6687L32.9381 26.5229L26.7317 20.3165C27.1243 20.4091 27.5085 20.456 27.8816 20.456C28.429 20.456 28.9528 20.356 29.4448 20.1546C29.7398 20.034 29.8811 19.697 29.7604 19.402C29.6398 19.1069 29.3027 18.9659 29.0078 19.0864C26.6314 20.0586 23.8916 17.4711 23.5465 17.1313L21.8975 15.4822C22.1022 14.614 21.9254 13.6821 21.399 12.9251C20.8038 12.0694 19.8576 11.5788 18.7989 11.5788L14.8046 11.6073C14.801 11.6073 14.7975 11.6073 14.794 11.6073C14.4116 11.6073 14.0521 11.4592 13.7805 11.1895C13.5064 10.9173 13.3555 10.5546 13.3556 10.1681V10.108C13.3558 9.33272 13.9629 8.70141 14.7376 8.67087L22.0116 8.38429C24.6368 8.28095 27.2534 9.07819 29.3755 10.6291C29.6053 10.7969 29.923 10.7724 30.124 10.5712L33.9444 6.75083C34.1698 6.52551 34.1698 6.16009 33.9445 5.93477C33.7191 5.70936 33.3538 5.70936 33.1284 5.93477L29.6506 9.41263C27.3958 7.89636 24.6861 7.12406 21.9662 7.23104L14.6922 7.51762C14.675 7.51833 14.6583 7.51984 14.6413 7.52091L11.8814 4.7611C11.6561 4.53569 11.2907 4.53569 11.0653 4.7611C10.8399 4.98642 10.8399 5.35184 11.0653 5.57716L13.4049 7.91669C12.6788 8.37603 12.2017 9.18526 12.2015 10.1079V10.1681C12.2013 10.8643 12.4733 11.5179 12.9672 12.0085C13.4612 12.4991 14.1161 12.7665 14.8128 12.7615L18.8029 12.7329C19.7221 12.7329 20.2303 13.2662 20.4513 13.5841C20.6197 13.8262 20.7326 14.0952 20.7875 14.3724L20.5897 14.1746C20.3644 13.9492 19.999 13.9492 19.7737 14.1746C19.5483 14.3999 19.5483 14.7653 19.7737 14.9907L32.7946 28.0116C33.357 28.5739 33.357 29.4888 32.7946 30.0511C32.2327 30.6131 31.3182 30.6132 30.7561 30.0518L22.4623 21.7581C22.237 21.5327 21.8715 21.5327 21.6463 21.7581C21.4209 21.9834 21.4209 22.3488 21.6463 22.5741L30.5795 31.5074C31.1418 32.0697 31.1418 32.9846 30.5795 33.5469C30.3072 33.8192 29.9451 33.9693 29.5598 33.9693C29.1745 33.9693 28.8124 33.8192 28.5401 33.5469L20.0717 25.0784C19.8463 24.8531 19.481 24.8531 19.2556 25.0784C19.0303 25.3038 19.0302 25.6692 19.2556 25.8945L26.1947 32.8337C26.7565 33.396 26.7564 34.3105 26.1943 34.8725C25.6319 35.4349 24.717 35.4348 24.1548 34.8725L16.6184 27.3362C16.3931 27.1108 16.0277 27.1108 15.8024 27.3362C15.577 27.5615 15.577 27.9269 15.8024 28.1522L21.3926 33.7424L21.3927 33.7425C21.955 34.3048 21.955 35.2196 21.3927 35.782C20.8305 36.3442 19.9155 36.3442 19.3533 35.782L9.23959 25.6687C7.29301 23.7221 6.06341 21.1422 5.77736 18.4042C5.7636 18.2726 5.7051 18.1497 5.61143 18.0561L0.985122 13.4297C0.759799 13.2043 0.394382 13.2043 0.169059 13.4297C-0.0563529 13.6551 -0.0563529 14.0205 0.169059 14.2458L4.65261 18.7293C5.00489 21.6532 6.33907 24.4002 8.42353 26.4847L9.27457 27.3357C8.95772 27.7744 8.78629 28.2995 8.78629 28.8513C8.78629 29.5448 9.05635 30.1968 9.54668 30.6871C10.0528 31.1932 10.7176 31.4463 11.3825 31.4463C11.4479 31.4463 11.5132 31.4431 11.5785 31.4383C11.5562 31.576 11.5442 31.7165 11.5442 31.8588C11.5442 32.5523 11.8143 33.2043 12.3046 33.6946C12.8108 34.2007 13.4755 34.4538 14.1404 34.4538C14.2698 34.4538 14.3991 34.444 14.5273 34.4248C14.4097 35.2118 14.6528 36.0429 15.2574 36.6475C15.7478 37.1378 16.3998 37.4079 17.0932 37.4079C17.7113 37.4079 18.2961 37.1929 18.7633 36.799C19.2333 37.171 19.8029 37.3576 20.3729 37.3576C21.0377 37.3576 21.7027 37.1045 22.2088 36.5984C22.5858 36.2213 22.8222 35.7561 22.9183 35.2686L23.3385 35.6888C23.8447 36.195 24.5094 36.448 25.1744 36.448C25.8392 36.448 26.5042 36.1949 27.0104 35.6888C27.3874 35.3117 27.6237 34.8466 27.7199 34.359L27.7239 34.363C28.2142 34.8533 28.8662 35.1234 29.5598 35.1234C30.2534 35.1234 30.9053 34.8533 31.3957 34.363C32.1369 33.6218 32.3347 32.5404 31.9904 31.6169C32.5816 31.5681 33.1594 31.3186 33.6108 30.8671C34.5748 29.9032 34.62 28.364 33.748 27.3451L34.6083 26.4847C36.6928 24.4002 38.027 21.6531 38.3793 18.7293L41.831 15.2776C42.0563 15.0523 42.0563 14.6869 41.8309 14.4616ZM10.3628 29.871C10.0905 29.5986 9.94042 29.2365 9.94042 28.8513C9.94042 28.6101 9.99928 28.378 10.1101 28.1712L12.0625 30.1237C11.8558 30.2345 11.6237 30.2933 11.3825 30.2933C10.9973 30.2935 10.6352 30.1435 10.3628 29.871ZM13.1208 32.8786C12.8484 32.6062 12.6984 32.2441 12.6984 31.8589C12.6984 31.5559 12.7924 31.268 12.9646 31.026L14.9732 33.0345C14.4106 33.4333 13.6245 33.3823 13.1208 32.8786ZM16.0736 35.8314C15.5699 35.3277 15.5189 34.5417 15.9177 33.979L17.9262 35.9876C17.6842 36.1597 17.3962 36.2538 17.0932 36.2538C16.7081 36.2538 16.346 36.1038 16.0736 35.8314Z" fill="black"/>
</g>
<defs>
<clipPath id="clip0_118_531">
<rect width="42" height="42" fill="white"/>
</clipPath>
</defs>
</svg>
