<svg width="42" height="42" viewBox="0 0 42 42" fill="none" xmlns="http://www.w3.org/2000/svg">
<g clip-path="url(#clip0_118_550)">
<path d="M0.945198 40.1529C0.826916 40.1529 0.706506 40.1306 0.590115 40.0833C0.106351 39.887 -0.126668 39.3357 0.0696021 38.8519L2.67725 32.425C3.79981 29.6596 5.78992 26.0055 10.1612 25.8287C10.1982 25.8242 10.2356 25.8219 10.2733 25.8219H14.1733C14.211 25.8219 14.2485 25.8242 14.2854 25.8287C18.657 26.0055 20.6472 29.6596 21.7696 32.4248L22.1059 33.2538L29.1143 26.7769C29.4978 26.4226 30.096 26.4462 30.4502 26.8295C30.8045 27.213 30.781 27.811 30.3976 28.1654L22.3855 35.5699C22.1575 35.7806 21.8405 35.866 21.5379 35.7982C21.235 35.7306 20.9845 35.5186 20.8679 35.231L20.0178 33.1358C18.6672 29.8083 17.109 28.1508 14.9252 27.7893L14.3693 30.4428L15.113 37.1334C15.1486 37.4548 15.0176 37.7722 14.7655 37.9748L13.1095 39.3053C12.9416 39.4402 12.7328 39.5137 12.5174 39.5137H11.9296C11.7143 39.5137 11.5054 39.4402 11.3376 39.3054L9.68142 37.9749C9.42926 37.7723 9.29821 37.455 9.3339 37.1334L10.0777 30.4428L9.52178 27.7894C7.33811 28.1511 5.77988 29.8086 4.42915 33.1359L1.8215 39.5628C1.6725 39.9301 1.31871 40.1529 0.945198 40.1529ZM11.2704 36.8262L12.2235 37.5919L13.1765 36.8262L12.567 31.3423H11.8799L11.2704 36.8262ZM11.8018 29.4517H12.6453L13.0096 27.7127H11.4373L11.8018 29.4517ZM41.0547 37.1364H26.6852C26.1632 37.1364 25.7399 36.7131 25.7399 36.1911C25.7399 35.669 26.1632 35.2458 26.6852 35.2458H40.1093V8.02844H2.63991V27.9201C2.63991 28.4421 2.21664 28.8654 1.69459 28.8654C1.17255 28.8654 0.749282 28.4421 0.749282 27.9201V7.08313C0.749282 6.56108 1.17255 6.13782 1.69459 6.13782H41.0547C41.5767 6.13782 42 6.56108 42 7.08313V36.1911C42 36.7131 41.5767 37.1364 41.0547 37.1364ZM16.9034 32.6618C16.3813 32.6618 15.9581 32.2385 15.9581 31.7164V31.5878C15.9581 31.0657 16.3813 30.6425 16.9034 30.6425C17.4254 30.6425 17.8487 31.0657 17.8487 31.5878V31.7164C17.8487 32.2385 17.4254 32.6618 16.9034 32.6618ZM12.2235 24.0901C9.35553 24.0901 7.02214 21.7567 7.02214 18.8888C7.02214 16.0208 9.35541 13.6874 12.2235 13.6874C12.5678 13.6874 12.9046 13.7211 13.2304 13.7853C13.2494 13.7885 13.2683 13.7924 13.2871 13.7969C15.6467 14.2891 17.4247 16.3852 17.4247 18.8888C17.4247 21.7569 15.0914 24.0901 12.2235 24.0901ZM10.5356 16.0415C9.56468 16.6193 8.91276 17.6794 8.91276 18.8888C8.91276 20.7143 10.398 22.1995 12.2235 22.1995C14.049 22.1995 15.5342 20.7143 15.5342 18.8888C15.5342 17.5072 14.6835 16.3205 13.4784 15.8251C13.0471 16.3951 12.502 16.8715 11.873 17.2246C11.4176 17.4802 10.8414 17.3181 10.586 16.8629C10.439 16.6011 10.43 16.2993 10.5356 16.0415ZM35.9288 17.771H31.0773C30.5552 17.771 30.132 17.3477 30.132 16.8256C30.132 16.3036 30.5552 15.8803 31.0773 15.8803H35.9288C36.4509 15.8803 36.8742 16.3036 36.8742 16.8256C36.8742 17.3477 36.4509 17.771 35.9288 17.771ZM26.6851 17.771H24.8831C24.3611 17.771 23.9378 17.3477 23.9378 16.8256C23.9378 16.3036 24.3611 15.8803 24.8831 15.8803H26.6851C27.2072 15.8803 27.6304 16.3036 27.6304 16.8256C27.6304 17.3477 27.2072 17.771 26.6851 17.771ZM35.9288 13.8271H26.2257C25.7036 13.8271 25.2804 13.4038 25.2804 12.8818C25.2804 12.3597 25.7036 11.9365 26.2257 11.9365H35.9288C36.4509 11.9365 36.8742 12.3597 36.8742 12.8818C36.8742 13.4038 36.4509 13.8271 35.9288 13.8271ZM26.2264 3.73767H16.5228C16.0007 3.73767 15.5775 3.31441 15.5775 2.79236C15.5775 2.27031 16.0007 1.84705 16.5228 1.84705H26.2264C26.7484 1.84705 27.1717 2.27031 27.1717 2.79236C27.1717 3.31441 26.7484 3.73767 26.2264 3.73767Z" fill="black"/>
</g>
<defs>
<clipPath id="clip0_118_550">
<rect width="42" height="42" fill="white"/>
</clipPath>
</defs>
</svg>
