<svg width="42" height="42" viewBox="0 0 42 42" fill="none" xmlns="http://www.w3.org/2000/svg">
<g clip-path="url(#clip0_118_512)">
<path d="M35.4547 16.4032C35.2741 16.4032 35.1235 16.2565 35.1235 16.0752C35.1235 15.8938 35.267 15.7471 35.4483 15.7471H35.4547C35.6361 15.7471 35.7829 15.8938 35.7829 16.0752C35.7829 16.1183 35.7744 16.161 35.7579 16.2008C35.7414 16.2406 35.7173 16.2768 35.6868 16.3072C35.6563 16.3377 35.6201 16.3619 35.5803 16.3783C35.5405 16.3948 35.4978 16.4033 35.4547 16.4032ZM29.8582 17.7156C29.6768 17.7156 29.53 17.5688 29.53 17.3875V15.8387C29.53 14.7789 30.2092 14.4354 30.9045 14.1753C31.3204 14.0196 31.8599 13.8132 32.3463 13.5909C32.5103 13.5139 32.7058 13.5877 32.7808 13.7523C32.7987 13.7914 32.8088 13.8337 32.8104 13.8768C32.812 13.9198 32.8052 13.9627 32.7901 14.0031C32.7751 14.0434 32.7523 14.0804 32.723 14.1119C32.6937 14.1435 32.6584 14.1689 32.6192 14.1868C32.1143 14.4187 31.5601 14.6308 31.1345 14.7898C30.3809 15.0717 30.1861 15.2876 30.1861 15.8387V17.3875C30.1862 17.4305 30.1777 17.4732 30.1612 17.513C30.1448 17.5529 30.1206 17.589 30.0902 17.6195C30.0597 17.65 30.0235 17.6742 29.9837 17.6906C29.9439 17.7071 29.9012 17.7156 29.8582 17.7156ZM41.0129 17.7156C40.9698 17.7156 40.9272 17.7071 40.8873 17.6906C40.8475 17.6742 40.8114 17.65 40.7809 17.6195C40.7504 17.589 40.7263 17.5529 40.7098 17.513C40.6933 17.4732 40.6849 17.4305 40.6849 17.3875V15.8387C40.6849 15.2876 40.4894 15.0716 39.7359 14.7891C39.5154 14.7077 38.8426 14.4571 38.2544 14.1868C38.2152 14.1688 38.1799 14.1433 38.1506 14.1117C38.1213 14.0801 38.0985 14.0431 38.0835 14.0027C38.0685 13.9623 38.0616 13.9193 38.0632 13.8762C38.0648 13.8332 38.0749 13.7908 38.0929 13.7517C38.1692 13.5876 38.364 13.5139 38.528 13.5909C39.0944 13.851 39.75 14.0946 39.9652 14.1746C40.6618 14.4354 41.341 14.7789 41.341 15.8387V17.3875C41.341 17.4305 41.3326 17.4732 41.3161 17.5131C41.2996 17.5529 41.2755 17.5891 41.245 17.6195C41.2145 17.65 41.1783 17.6742 41.1385 17.6907C41.0987 17.7071 41.056 17.7156 41.0129 17.7156ZM31.2524 9.81408C31.196 9.81408 31.139 9.79932 31.0885 9.77052C31.0386 9.74157 30.9973 9.70007 30.9685 9.65016C30.9397 9.60024 30.9245 9.54366 30.9244 9.48604C30.9237 7.23559 31.9925 6.14884 32.6045 5.71113L32.4238 5.54386C32.3828 5.50598 32.3521 5.45825 32.3348 5.4052C32.3174 5.35215 32.3139 5.29555 32.3245 5.24076C32.3351 5.18601 32.3595 5.13488 32.3954 5.09217C32.4313 5.04946 32.4774 5.01658 32.5295 4.99663C32.5865 4.97481 33.9328 4.46729 35.3931 4.46729C36.601 4.46729 37.5321 4.81141 38.162 5.48931C38.8585 6.24031 39.1552 7.38153 39.043 8.88163C39.0383 8.94729 39.0139 9.01 38.973 9.06156C38.9321 9.11312 38.8765 9.15113 38.8137 9.17063C38.6855 9.2091 38.5458 9.16874 38.4606 9.063L37.5609 7.94804C34.7607 7.84484 31.4491 9.75116 31.4171 9.76978C31.3659 9.79932 31.3095 9.81408 31.2524 9.81408ZM33.2819 5.44387L33.3716 5.52655C33.4117 5.56373 33.4419 5.61034 33.4594 5.66215C33.4768 5.71396 33.481 5.76932 33.4716 5.82318C33.4624 5.87706 33.4399 5.92779 33.4061 5.97077C33.3723 6.01374 33.3283 6.0476 33.2781 6.06927C33.2153 6.09684 31.8165 6.74209 31.6069 8.92265C32.7085 8.35942 35.3651 7.15857 37.7432 7.29958C37.7888 7.30211 37.8334 7.31427 37.8741 7.33525C37.9147 7.35623 37.9504 7.38556 37.9789 7.42131L38.4012 7.94418C38.3531 7.07334 38.1122 6.39986 37.681 5.93597C37.1805 5.39711 36.411 5.12345 35.3933 5.12345C34.5744 5.12345 33.7791 5.30294 33.2819 5.44387Z" fill="#151F2D"/>
<path d="M35.4355 14.4347C33.9259 14.4347 31.8267 12.1401 31.8267 9.88135C31.8267 9.69998 31.9734 9.55322 32.1548 9.55322C32.3362 9.55322 32.4828 9.69998 32.4828 9.88135C32.4828 11.8531 34.3508 13.7786 35.4355 13.7786C36.5197 13.7786 38.3883 11.853 38.3883 9.88135C38.3883 9.69998 38.535 9.55322 38.7164 9.55322C38.8978 9.55322 39.0444 9.69998 39.0444 9.88135C39.0444 12.1401 36.9446 14.4347 35.4355 14.4347ZM29.8582 41.9934C29.6768 41.9934 29.53 41.8466 29.53 41.6653V18.6998C29.53 18.5185 29.6768 18.3717 29.8582 18.3717C29.9012 18.3716 29.9439 18.3801 29.9837 18.3966C30.0236 18.4131 30.0597 18.4373 30.0902 18.4677C30.1207 18.4982 30.1448 18.5344 30.1613 18.5742C30.1778 18.614 30.1862 18.6567 30.1862 18.6998V41.6653C30.1862 41.8466 30.0394 41.9934 29.8582 41.9934ZM41.0129 41.9934C40.9698 41.9934 40.9272 41.9849 40.8873 41.9684C40.8475 41.952 40.8114 41.9278 40.7809 41.8973C40.7504 41.8668 40.7263 41.8307 40.7098 41.7908C40.6933 41.751 40.6849 41.7084 40.6849 41.6653V18.6998C40.6849 18.5185 40.8316 18.3717 41.0129 18.3717C41.1943 18.3717 41.3411 18.5184 41.3411 18.6998V41.6653C41.3411 41.8466 41.1943 41.9934 41.0129 41.9934Z" fill="#151F2D"/>
<path d="M32.1548 10.2095C31.9734 10.2095 31.8267 10.0627 31.8267 9.88142V9.02148C31.8267 8.8402 31.9734 8.69344 32.1548 8.69344C32.3362 8.69344 32.4828 8.8402 32.4828 9.02148V9.88142C32.4828 9.9245 32.4744 9.96717 32.4579 10.007C32.4414 10.0468 32.4173 10.083 32.3868 10.1134C32.3563 10.1439 32.3202 10.1681 32.2803 10.1845C32.2405 10.201 32.1979 10.2095 32.1548 10.2095ZM38.7165 10.2095C38.6734 10.2095 38.6307 10.201 38.5909 10.1845C38.5511 10.1681 38.5149 10.1439 38.4845 10.1134C38.454 10.083 38.4298 10.0468 38.4133 10.007C38.3969 9.96717 38.3884 9.9245 38.3884 9.88142V8.85742C38.3884 8.67613 38.5351 8.5293 38.7165 8.5293C38.8978 8.5293 39.0445 8.67605 39.0445 8.85742V9.88142C39.0445 9.9245 39.0361 9.96717 39.0196 10.007C39.0031 10.0468 38.9789 10.083 38.9485 10.1134C38.918 10.1439 38.8818 10.1681 38.842 10.1845C38.8022 10.201 38.7595 10.2095 38.7165 10.2095ZM34.4514 15.7471C34.4083 15.7472 34.3657 15.7387 34.3258 15.7222C34.286 15.7058 34.2499 15.6816 34.2194 15.6511L32.9071 14.3388C32.8758 14.3085 32.8508 14.2723 32.8336 14.2322C32.8164 14.1922 32.8073 14.1492 32.8069 14.1056C32.8066 14.062 32.8149 14.0188 32.8314 13.9785C32.8479 13.9382 32.8722 13.9015 32.903 13.8707C32.9338 13.8399 32.9705 13.8155 33.0108 13.799C33.0511 13.7825 33.0943 13.7742 33.1379 13.7746C33.1815 13.775 33.2245 13.7841 33.2646 13.8012C33.3046 13.8184 33.3408 13.8434 33.3711 13.8748L34.6834 15.1871C34.7292 15.233 34.7605 15.2915 34.7731 15.3551C34.7857 15.4187 34.7792 15.4847 34.7544 15.5446C34.7296 15.6045 34.6875 15.6558 34.6336 15.6918C34.5797 15.7279 34.5163 15.7471 34.4514 15.7471Z" fill="#151F2D"/>
<path d="M34.4513 15.7471C34.3973 15.7472 34.3441 15.7339 34.2964 15.7084C34.2488 15.6829 34.2082 15.646 34.1783 15.601C34.1544 15.5652 34.1377 15.525 34.1293 15.4827C34.1209 15.4404 34.121 15.3969 34.1294 15.3547C34.1379 15.3124 34.1546 15.2722 34.1786 15.2364C34.2026 15.2006 34.2334 15.1699 34.2693 15.1461L35.2536 14.4899C35.326 14.4436 35.4136 14.4276 35.4977 14.4453C35.5818 14.4629 35.6556 14.5129 35.7033 14.5844C35.751 14.6559 35.7687 14.7432 35.7526 14.8276C35.7366 14.912 35.6881 14.9868 35.6176 15.0358L34.6333 15.692C34.5794 15.7279 34.5161 15.747 34.4513 15.7471ZM36.4198 15.7471C36.355 15.7471 36.2915 15.7278 36.2376 15.6918C36.1837 15.6557 36.1417 15.6045 36.1168 15.5446C36.092 15.4846 36.0855 15.4187 36.0981 15.3551C36.1108 15.2914 36.142 15.233 36.1878 15.1871L37.5002 13.8748C37.5621 13.8154 37.6449 13.7828 37.7307 13.7837C37.8164 13.7847 37.8984 13.8192 37.9591 13.8798C38.0197 13.9405 38.0542 14.0225 38.0551 14.1083C38.0561 14.194 38.0234 14.2768 37.9641 14.3387L36.6517 15.6511C36.6213 15.6815 36.5851 15.7057 36.5453 15.7222C36.5056 15.7387 36.4629 15.7472 36.4198 15.7471Z" fill="#151F2D"/>
<path d="M36.4192 15.7471C36.3546 15.747 36.2915 15.7278 36.2378 15.692L35.2536 15.0358C35.2177 15.0119 35.1868 14.9812 35.1628 14.9454C35.1388 14.9096 35.1221 14.8695 35.1137 14.8272C35.1052 14.7849 35.1052 14.7414 35.1136 14.6991C35.122 14.6569 35.1386 14.6167 35.1626 14.5808C35.1865 14.545 35.2172 14.5142 35.253 14.4902C35.2888 14.4662 35.329 14.4495 35.3712 14.4411C35.4135 14.4326 35.457 14.4326 35.4992 14.4409C35.5415 14.4493 35.5817 14.4659 35.6176 14.4899L36.6018 15.146C36.6604 15.1851 36.7048 15.2421 36.7285 15.3084C36.7523 15.3747 36.754 15.4469 36.7336 15.5143C36.7131 15.5817 36.6715 15.6408 36.6148 15.6827C36.5582 15.7246 36.4896 15.7472 36.4192 15.7471ZM41.0129 19.0279H29.8581C29.6768 19.0279 29.53 18.8812 29.53 18.6998C29.53 18.5184 29.6768 18.3717 29.8581 18.3717H41.0128C41.1942 18.3717 41.341 18.5184 41.341 18.6998C41.341 18.8812 41.1943 19.0279 41.0129 19.0279ZM16.7349 41.9934C16.5535 41.9934 16.4067 41.8466 16.4067 41.6653V25.9173C16.4067 25.7359 16.5535 25.5892 16.7349 25.5892C16.778 25.5892 16.8206 25.5976 16.8604 25.6141C16.9003 25.6306 16.9364 25.6548 16.9669 25.6853C16.9974 25.7157 17.0215 25.7519 17.038 25.7917C17.0545 25.8315 17.0629 25.8742 17.0629 25.9173V41.6653C17.0629 41.8466 16.9162 41.9934 16.7349 41.9934ZM27.8896 41.9934C27.8465 41.9934 27.8038 41.9849 27.764 41.9685C27.7242 41.952 27.688 41.9278 27.6575 41.8973C27.627 41.8669 27.6029 41.8307 27.5864 41.7908C27.5699 41.751 27.5615 41.7084 27.5615 41.6653V25.9173C27.5615 25.7359 27.7083 25.5892 27.8896 25.5892C28.0709 25.5892 28.2177 25.7359 28.2177 25.9173V41.6653C28.2177 41.8466 28.0709 41.9934 27.8896 41.9934Z" fill="#151F2D"/>
<path d="M27.8895 26.2454H16.7348C16.5535 26.2454 16.4067 26.0987 16.4067 25.9174C16.4067 25.736 16.5535 25.5892 16.7348 25.5892H27.8895C28.0709 25.5892 28.2177 25.736 28.2177 25.9174C28.2177 26.0987 28.0709 26.2454 27.8895 26.2454ZM3.61157 41.9934C3.4302 41.9934 3.28345 41.8467 3.28345 41.6653V33.7914C3.28343 33.7483 3.2919 33.7056 3.30838 33.6658C3.32487 33.626 3.34904 33.5898 3.37951 33.5593C3.40998 33.5289 3.44617 33.5047 3.48599 33.4882C3.5258 33.4718 3.56848 33.4633 3.61157 33.4633C3.65466 33.4633 3.69732 33.4718 3.73713 33.4883C3.77694 33.5047 3.81312 33.5289 3.84358 33.5594C3.87405 33.5898 3.89821 33.626 3.91469 33.6658C3.93117 33.7056 3.93964 33.7483 3.93962 33.7914V41.6653C3.93962 41.8467 3.79286 41.9934 3.61157 41.9934ZM14.7663 41.9934C14.585 41.9934 14.4382 41.8467 14.4382 41.6653V33.7914C14.4382 33.7483 14.4467 33.7056 14.4632 33.6658C14.4796 33.626 14.5038 33.5898 14.5343 33.5593C14.5648 33.5289 14.6009 33.5047 14.6408 33.4882C14.6806 33.4718 14.7233 33.4633 14.7663 33.4633C14.8094 33.4633 14.8521 33.4718 14.8919 33.4883C14.9317 33.5047 14.9679 33.5289 14.9984 33.5594C15.0288 33.5898 15.053 33.626 15.0695 33.6658C15.0859 33.7056 15.0944 33.7483 15.0944 33.7914V41.6653C15.0944 41.8467 14.9477 41.9934 14.7663 41.9934Z" fill="#151F2D"/>
<path d="M14.7663 34.1195H3.61157C3.4302 34.1195 3.28345 33.9728 3.28345 33.7914C3.28345 33.6101 3.4302 33.4634 3.61157 33.4634H14.7663C14.9476 33.4634 15.0944 33.6101 15.0944 33.7914C15.0944 33.9728 14.9477 34.1195 14.7663 34.1195ZM37.7321 3.28007H33.1389C33.0958 3.28009 33.0531 3.27162 33.0133 3.25513C32.9735 3.23865 32.9373 3.21448 32.9068 3.18401C32.8764 3.15353 32.8522 3.11735 32.8357 3.07753C32.8193 3.03771 32.8108 2.99504 32.8108 2.95194V0.98344C32.8108 0.869991 32.8697 0.764335 32.9665 0.704042C33.0141 0.674776 33.0684 0.65813 33.1242 0.655675C33.1801 0.653221 33.2356 0.665039 33.2856 0.690015L34.3532 1.22379L35.1728 0.130562C35.2964 -0.0347315 35.5739 -0.0347315 35.6975 0.130562L36.5177 1.22379L37.5853 0.690015C37.6353 0.664917 37.6908 0.653029 37.7467 0.655484C37.8025 0.65794 37.8568 0.674657 37.9044 0.704042C37.952 0.733555 37.9912 0.774694 38.0184 0.823578C38.0457 0.872462 38.06 0.927479 38.0601 0.98344V2.95194C38.0601 2.99503 38.0517 3.03771 38.0352 3.07753C38.0188 3.11734 37.9946 3.15353 37.9641 3.184C37.9337 3.21448 37.8975 3.23865 37.8577 3.25513C37.8179 3.27162 37.7752 3.28009 37.7321 3.28007ZM33.467 2.6239H37.4039V1.51402L36.5664 1.93312C36.4976 1.96736 36.419 1.97643 36.3442 1.95876C36.2694 1.9411 36.2032 1.89781 36.157 1.8364L35.4354 0.873929L34.7133 1.8364C34.6185 1.96388 34.4467 2.00301 34.3045 1.93312L33.467 1.51402V2.6239ZM22.6403 20.3404C22.5754 20.3404 22.5119 20.3212 22.458 20.2851C22.404 20.2491 22.3619 20.1978 22.3371 20.1379C22.3123 20.0779 22.3058 20.0119 22.3185 19.9483C22.3312 19.8846 22.3625 19.8262 22.4084 19.7803L27.0015 15.1872C27.0634 15.1278 27.1462 15.0952 27.232 15.0961C27.3177 15.0971 27.3997 15.1316 27.4604 15.1922C27.521 15.2529 27.5555 15.3349 27.5564 15.4207C27.5574 15.5064 27.5247 15.5892 27.4654 15.6511L22.8723 20.2443C22.8418 20.2748 22.8057 20.299 22.7658 20.3155C22.726 20.3319 22.6834 20.3404 22.6403 20.3404Z" fill="#151F2D"/>
<path d="M20.6717 16.4033C20.5875 16.4032 20.5067 16.3708 20.4458 16.3128C20.3849 16.2548 20.3486 16.1756 20.3445 16.0916C20.3403 16.0075 20.3686 15.9252 20.4234 15.8614C20.4783 15.7977 20.5556 15.7574 20.6393 15.749L27.2009 15.0928C27.3862 15.0755 27.5418 15.2063 27.5597 15.3864C27.5684 15.4728 27.5423 15.5592 27.4873 15.6265C27.4323 15.6938 27.3528 15.7365 27.2663 15.7452L20.7046 16.4013C20.6934 16.4026 20.6825 16.4033 20.6717 16.4033ZM2.29969 29.5262C2.24008 29.5263 2.18159 29.5101 2.1305 29.4794C2.07941 29.4486 2.03765 29.4046 2.00971 29.3519C1.98945 29.3139 1.97689 29.2723 1.97276 29.2294C1.96862 29.1865 1.97299 29.1432 1.98561 29.102C1.99823 29.0609 2.01885 29.0226 2.0463 28.9894C2.07375 28.9562 2.10748 28.9287 2.14556 28.9086L23.1428 17.754C23.3017 17.6675 23.501 17.7303 23.5862 17.8899C23.6065 17.9279 23.6191 17.9695 23.6232 18.0124C23.6273 18.0553 23.623 18.0986 23.6103 18.1398C23.5977 18.1809 23.5771 18.2192 23.5496 18.2524C23.5222 18.2856 23.4885 18.3131 23.4504 18.3332L2.45318 29.4879C2.40598 29.5132 2.35324 29.5263 2.29969 29.5262ZM0.987359 26.9016C0.924307 26.9017 0.862554 26.8837 0.809525 26.8495C0.756496 26.8154 0.714448 26.7667 0.688437 26.7093C0.670576 26.6701 0.660617 26.6277 0.659131 26.5847C0.657644 26.5416 0.664659 26.4987 0.679774 26.4583C0.694889 26.418 0.717807 26.381 0.74722 26.3495C0.776632 26.3181 0.811961 26.2927 0.851187 26.2749L22.5046 16.4327C22.6705 16.3584 22.8648 16.4309 22.939 16.5955C22.975 16.6747 22.9781 16.7649 22.9476 16.8464C22.9171 16.9278 22.8555 16.9939 22.7763 17.0299L1.12287 26.8721C1.08029 26.8914 1.0341 26.9014 0.987359 26.9016Z" fill="#151F2D"/>
<path d="M2.29937 29.5262C2.26408 29.5263 2.22901 29.5207 2.19552 29.5096C2.11304 29.4819 2.04489 29.4226 2.00604 29.3448C1.96718 29.267 1.96077 29.1769 1.98823 29.0943L2.64439 27.1258C2.65799 27.0849 2.67951 27.0471 2.70773 27.0146C2.73594 26.982 2.7703 26.9553 2.80883 26.936C2.84736 26.9168 2.88932 26.9053 2.93229 26.9022C2.97527 26.8991 3.01843 26.9046 3.05931 26.9182C3.14179 26.9459 3.20993 27.0051 3.24879 27.083C3.28765 27.1608 3.29405 27.2509 3.2666 27.3334L2.61043 29.3019C2.58867 29.3672 2.54692 29.424 2.49109 29.4642C2.43527 29.5045 2.3682 29.5262 2.29937 29.5262Z" fill="#151F2D"/>
<path d="M2.95559 27.5577C2.9203 27.5578 2.88523 27.5522 2.85174 27.541L0.883232 26.8849C0.800738 26.8572 0.732588 26.798 0.69374 26.7201C0.654891 26.6423 0.648519 26.5522 0.676021 26.4696C0.689442 26.4286 0.710859 26.3907 0.739034 26.358C0.767209 26.3253 0.801582 26.2986 0.840166 26.2793C0.87875 26.2599 0.92078 26.2485 0.963823 26.2455C1.00687 26.2426 1.05007 26.2482 1.09093 26.262L3.05944 26.9182C3.14192 26.9458 3.21006 27.0051 3.24892 27.0829C3.28778 27.1608 3.29419 27.2509 3.26673 27.3334C3.24491 27.3987 3.20314 27.4555 3.14731 27.4957C3.09148 27.5359 3.02441 27.5576 2.95559 27.5577ZM6.23643 41.9934C6.05506 41.9934 5.9083 41.8466 5.9083 41.6653V39.0406C5.90828 38.9975 5.91675 38.9548 5.93324 38.915C5.94972 38.8752 5.97389 38.839 6.00436 38.8085C6.03484 38.7781 6.07102 38.7539 6.11084 38.7374C6.15066 38.721 6.19334 38.7125 6.23643 38.7125C6.27951 38.7125 6.32218 38.721 6.36199 38.7375C6.4018 38.7539 6.43797 38.7781 6.46844 38.8086C6.4989 38.839 6.52307 38.8752 6.53954 38.915C6.55602 38.9548 6.56449 38.9975 6.56447 39.0406V41.6653C6.56447 41.8466 6.41772 41.9934 6.23643 41.9934ZM12.1419 38.0564C12.0988 38.0564 12.0561 38.0479 12.0163 38.0314C11.9765 38.015 11.9403 37.9908 11.9098 37.9603C11.8794 37.9299 11.8552 37.8937 11.8387 37.8539C11.8223 37.8141 11.8138 37.7714 11.8138 37.7283V33.7926C11.8138 33.7495 11.8223 33.7068 11.8387 33.667C11.8552 33.6272 11.8794 33.591 11.9098 33.5605C11.9403 33.5301 11.9765 33.5059 12.0163 33.4894C12.0561 33.473 12.0988 33.4645 12.1419 33.4645C12.3232 33.4645 12.47 33.6112 12.47 33.7926V37.7283C12.47 37.7714 12.4615 37.8141 12.445 37.8539C12.4286 37.8937 12.4044 37.9299 12.3739 37.9604C12.3434 37.9908 12.3073 38.015 12.2674 38.0315C12.2276 38.0479 12.185 38.0564 12.1419 38.0564Z" fill="#151F2D"/>
<path d="M20.0158 32.151C19.9727 32.151 19.93 32.1425 19.8902 32.1261C19.8504 32.1096 19.8142 32.0854 19.7837 32.0549C19.7533 32.0245 19.7291 31.9883 19.7126 31.9485C19.6962 31.9086 19.6877 31.866 19.6877 31.8229V25.9181C19.6877 25.7367 19.8345 25.59 20.0158 25.59C20.1972 25.59 20.3439 25.7367 20.3439 25.9181V31.8229C20.3439 32.0042 20.1972 32.151 20.0158 32.151Z" fill="#151F2D"/>
<path d="M25.2651 41.9934C25.0838 41.9934 24.937 41.8466 24.937 41.6653V34.4475C24.937 34.2661 25.0838 34.1194 25.2651 34.1194C25.3082 34.1194 25.3509 34.1278 25.3907 34.1443C25.4305 34.1608 25.4667 34.185 25.4972 34.2154C25.5276 34.2459 25.5518 34.2821 25.5683 34.3219C25.5847 34.3617 25.5932 34.4044 25.5932 34.4475V41.6653C25.5932 41.8466 25.4464 41.9934 25.2651 41.9934Z" fill="#151F2D"/>
<path d="M33.1391 41.9935C33.096 41.9935 33.0533 41.985 33.0135 41.9685C32.9737 41.9521 32.9375 41.9279 32.907 41.8974C32.8766 41.8669 32.8524 41.8308 32.8359 41.7909C32.8195 41.7511 32.811 41.7084 32.811 41.6654V29.8545C32.811 29.6731 32.9577 29.5264 33.1391 29.5264C33.3205 29.5264 33.4672 29.6731 33.4672 29.8545V41.6654C33.4672 41.8467 33.3205 41.9935 33.1391 41.9935Z" fill="#151F2D"/>
<path d="M38.3916 27.5577C38.2102 27.5577 38.0635 27.411 38.0635 27.2297V18.6998C38.0635 18.5185 38.2102 18.3717 38.3916 18.3717C38.4347 18.3717 38.4774 18.3802 38.5172 18.3966C38.557 18.4131 38.5932 18.4373 38.6236 18.4678C38.6541 18.4982 38.6783 18.5344 38.6947 18.5742C38.7112 18.6141 38.7197 18.6567 38.7196 18.6998V27.2297C38.7197 27.2728 38.7112 27.3154 38.6947 27.3552C38.6782 27.3951 38.6541 27.4312 38.6236 27.4617C38.5931 27.4922 38.557 27.5163 38.5172 27.5328C38.4774 27.5493 38.4347 27.5577 38.3916 27.5577Z" fill="black"/>
</g>
<defs>
<clipPath id="clip0_118_512">
<rect width="42" height="42" fill="white"/>
</clipPath>
</defs>
</svg>
