<svg width="42" height="42" viewBox="0 0 42 42" fill="none" xmlns="http://www.w3.org/2000/svg">
<g clip-path="url(#clip0_118_533)">
<path d="M40.2857 0H1.71429C0.769029 0 0 0.769029 0 1.71429V40.2857C0 41.231 0.769029 42 1.71429 42H40.2857C41.231 42 42 41.231 42 40.2857V1.71429C42 0.769029 41.231 0 40.2857 0ZM40.2857 40.2857H1.71429V7.71429H40.2857V40.2857ZM40.2857 6H1.71429V1.71429H40.2857V6Z" fill="black"/>
<path d="M6.42847 3H3.42847V4.71429H6.42847V3Z" fill="black"/>
<path d="M10.7144 3H7.71436V4.71429H10.7144V3Z" fill="black"/>
<path d="M38.5715 3H35.5715V4.71429H38.5715V3Z" fill="black"/>
<path d="M10.2858 25.7144H11.7594C11.8454 25.9487 11.9385 26.1757 12.0383 26.395L10.9997 27.4397C10.6762 27.7632 10.498 28.1931 10.498 28.6501C10.498 29.1072 10.6762 29.537 10.9997 29.8605L13.4254 32.2861C13.7489 32.6097 14.1788 32.7879 14.6358 32.7879C15.0928 32.7879 15.5227 32.6097 15.8445 32.2879L16.891 31.2475C17.1101 31.3473 17.3373 31.4404 17.5715 31.5264V33C17.5715 33.9453 18.3406 34.7143 19.2858 34.7143H22.7144C23.6596 34.7143 24.4287 33.9453 24.4288 33V31.5264C24.663 31.4404 24.8901 31.3473 25.1093 31.2474L26.154 32.286C26.4776 32.6096 26.9074 32.7878 27.3645 32.7878C27.8215 32.7878 28.2514 32.6095 28.5748 32.286L31.0005 29.8604C31.324 29.5368 31.5022 29.107 31.5022 28.6499C31.5022 28.1929 31.324 27.7631 31.0023 27.4413L29.9619 26.3948C30.0616 26.1756 30.1547 25.9485 30.2407 25.7142H31.7144C32.6596 25.7142 33.4287 24.9452 33.4287 23.9999V20.5714C33.4287 19.6261 32.6596 18.8571 31.7144 18.8571H30.2407C30.1547 18.6228 30.0616 18.3958 29.9618 18.1765L31.0004 17.1318C31.324 16.8083 31.5022 16.3784 31.5022 15.9214C31.5022 15.4643 31.3239 15.0345 31.0004 14.711L28.5748 12.2854C28.2512 11.9618 27.8213 11.7836 27.3643 11.7836C26.9073 11.7836 26.4774 11.9618 26.1556 12.2836L25.1092 13.324C24.89 13.2242 24.6628 13.1311 24.4286 13.0451V11.5715C24.4286 10.6262 23.6596 9.85718 22.7143 9.85718H19.2857C18.3405 9.85718 17.5714 10.6262 17.5714 11.5715V13.0451C17.3372 13.1311 17.1101 13.2242 16.8909 13.3241L15.8462 12.2855C15.5226 11.9619 15.0928 11.7837 14.6357 11.7837C14.1787 11.7837 13.7488 11.962 13.4254 12.2855L10.9997 14.7111C10.6762 15.0347 10.498 15.4645 10.498 15.9215C10.498 16.3786 10.6762 16.8084 10.9979 17.1302L12.0383 18.1767C11.9386 18.3959 11.8455 18.623 11.7595 18.8573H10.2858C9.34056 18.8573 8.57153 19.6263 8.57153 20.5716V24.0001C8.57153 24.9454 9.34056 25.7144 10.2858 25.7144ZM10.2858 20.5714H12.3774C12.7559 20.5714 13.0896 20.3231 13.1984 19.9605C13.3675 19.3969 13.5806 18.8788 13.8318 18.4206C14.0146 18.0874 13.956 17.6737 13.6881 17.4041L12.2121 15.9233L14.6358 13.4993L16.1187 14.9735C16.3882 15.2415 16.8018 15.2999 17.1351 15.1173C17.5933 14.8661 18.1114 14.653 18.675 14.4839C19.0377 14.3752 19.2859 14.0414 19.2859 13.6629V11.5715H22.7145V13.6631C22.7145 14.0416 22.9628 14.3753 23.3254 14.484C23.8889 14.6531 24.4071 14.8662 24.8653 15.1175C25.1985 15.3002 25.612 15.2417 25.8817 14.9737L27.3626 13.4977L29.7865 15.9215L28.3123 17.4043C28.0444 17.6738 27.9858 18.0875 28.1686 18.4207C28.4198 18.879 28.6329 19.3971 28.802 19.9607C28.9107 20.3233 29.2444 20.5716 29.623 20.5716H31.7144V24.0001H29.623C29.2444 24.0001 28.9108 24.2484 28.802 24.611C28.6329 25.1746 28.4198 25.6927 28.1686 26.1509C27.9858 26.4841 28.0444 26.8978 28.3123 27.1673L29.7883 28.6482L27.3646 31.0721L25.8817 29.5979C25.612 29.33 25.1985 29.2715 24.8653 29.4542C24.4071 29.7054 23.8889 29.9185 23.3254 30.0876C22.9627 30.1963 22.7145 30.5301 22.7145 30.9086V33H19.2859V30.9085C19.2859 30.53 19.0376 30.1963 18.675 30.0875C18.1114 29.9184 17.5933 29.7054 17.1351 29.4541C17.0056 29.3832 16.8639 29.3486 16.7232 29.3486C16.502 29.3486 16.2834 29.4341 16.1185 29.5978L14.6376 31.0738L12.2137 28.65L13.6879 27.1672C13.9558 26.8977 14.0144 26.484 13.8316 26.1508C13.5804 25.6926 13.3673 25.1744 13.1982 24.6108C13.0895 24.2482 12.7558 23.9999 12.3772 23.9999H10.2858V20.5714Z" fill="black"/>
<path d="M21.0001 26.5714C23.3632 26.5714 25.2858 24.6489 25.2858 22.2857C25.2858 19.9226 23.3632 18 21.0001 18C18.6369 18 16.7144 19.9226 16.7144 22.2857C16.7144 24.6489 18.6369 26.5714 21.0001 26.5714ZM21.0001 19.7143C22.418 19.7143 23.5715 20.8678 23.5715 22.2857C23.5715 23.7036 22.418 24.8571 21.0001 24.8571C19.5822 24.8571 18.4286 23.7036 18.4286 22.2857C18.4286 20.8678 19.5822 19.7143 21.0001 19.7143Z" fill="black"/>
<path d="M34.2858 12.8572H32.5715V14.5715H34.2858V12.8572Z" fill="black"/>
<path d="M36.8571 12.8572H35.1428V14.5715H36.8571V12.8572Z" fill="black"/>
<path d="M39.4286 12.8572H37.7144V14.5715H39.4286V12.8572Z" fill="black"/>
<path d="M4.28582 30H2.57153V31.7143H4.28582V30Z" fill="black"/>
<path d="M6.85711 30H5.14282V31.7143H6.85711V30Z" fill="black"/>
<path d="M9.42864 30H7.71436V31.7143H9.42864V30Z" fill="black"/>
<path d="M36.4287 36.8572H5.57153V38.5715H36.4287V36.8572Z" fill="black"/>
</g>
<defs>
<clipPath id="clip0_118_533">
<rect width="42" height="42" fill="white"/>
</clipPath>
</defs>
</svg>
