<svg width="42" height="42" viewBox="0 0 42 42" fill="none" xmlns="http://www.w3.org/2000/svg">
<path d="M39.2517 16.9523C40.3004 16.4942 40.3004 15.0058 39.2517 14.5478L22.5777 7.2529C22.075 7.0324 21.5382 6.92346 21.0001 6.92346C20.4619 6.92346 19.9251 7.03371 19.4224 7.25421L2.74843 14.5478C1.69974 15.0071 1.69974 16.4942 2.74843 16.9523L10.5001 20.3438V24.7013C10.5001 26.1923 11.3427 27.556 12.6762 28.2227C15.2972 29.5326 18.148 30.1875 21.0001 30.1875C23.8521 30.1875 26.7029 29.5326 29.3226 28.2227C30.6574 27.556 31.5001 26.1923 31.5001 24.7013V20.3438L36.7501 18.0469V27.5625C36.0256 27.5625 35.4376 28.1505 35.4376 28.875V32.8125C35.4376 33.537 36.0256 34.125 36.7501 34.125H38.0626C38.7871 34.125 39.3751 33.537 39.3751 32.8125V28.875C39.3751 28.1505 38.7871 27.5625 38.0626 27.5625V17.472L39.2517 16.9523ZM30.1876 24.7013C30.1876 25.7014 29.6311 26.6018 28.7359 27.0493C26.3472 28.2437 23.671 28.875 21.0001 28.875C18.3291 28.875 15.6529 28.2437 13.2642 27.0493C12.3691 26.6018 11.8126 25.7014 11.8126 24.7013V20.9186L19.4224 24.2472C19.9251 24.4677 20.4632 24.5779 21.0001 24.5779C21.5382 24.5779 22.075 24.4677 22.5777 24.2472L30.1876 20.9173V24.7013ZM22.0527 23.0449C21.7193 23.1906 21.3649 23.2654 21.0001 23.2654C20.6352 23.2654 20.2821 23.1919 19.9474 23.0449L3.27474 15.75L19.9474 8.45515C20.2821 8.30946 20.6352 8.23596 21.0001 8.23596C21.3649 8.23596 21.718 8.30946 22.0527 8.45646L38.7254 15.75L37.258 16.3918L22.1734 15.1856C21.9608 14.746 21.5198 14.4375 21.0001 14.4375C20.2756 14.4375 19.6876 15.0255 19.6876 15.75C19.6876 16.4745 20.2756 17.0625 21.0001 17.0625C21.4424 17.0625 21.8151 16.8289 22.0527 16.4929L34.7131 17.5061L22.0527 23.0449Z" fill="#0B1719"/>
</svg>
