<svg width="67" height="67" viewBox="0 0 67 67" fill="none" xmlns="http://www.w3.org/2000/svg">
<g clip-path="url(#clip0_325_1058)">
<path d="M57.1939 57.1918C70.2773 44.1084 70.2773 22.896 57.1939 9.81258C44.1104 -3.27084 22.898 -3.27084 9.81462 9.81258C-3.2688 22.896 -3.2688 44.1084 9.81462 57.1918C22.898 70.2752 44.1104 70.2752 57.1939 57.1918Z" fill="#F4DDD4"/>
<mask id="mask0_325_1058" style="mask-type:luminance" maskUnits="userSpaceOnUse" x="0" y="0" width="68" height="68">
<path d="M57.1939 57.1918C70.2773 44.1084 70.2773 22.896 57.1939 9.81258C44.1104 -3.27084 22.898 -3.27084 9.81462 9.81258C-3.2688 22.896 -3.2688 44.1084 9.81462 57.1918C22.898 70.2752 44.1104 70.2752 57.1939 57.1918Z" fill="white"/>
</mask>
<g mask="url(#mask0_325_1058)">
<path d="M22.2387 14.4342C22.4483 13.9363 19.5134 14.8622 19.2601 14.9801C17.8058 15.6701 16.6834 16.6921 16.0588 18.2032C15.4518 19.6619 15.3469 21.2822 15.3819 22.8632C15.4954 27.7285 19.1684 33.8646 15.6832 38.2014C13.8839 40.4419 10.7306 40.9966 8.35477 42.6081C3.82579 45.674 2.90864 52.5003 5.53344 57.3044C8.15824 62.1041 13.5214 64.9385 18.9326 65.7421C24.3438 66.5457 29.8554 65.5849 35.1923 64.3752C38.9002 63.5366 42.6911 62.5234 45.7133 60.213C52.8322 54.7669 49.513 47.9494 46.2462 41.5731C44.1542 37.4852 47.9058 35.5635 49.5479 30.4886C52.4959 21.3608 48.2726 12.5038 40.2061 9.0055C26.986 3.27549 22.2649 14.3686 22.2387 14.4298V14.4342Z" fill="#D76A40"/>
<path d="M59.5931 67H7.40723C7.40723 67 9.83986 57.6057 13.3032 52.0417C16.7665 46.4733 29.4756 44.5778 29.4756 44.5778L33.5023 45.2504L37.5291 44.5778C37.5291 44.5778 50.2425 46.4733 53.7058 52.0417C57.1692 57.6057 59.5974 67 59.5974 67H59.5931Z" fill="#5B4850"/>
<path d="M21.876 46.4384C27.9859 55.1731 39.5464 54.0594 45.1323 46.4384C45.1323 46.4384 33.9299 41.2237 21.876 46.4384Z" fill="#F1B69A"/>
<path d="M33.4017 49.5523C31.218 49.5523 29.4492 47.7835 29.4492 45.5998V38.0486H37.3542V45.5998C37.3542 47.7835 35.5854 49.5523 33.4017 49.5523Z" fill="#F1B69A"/>
<path d="M37.3591 37.1708V41.8089C37.3591 41.8089 36.0314 44.1193 33.4066 44.1193C31.2971 44.1193 29.4541 42.119 29.4541 42.119V37.1751H37.3591V37.1708Z" fill="#150A08"/>
<path d="M22.3439 29.0518C20.2082 25.8025 17.7275 27.8901 17.7275 30.1786C17.7275 33.4891 21.3175 36.341 23.3702 33.9651C25.4229 31.5893 22.3439 29.0518 22.3439 29.0518Z" fill="#F1B69A"/>
<path d="M21.8766 30.5542C20.5446 28.0692 18.7059 30.3882 19.4091 31.3098" stroke="#E07E61" stroke-miterlimit="10" stroke-linecap="round"/>
<path d="M43.7007 29.0518C45.8363 25.8025 48.317 27.8901 48.317 30.1786C48.317 33.4891 44.727 36.341 42.6744 33.9651C40.6217 31.5893 43.7007 29.0518 43.7007 29.0518Z" fill="#F1B69A"/>
<path d="M44.168 30.5542C45.5 28.0692 47.3387 30.3882 46.6355 31.3098" stroke="#E07E61" stroke-miterlimit="10" stroke-linecap="round"/>
<path d="M33.009 41.8089C24.5625 41.8089 19.5662 32.5763 21.5402 23.0947C23.1693 15.2858 42.8705 15.2858 44.4952 23.0947C46.4692 32.5719 41.4599 41.8133 33.009 41.8089Z" fill="#F1B69A"/>
<g style="mix-blend-mode:multiply" opacity="0.5">
<path d="M31.8867 32.3186C32.7558 32.7335 34.7168 31.812 34.7561 32.3186C34.7954 32.8252 33.7167 33.2707 33.3236 33.2707C32.9305 33.2707 31.8911 32.3186 31.8911 32.3186H31.8867Z" fill="#F1B69A"/>
</g>
<path d="M31.9176 29.7724C30.686 32.4365 32.5291 32.9562 33.0226 33.0174" stroke="#E07E61" stroke-miterlimit="10" stroke-linecap="round"/>
<path d="M29.6812 22.5094C29.1527 21.3303 26.0606 21.8674 25.6239 22.7103C25.1872 23.5489 26.6328 23.7847 27.7071 23.7323C28.7815 23.6799 30.0175 23.2606 29.6812 22.5094Z" fill="#D76A40"/>
<path d="M36.3629 22.5094C36.8914 21.3303 39.9835 21.8674 40.4202 22.7103C40.857 23.5489 39.4114 23.7847 38.337 23.7323C37.2626 23.6799 36.0266 23.2606 36.3629 22.5094Z" fill="#150A08"/>
<path d="M27.4453 27.0515C27.4453 27.5188 27.8253 27.9032 28.297 27.9032C28.7686 27.9032 29.1486 27.5232 29.1486 27.0515C29.1486 26.5799 28.7686 26.1999 28.297 26.1999C27.8253 26.1999 27.4453 26.5799 27.4453 27.0515Z" fill="#150A08"/>
<path d="M38.5949 27.0515C38.5949 27.5188 38.2149 27.9032 37.7432 27.9032C37.2716 27.9032 36.8916 27.5232 36.8916 27.0515C36.8916 26.5799 37.2716 26.1999 37.7432 26.1999C38.2149 26.1999 38.5949 26.5799 38.5949 27.0515Z" fill="#150A08"/>
<path d="M29.8604 34.4237C33.0922 34.7731 35.2541 34.415 36.7914 34.4674C36.7914 34.4674 34.8566 37.2014 32.5769 36.6598C30.2971 36.1183 29.8604 34.4237 29.8604 34.4237Z" fill="white"/>
<g style="mix-blend-mode:multiply" opacity="0.5">
<path d="M32.0917 37.4547C33.2752 37.4547 34.9698 36.8432 35.2318 37.4547C35.4938 38.0661 34.0526 39.289 33.1529 39.2016C32.2576 39.1143 30.7378 37.4503 32.0873 37.4547H32.0917Z" fill="#F1B69A"/>
</g>
<path d="M27.4444 14.7661C27.4269 22.7234 42.5468 26.5493 45.4773 24.6669C48.4078 22.7846 46.1236 16.0326 38.4021 14.2027C30.6806 12.3728 27.4487 12.3946 27.4444 14.7661Z" fill="#D76A40"/>
<path d="M27.4752 14.7093C29.4013 18.5526 24.108 27.0428 21.0989 26.4794C18.0897 25.916 18.0897 22.5924 20.4394 18.6487C22.789 14.7049 26.5625 12.8837 27.4752 14.7049V14.7093Z" fill="#D76A40"/>
</g>
</g>
<defs>
<clipPath id="clip0_325_1058">
<rect width="67" height="67" fill="white"/>
</clipPath>
</defs>
</svg>
