<svg width="67" height="67" viewBox="0 0 67 67" fill="none" xmlns="http://www.w3.org/2000/svg">
<g clip-path="url(#clip0_325_1092)">
<path d="M66.5479 37.5936C69.5826 19.9964 57.2464 3.35917 38.9942 0.433348C20.7421 -2.49247 3.48563 9.40103 0.450904 26.9982C-2.58382 44.5954 9.75237 61.2326 28.0045 64.1584C46.2567 67.0843 63.5132 55.1908 66.5479 37.5936Z" fill="#F4DDD4"/>
<path d="M66.5479 37.5936C69.5826 19.9964 57.2464 3.35917 38.9942 0.433348C20.7421 -2.49247 3.48563 9.40103 0.450904 26.9982C-2.58382 44.5954 9.75237 61.2326 28.0045 64.1584C46.2567 67.0843 63.5132 55.1908 66.5479 37.5936Z" fill="#F4E6E1"/>
<mask id="mask0_325_1092" style="mask-type:luminance" maskUnits="userSpaceOnUse" x="-1" y="-1" width="69" height="66">
<path d="M66.5479 37.5936C69.5826 19.9964 57.2464 3.35917 38.9942 0.433348C20.7421 -2.49247 3.48563 9.40103 0.450904 26.9982C-2.58382 44.5954 9.75237 61.2326 28.0045 64.1584C46.2567 67.0843 63.5132 55.1908 66.5479 37.5936Z" fill="white"/>
</mask>
<g mask="url(#mask0_325_1092)">
<path d="M46.7874 26.9019C50.3468 20.6912 48.958 10.1392 41.1841 7.52021C33.1132 4.80013 26.1647 7.10336 25.5401 11.2761C25.5401 11.2761 21.2688 10.3119 18.4388 14.7162C15.6087 19.1206 17.6439 26.5313 21.8715 31.0073C26.0991 35.4874 43.8919 31.9505 46.7831 26.8977L46.7874 26.9019Z" fill="#5B4852"/>
<path d="M62.6807 65.2694H4.31934C4.31934 65.2694 6.08812 55.8333 10.1017 50.4016C14.111 44.9656 28.9994 42.9824 28.9994 42.9824L33.5022 43.6519L38.0049 42.9824C38.0049 42.9824 52.8977 44.9656 56.907 50.4016C60.9162 55.8333 62.685 65.2694 62.685 65.2694H62.6807Z" fill="#D66572"/>
<mask id="mask1_325_1092" style="mask-type:luminance" maskUnits="userSpaceOnUse" x="4" y="42" width="59" height="24">
<path d="M62.6807 65.2694H4.31934C4.31934 65.2694 6.08812 55.8333 10.1017 50.4016C14.111 44.9656 28.9994 42.9824 28.9994 42.9824L33.5022 43.6519L38.0049 42.9824C38.0049 42.9824 52.8977 44.9656 56.907 50.4016C60.9162 55.8333 62.685 65.2694 62.685 65.2694H62.6807Z" fill="white"/>
</mask>
<g mask="url(#mask1_325_1092)">
<path d="M4.86537 46.3972H65.5501V51.5006H0.489258V46.3972H4.86537Z" fill="#E28693"/>
<path d="M4.86537 54.1449H65.5501V59.2524H0.489258V54.1449H4.86537Z" fill="#E28693"/>
<path d="M4.86537 61.8925H65.5501V67H0.489258V61.8925H4.86537Z" fill="#E28693"/>
</g>
<path d="M24.7764 43.694C24.7764 43.694 27.4885 50.1911 33.5766 50.1911C39.6648 50.1911 41.9664 43.694 41.9664 43.694C41.9664 43.694 33.7295 40.6329 24.7764 43.694Z" fill="#F1B69A"/>
<path d="M33.4017 47.7741C31.218 47.7741 29.4492 46.0688 29.4492 43.9635V36.6833H37.3542V43.9635C37.3542 46.0688 35.5854 47.7741 33.4017 47.7741Z" fill="#F1B69A"/>
<path d="M37.3591 35.8369V40.3086C37.3591 40.3086 36.0314 42.5361 33.4066 42.5361C31.2971 42.5361 29.4541 40.6076 29.4541 40.6076V35.8411H37.3591V35.8369Z" fill="#150A08"/>
<path d="M22.3439 28.0135C20.2082 24.8808 17.7275 26.8935 17.7275 29.0999C17.7275 32.2915 21.3175 35.0411 23.3702 32.7505C25.4229 30.4599 22.3439 28.0135 22.3439 28.0135Z" fill="#F1B69A"/>
<path d="M21.8766 29.4578C20.5446 27.0619 18.7059 29.2978 19.4091 30.1862" stroke="#E07E61" stroke-miterlimit="10" stroke-linecap="round"/>
<path d="M43.7007 28.0135C45.8363 24.8808 48.317 26.8935 48.317 29.0999C48.317 32.2915 44.727 35.0411 42.6744 32.7505C40.6217 30.4599 43.7007 28.0135 43.7007 28.0135Z" fill="#F1B69A"/>
<path d="M44.168 29.4578C45.5 27.0619 47.3387 29.2978 46.6355 30.1862" stroke="#E07E61" stroke-miterlimit="10" stroke-linecap="round"/>
<path d="M33.009 40.3086C24.5625 40.3086 19.5662 31.4073 21.5402 22.2659C23.1693 14.7373 42.8705 14.7373 44.4952 22.2659C46.4692 31.4031 41.4599 40.3128 33.009 40.3086Z" fill="#F1B69A"/>
<path d="M36.3064 19.1753C39.2718 14.1225 33.2972 10.573 30.6113 12.1056C27.921 13.6383 27.3576 15.3436 27.4493 17.3605C27.4493 17.3605 26.4142 13.832 24.0777 15.4615C21.7411 17.0911 22.5491 21.6175 22.5491 21.6175L24.0777 22.4091L36.3107 19.1753H36.3064Z" fill="#F1B69A"/>
<g style="mix-blend-mode:multiply" opacity="0.5">
<path d="M31.8867 31.1589C32.7558 31.5589 34.7168 30.6704 34.7561 31.1589C34.7954 31.6473 33.7167 32.0768 33.3236 32.0768C32.9305 32.0768 31.8911 31.1589 31.8911 31.1589H31.8867Z" fill="#F1B69A"/>
</g>
<path d="M31.9176 28.704C30.686 31.2725 32.5291 31.7736 33.0226 31.8326" stroke="#E07E61" stroke-miterlimit="10" stroke-linecap="round"/>
<path d="M30.0693 33.2305C33.3318 33.8326 35.9173 33.3316 36.9611 32.5273" stroke="#150A08" stroke-miterlimit="10" stroke-linecap="round"/>
<path d="M29.6812 21.7017C29.1527 20.5649 26.0606 21.0828 25.6239 21.8954C25.1872 22.7039 26.6328 22.9312 27.7071 22.8807C28.7815 22.8302 30.0175 22.426 29.6812 21.7017Z" fill="#5B4852"/>
<path d="M36.3629 21.7017C36.8914 20.5649 39.9835 21.0828 40.4202 21.8954C40.857 22.7039 39.4114 22.9312 38.337 22.8807C37.2626 22.8302 36.0266 22.426 36.3629 21.7017Z" fill="#5B4852"/>
<g style="mix-blend-mode:multiply" opacity="0.5">
<path d="M32.2577 34.78C33.4412 34.78 35.1358 34.1905 35.3978 34.78C35.6599 35.3695 34.2186 36.5485 33.3189 36.4643C32.4236 36.3801 30.9038 34.7758 32.2533 34.78H32.2577Z" fill="#F1B69A"/>
</g>
<path d="M27.4453 26.0808C27.4453 26.5314 27.8253 26.9019 28.297 26.9019C28.7686 26.9019 29.1486 26.5356 29.1486 26.0808C29.1486 25.6261 28.7686 25.2597 28.297 25.2597C27.8253 25.2597 27.4453 25.6261 27.4453 26.0808Z" fill="#150A08"/>
<path d="M38.5949 26.0808C38.5949 26.5314 38.2149 26.9019 37.7432 26.9019C37.2716 26.9019 36.8916 26.5356 36.8916 26.0808C36.8916 25.6261 37.2716 25.2597 37.7432 25.2597C38.2149 25.2597 38.5949 25.6261 38.5949 26.0808Z" fill="#150A08"/>
<path d="M27.4445 17.3605C27.7546 13.213 33.7728 15.9373 37.1095 19.4027C41.0358 23.4786 44.1323 24.2407 46.7876 22.4091C49.443 20.5775 45.9709 12.3035 37.7472 10.4845C29.5234 8.66551 26.309 14.4636 27.4445 17.3605Z" fill="#5B4852"/>
<path d="M27.4444 17.3605C25.8677 14.3499 21.876 19.9795 21.1117 25.2639C20.6531 28.4388 20.0853 24.2744 19.2512 23.4786C18.417 22.6828 18.5436 16.4342 23.2342 15.032C27.9204 13.6341 27.4444 17.3605 27.4444 17.3605Z" fill="#5B4852"/>
</g>
</g>
<defs>
<clipPath id="clip0_325_1092">
<rect width="67" height="67" fill="white"/>
</clipPath>
</defs>
</svg>
