<svg width="67" height="67" viewBox="0 0 67 67" fill="none" xmlns="http://www.w3.org/2000/svg">
<g clip-path="url(#clip0_325_1409)">
<path d="M67 33.4974C67 41.4284 64.2443 48.7183 59.6325 54.4572C57.6162 56.9751 55.2431 59.1879 52.5908 61.0285C51.5929 61.7264 50.5589 62.3675 49.4835 62.9466C44.7373 65.5317 39.288 67 33.5026 67C27.7172 67 22.2678 65.5317 17.5216 62.9466C16.4463 62.3675 15.4122 61.7264 14.4144 61.0336C11.7569 59.1879 9.38383 56.9751 7.37264 54.4572C2.75569 48.7183 0 41.4284 0 33.4974C0 14.9986 14.9986 0 33.5026 0C52.0066 0 67 14.9986 67 33.4974Z" fill="#F4E6E1"/>
<path d="M59.6329 54.4572C57.6166 56.9751 55.2435 59.1879 52.5912 61.0285C51.5934 61.7265 50.5593 62.3676 49.4839 62.9466C44.7377 65.5317 39.2884 67 33.503 67C27.7176 67 22.2683 65.5317 17.5221 62.9466C16.4467 62.3676 15.4126 61.7265 14.4148 61.0337C11.7573 59.1879 9.38424 56.9751 7.37305 54.4572C8.23646 51.4068 10.6354 48.9924 13.7427 48.1341L21.7719 45.9161L24.6724 45.1148L27.1696 44.422L27.4126 43.0519H39.5934L39.8364 44.422L42.3336 45.1148L45.2341 45.9161L53.2633 48.1341C56.3706 48.9924 58.7695 51.4068 59.6329 54.4572Z" fill="#1DACAC"/>
<path d="M39.5936 43.0519H27.4179L27.1749 44.422L24.6777 45.1148C26.1254 53.2578 31.9625 56.7269 32.2106 56.8769L33.5135 57.6265L34.8112 56.8717C35.0594 56.7269 40.9017 53.2371 42.339 45.1148L39.8418 44.422L39.5988 43.0519H39.5936Z" fill="#007289"/>
<path d="M39.8368 44.4219C39.8058 44.6184 39.7696 44.8097 39.7334 44.9958C38.3943 51.7222 33.5964 54.5813 33.5034 54.6382C33.4051 54.5813 28.3384 51.5619 27.1699 44.4219L27.7903 40.9476L28.8295 35.1157L33.5034 36.9459L38.1772 35.1157L39.8368 44.4219Z" fill="#F69779"/>
<path d="M39.8365 44.4219C39.8055 44.6184 39.7693 44.8097 39.7331 44.9958C37.7581 45.8282 36.1192 45.8282 36.1192 45.8282C36.1192 45.8282 30.7784 45.8282 27.79 40.9476L28.8292 35.1157L33.5031 36.9459L38.1769 35.1157L39.8365 44.4219Z" fill="#F37A67"/>
<path d="M46.8629 14.2231C45.1412 10.7229 33.498 10.6091 33.498 10.6091C33.498 10.6091 21.8548 10.7229 20.1332 14.2231C16.8088 22.5418 24.078 31.693 24.078 31.693L33.498 34.1178L42.918 31.693C42.918 31.693 50.1873 22.5418 46.8629 14.2231Z" fill="#151F2D"/>
<path d="M28.9684 17.3717C28.9684 17.3717 20.0292 16.5807 20.5152 12.7496C20.6393 11.5346 22.9504 11.5346 22.9504 11.5346C22.9504 11.5346 21.1873 10.9245 21.7354 9.70955C22.2834 8.49456 24.6772 8.73756 24.6772 8.73756C24.6772 8.73756 22.5264 7.46053 23.4984 6.30759C24.4704 5.15464 30.9176 6.30759 30.9176 6.30759C30.9176 6.30759 40.2807 5.3356 45.0889 10.3196C47.7671 12.6927 44.4789 19.3209 44.4789 19.3209L28.9736 17.3769L28.9684 17.3717Z" fill="#151F2D"/>
<path d="M46.1337 25.008C46.0716 24.5944 45.9165 24.1757 45.6011 23.9016C45.3168 23.6535 44.929 23.5552 44.5516 23.5707C44.1742 23.5863 43.8123 23.7103 43.471 23.8758C43.471 23.8758 43.44 14.342 40.0587 14.2335C37.8407 14.1249 36.8584 14.7867 33.503 14.7867C30.1476 14.7867 29.1601 14.1197 26.9472 14.2335C23.566 14.342 23.5349 23.8758 23.5349 23.8758C23.1937 23.7103 22.8318 23.5863 22.4544 23.5707C22.077 23.5552 21.6892 23.6586 21.4048 23.9016C21.0895 24.1757 20.9395 24.5944 20.8723 25.008C20.7482 25.8353 20.9447 26.709 21.4152 27.4018C21.8857 28.0946 22.5836 28.6168 23.4005 28.8029C24.843 38.8847 33.503 38.8847 33.503 38.8847C33.503 38.8847 42.1682 38.8847 43.6055 28.8029C44.4223 28.6168 45.1152 28.0946 45.5908 27.4018C46.0665 26.709 46.2578 25.8353 46.1337 25.008Z" fill="#F69779"/>
<path d="M30.8867 37.525V39.4017C30.8867 39.7326 31.4037 39.7326 31.4037 39.4017V37.525C31.4037 37.1941 30.8867 37.1941 30.8867 37.525Z" fill="#E44424"/>
<path d="M32.0238 37.8145C32.0548 38.4401 32.0858 39.0657 32.122 39.6913C32.1375 40.0222 32.6545 40.0222 32.639 39.6913C32.608 39.0657 32.577 38.4401 32.5408 37.8145C32.5253 37.4836 32.0083 37.4836 32.0238 37.8145Z" fill="#E44424"/>
<path d="M35.6016 37.525V39.4017C35.6016 39.7326 36.1186 39.7326 36.1186 39.4017V37.525C36.1186 37.1941 35.6016 37.1941 35.6016 37.525Z" fill="#E44424"/>
<path d="M34.4648 37.8145C34.4338 38.4401 34.4027 39.0657 34.3666 39.6913C34.351 40.0222 34.8681 40.0222 34.8836 39.6913C34.9146 39.0657 34.9456 38.4401 34.9818 37.8145C34.9973 37.4836 34.4803 37.4836 34.4648 37.8145Z" fill="#E44424"/>
<path d="M33.2441 38.0058V39.9808C33.2441 40.3117 33.7612 40.3117 33.7612 39.9808V38.0058C33.7612 37.6749 33.2441 37.6749 33.2441 38.0058Z" fill="#E44424"/>
<path d="M52.5916 61.0285C51.5938 61.7264 50.5598 62.3675 49.4844 62.9466L51.4904 52.0117L52.5916 61.0285Z" fill="#007289"/>
<path d="M17.5223 62.9466C16.4469 62.3675 15.4129 61.7264 14.415 61.0336L15.5163 52.0117L17.5223 62.9466Z" fill="#007289"/>
<path d="M33.0166 23.8033V29.718H34.0196C35.7361 29.718 33.3372 24.4806 33.0166 23.8033Z" fill="#F37A67"/>
<path d="M40.3064 21.4975C38.9208 20.815 37.3801 20.7116 35.9376 21.2855C35.3275 21.5285 35.5912 22.5315 36.2116 22.2833C37.3956 21.8129 38.6364 21.8232 39.7842 22.3919C40.3788 22.6866 40.9061 21.7922 40.3064 21.4975Z" fill="#E44424"/>
<path d="M38.0836 24.7805C38.6233 24.7805 39.0608 24.3431 39.0608 23.8034C39.0608 23.2637 38.6233 22.8262 38.0836 22.8262C37.5439 22.8262 37.1064 23.2637 37.1064 23.8034C37.1064 24.3431 37.5439 24.7805 38.0836 24.7805Z" fill="#051733"/>
<path d="M26.699 21.4975C28.0846 20.815 29.6253 20.7116 31.0677 21.2855C31.6778 21.5285 31.4141 22.5315 30.7937 22.2833C29.6098 21.8129 28.3689 21.8232 27.2212 22.3919C26.6266 22.6866 26.0992 21.7922 26.699 21.4975Z" fill="#E44424"/>
<path d="M28.9225 24.7805C29.4621 24.7805 29.8996 24.3431 29.8996 23.8034C29.8996 23.2637 29.4621 22.8262 28.9225 22.8262C28.3828 22.8262 27.9453 23.2637 27.9453 23.8034C27.9453 24.3431 28.3828 24.7805 28.9225 24.7805Z" fill="#051733"/>
<path d="M30.0693 33.2305C33.3318 33.8326 35.9173 33.3316 36.9611 32.5273" stroke="#150A08" stroke-miterlimit="10" stroke-linecap="round"/>
</g>
<defs>
<clipPath id="clip0_325_1409">
<rect width="67" height="67" fill="white"/>
</clipPath>
</defs>
</svg>
