<svg width="90" height="16" viewBox="0 0 90 16" fill="none" xmlns="http://www.w3.org/2000/svg">
<g id="638e4c748ec38ddf20645f2a_5-stars-startux-webflow-ecommerce-template 1" clip-path="url(#clip0_4_42)">
<g id="Clip path group">
<mask id="mask0_4_42" style="mask-type:luminance" maskUnits="userSpaceOnUse" x="0" y="0" width="90" height="16">
<g id="clip0_3107_16530">
<path id="Vector" d="M90 0H0V16H90V0Z" fill="white"/>
</g>
</mask>
<g mask="url(#mask0_4_42)">
<g id="Group">
<g id="Clip path group_2">
<mask id="mask1_4_42" style="mask-type:luminance" maskUnits="userSpaceOnUse" x="0" y="0" width="15" height="16">
<g id="clip1_3107_16530">
<path id="Vector_2" d="M14.8848 0.569824H0.472839V15.4301H14.8848V0.569824Z" fill="white"/>
</g>
</mask>
<g mask="url(#mask1_4_42)">
<g id="Group_2">
<path id="Vector_3" d="M7.22045 13.2491C7.50231 13.0737 7.85518 13.0737 8.13705 13.2491L11.036 15.0533C11.7076 15.4713 12.5363 14.8503 12.358 14.0626L11.5885 10.6626C11.5138 10.332 11.6227 9.98593 11.8716 9.76361L14.434 7.47477C15.027 6.9451 14.71 5.94073 13.9282 5.87237L10.5564 5.5775C10.2286 5.54884 9.94318 5.33546 9.81485 5.02317L8.49534 1.81322C8.18973 1.06975 7.1678 1.06974 6.86218 1.81322L5.54269 5.02317C5.41431 5.33546 5.12884 5.54884 4.80106 5.5775L1.42926 5.87237C0.647517 5.94073 0.330518 6.9451 0.923508 7.47477L3.48593 9.76361C3.73478 9.98593 3.84374 10.332 3.76892 10.6626L2.99954 14.0626C2.82127 14.8503 3.64986 15.4713 4.32153 15.0533L7.22045 13.2491Z" fill="#FFCA64"/>
</g>
</g>
</g>
<g id="Clip path group_3">
<mask id="mask2_4_42" style="mask-type:luminance" maskUnits="userSpaceOnUse" x="19" y="0" width="15" height="16">
<g id="clip2_3107_16530">
<path id="Vector_4" d="M33.5454 0.569839H19.1334V15.4302H33.5454V0.569839Z" fill="white"/>
</g>
</mask>
<g mask="url(#mask2_4_42)">
<g id="Group_3">
<path id="Vector_5" d="M25.881 13.2491C26.1629 13.0737 26.5157 13.0737 26.7976 13.2491L29.6965 15.0533C30.3682 15.4713 31.1968 14.8503 31.0185 14.0626L30.2492 10.6626C30.1743 10.332 30.2833 9.98593 30.5321 9.76361L33.0946 7.47479C33.6876 6.94511 33.3706 5.94075 32.5888 5.87238L29.217 5.57752C28.8893 5.54886 28.6037 5.33548 28.4754 5.02318L27.1559 1.81324C26.8503 1.06976 25.8284 1.06976 25.5228 1.81324L24.2033 5.02318C24.0749 5.33548 23.7894 5.54886 23.4616 5.57752L20.0898 5.87238C19.3081 5.94075 18.9911 6.94511 19.5841 7.47479L22.1465 9.76361C22.3954 9.98593 22.5043 10.332 22.4295 10.6626L21.6601 14.0626C21.4819 14.8503 22.3104 15.4713 22.9821 15.0533L25.881 13.2491Z" fill="#FFCA64"/>
</g>
</g>
</g>
<g id="Clip path group_4">
<mask id="mask3_4_42" style="mask-type:luminance" maskUnits="userSpaceOnUse" x="37" y="0" width="16" height="16">
<g id="clip3_3107_16530">
<path id="Vector_6" d="M52.206 0.569839H37.794V15.4302H52.206V0.569839Z" fill="white"/>
</g>
</mask>
<g mask="url(#mask3_4_42)">
<g id="Group_4">
<path id="Vector_7" d="M44.5416 13.2491C44.8235 13.0737 45.1763 13.0737 45.4582 13.2491L48.3571 15.0533C49.0288 15.4713 49.8574 14.8503 49.6791 14.0626L48.9098 10.6626C48.8349 10.332 48.9439 9.98593 49.1927 9.76361L51.7552 7.47479C52.3482 6.94511 52.0311 5.94075 51.2494 5.87238L47.8776 5.57752C47.5498 5.54886 47.2643 5.33548 47.136 5.02318L45.8165 1.81324C45.5109 1.06976 44.489 1.06976 44.1834 1.81324L42.8639 5.02318C42.7355 5.33548 42.45 5.54886 42.1222 5.57752L38.7504 5.87238C37.9686 5.94075 37.6517 6.94511 38.2447 7.47479L40.8071 9.76361C41.056 9.98593 41.1649 10.332 41.0901 10.6626L40.3207 14.0626C40.1424 14.8503 40.971 15.4713 41.6427 15.0533L44.5416 13.2491Z" fill="#FFCA64"/>
</g>
</g>
</g>
<g id="Clip path group_5">
<mask id="mask4_4_42" style="mask-type:luminance" maskUnits="userSpaceOnUse" x="56" y="0" width="15" height="16">
<g id="clip4_3107_16530">
<path id="Vector_8" d="M70.8665 0.569839H56.4546V15.4302H70.8665V0.569839Z" fill="white"/>
</g>
</mask>
<g mask="url(#mask4_4_42)">
<g id="Group_5">
<path id="Vector_9" d="M63.2023 13.2491C63.4841 13.0737 63.837 13.0737 64.1188 13.2491L67.0177 15.0533C67.6894 15.4713 68.518 14.8503 68.3397 14.0626L67.5704 10.6626C67.4955 10.332 67.6045 9.98593 67.8533 9.76361L70.4158 7.47479C71.0088 6.94511 70.6917 5.94075 69.91 5.87238L66.5382 5.57752C66.2104 5.54886 65.925 5.33548 65.7966 5.02318L64.4771 1.81324C64.1715 1.06976 63.1496 1.06976 62.844 1.81324L61.5245 5.02318C61.3961 5.33548 61.1106 5.54886 60.7828 5.57752L57.411 5.87238C56.6293 5.94075 56.3123 6.94511 56.9053 7.47479L59.4677 9.76361C59.7165 9.98593 59.8255 10.332 59.7507 10.6626L58.9813 14.0626C58.803 14.8503 59.6316 15.4713 60.3033 15.0533L63.2023 13.2491Z" fill="#FFCA64"/>
</g>
</g>
</g>
<g id="Clip path group_6">
<mask id="mask5_4_42" style="mask-type:luminance" maskUnits="userSpaceOnUse" x="75" y="0" width="15" height="16">
<g id="clip5_3107_16530">
<path id="Vector_10" d="M89.5271 0.569839H75.1151V15.4302H89.5271V0.569839Z" fill="white"/>
</g>
</mask>
<g mask="url(#mask5_4_42)">
<g id="Group_6">
<path id="Vector_11" d="M81.8627 13.2491C82.1444 13.0737 82.4974 13.0737 82.779 13.2491L85.6784 15.0533C86.3503 15.4713 87.1782 14.8503 87.0005 14.0626L86.2308 10.6626C86.1564 10.332 86.265 9.98593 86.514 9.76361L89.0759 7.47479C89.6695 6.94511 89.3521 5.94075 88.5708 5.87238L85.1989 5.57752C84.8707 5.54886 84.5852 5.33548 84.4572 5.02318L83.1375 1.81324C82.8318 1.06976 81.81 1.06976 81.5043 1.81324L80.1853 5.02318C80.0565 5.33548 79.771 5.54886 79.4436 5.57752L76.0716 5.87238C75.2899 5.94075 74.9728 6.94511 75.5658 7.47479L78.1285 9.76361C78.3768 9.98593 78.4862 10.332 78.4109 10.6626L77.642 14.0626C77.4636 14.8503 78.2922 15.4713 78.9641 15.0533L81.8627 13.2491Z" fill="#CCCCCC"/>
</g>
</g>
</g>
</g>
</g>
</g>
</g>
<defs>
<clipPath id="clip0_4_42">
<rect width="90" height="16" fill="white"/>
</clipPath>
</defs>
</svg>
