<svg width="67" height="67" viewBox="0 0 67 67" fill="none" xmlns="http://www.w3.org/2000/svg">
<g clip-path="url(#clip0_325_819)">
<path d="M66.5479 38.5903C69.5826 20.5266 57.2464 3.44823 38.9942 0.444834C20.7421 -2.55856 3.48563 9.65029 0.450905 27.7141C-2.58382 45.7779 9.75237 62.8562 28.0045 65.8596C46.2567 68.863 63.5132 56.6541 66.5479 38.5903Z" fill="#F4E6E1"/>
<mask id="mask0_325_819" style="mask-type:luminance" maskUnits="userSpaceOnUse" x="-1" y="-1" width="69" height="68">
<path d="M66.5479 38.5903C69.5826 20.5266 57.2464 3.44823 38.9942 0.444834C20.7421 -2.55856 3.48563 9.65029 0.450905 27.7141C-2.58382 45.7779 9.75237 62.8562 28.0045 65.8596C46.2567 68.863 63.5132 56.6541 66.5479 38.5903Z" fill="white"/>
</mask>
<g mask="url(#mask0_325_819)">
<path d="M46.7832 27.0706C47.054 23.375 49.8928 13.0923 43.7654 13.7925C42.9705 8.43713 37.9044 5.72705 33.0216 5.97774C19.7754 6.6477 17.7271 18.6248 19.8016 27.0749C23.1644 35.9356 40.4331 29.007 46.7832 27.0879C46.7832 27.0835 46.7832 27.0792 46.7832 27.0749V27.0706Z" fill="#D76A40"/>
<path d="M62.6807 67H4.31934C4.31934 67 6.08812 57.3137 10.1017 51.7379C14.111 46.1579 28.9994 44.1221 28.9994 44.1221L33.5022 44.8093L38.0049 44.1221C38.0049 44.1221 52.8977 46.1579 56.907 51.7379C60.9162 57.3137 62.685 67 62.685 67H62.6807Z" fill="#5B4850"/>
<path d="M25.5409 44.537C29.5065 43.6336 32.8825 43.8973 33.424 43.9492H33.4284C33.9699 43.8973 37.3459 43.6336 41.3115 44.537C41.6871 48.051 40.224 52.4771 33.5026 52.4987C26.6983 52.5203 25.1566 48.0943 25.5409 44.537Z" fill="white"/>
<path d="M33.4017 49.0408C31.218 49.0408 29.4492 47.2903 29.4492 45.1292V37.6559H37.3542V45.1292C37.3542 47.2903 35.5854 49.0408 33.4017 49.0408Z" fill="#F1B69A"/>
<path d="M37.3591 37.215V41.8053C37.3591 41.8053 36.0314 44.0918 33.4066 44.0918C31.2971 44.0918 29.4541 42.1122 29.4541 42.1122V37.2194H37.3591V37.215Z" fill="#150A08"/>
<path d="M22.3439 28.7563C20.2082 25.5405 17.7275 27.6065 17.7275 29.8714C17.7275 33.1477 21.3175 35.9702 23.3702 33.6189C25.4229 31.2675 22.3439 28.7563 22.3439 28.7563Z" fill="#F1B69A"/>
<path d="M21.8766 30.2388C20.5446 27.7794 18.7059 30.0746 19.4091 30.9866" stroke="#E07E61" stroke-miterlimit="10" stroke-linecap="round"/>
<path d="M43.7007 28.7563C45.8363 25.5405 48.317 27.6065 48.317 29.8714C48.317 33.1477 44.727 35.9702 42.6744 33.6189C40.6217 31.2675 43.7007 28.7563 43.7007 28.7563Z" fill="#F1B69A"/>
<path d="M44.168 30.2388C45.5 27.7794 47.3387 30.0746 46.6355 30.9866" stroke="#E07E61" stroke-miterlimit="10" stroke-linecap="round"/>
<path d="M33.009 41.3774C24.5625 41.3774 19.5662 32.2401 21.5402 22.8563C23.1693 15.1281 42.8705 15.1281 44.4952 22.8563C46.4692 32.2357 41.4599 41.3817 33.009 41.3774Z" fill="#F1B69A"/>
<path d="M45.478 25.9338C45.478 25.9338 45.3688 34.3537 42.1938 38.2913C39.023 42.2289 33.4066 42.4839 33.4066 42.4839C33.4066 42.4839 27.1132 42.2289 23.9425 38.2913C20.7718 34.3537 20.6582 25.9338 20.6582 25.9338L21.0993 25.0866C21.4225 27.3429 22.9118 33.191 24.7068 34.4833C27.646 33.5108 29.8428 33.4027 33.197 33.4027C36.7826 33.4027 39.0667 33.7831 41.5605 34.0943C43.0017 32.8365 44.753 27.1441 45.0413 25.0866L45.4824 25.9338H45.478Z" fill="#D76A40"/>
<g style="mix-blend-mode:multiply" opacity="0.5">
<path d="M31.8867 31.985C32.7558 32.3957 34.7168 31.4836 34.7561 31.985C34.7954 32.4864 33.7167 32.9273 33.3236 32.9273C32.9305 32.9273 31.8911 31.985 31.8911 31.985H31.8867Z" fill="#F1B69A"/>
</g>
<path d="M31.9176 29.4651C30.686 32.1017 32.5291 32.6161 33.0226 32.6766" stroke="#E07E61" stroke-miterlimit="10" stroke-linecap="round"/>
<path d="M29.9473 34.4833C33.1791 34.8291 35.341 34.4747 36.8783 34.5265C36.8783 34.5265 34.9436 37.2323 32.6638 36.6963C30.384 36.1604 29.9473 34.4833 29.9473 34.4833Z" fill="white"/>
<path d="M29.6812 22.2771C29.1527 21.1101 26.0606 21.6418 25.6239 22.476C25.1872 23.3058 26.6328 23.5393 27.7071 23.4874C28.7815 23.4355 30.0175 23.0206 29.6812 22.2771Z" fill="#D76A40"/>
<path d="M36.3629 22.2771C36.8914 21.1101 39.9835 21.6418 40.4202 22.476C40.857 23.3058 39.4114 23.5393 38.337 23.4874C37.2626 23.4355 36.0266 23.0206 36.3629 22.2771Z" fill="#D76A40"/>
<g style="mix-blend-mode:multiply" opacity="0.5">
<path d="M32.1832 37.483C33.3668 37.483 35.0613 36.8779 35.3234 37.483C35.5854 38.0881 34.1442 39.2984 33.2445 39.2119C32.3448 39.1255 30.8293 37.4787 32.1789 37.483H32.1832Z" fill="#F1B69A"/>
</g>
<path d="M27.4453 26.7723C27.4453 27.2348 27.8253 27.6152 28.297 27.6152C28.7686 27.6152 29.1486 27.2391 29.1486 26.7723C29.1486 26.3055 28.7686 25.9295 28.297 25.9295C27.8253 25.9295 27.4453 26.3055 27.4453 26.7723Z" fill="#150A08"/>
<path d="M37.7471 27.6152C38.2175 27.6152 38.5988 27.2378 38.5988 26.7723C38.5988 26.3068 38.2175 25.9295 37.7471 25.9295C37.2768 25.9295 36.8955 26.3068 36.8955 26.7723C36.8955 27.2378 37.2768 27.6152 37.7471 27.6152Z" fill="#150A08"/>
<path d="M26.5488 17.2071L28.5185 16.736C28.5185 16.736 25.9549 20.8076 31.4141 21.5899C36.8733 22.3722 42.564 18.7112 38.0307 16.844L39.6772 16.736L35.7116 13.7233L26.5488 17.2071Z" fill="#D76A40"/>
</g>
</g>
<defs>
<clipPath id="clip0_325_819">
<rect width="67" height="67" fill="white"/>
</clipPath>
</defs>
</svg>
