<svg width="67" height="67" viewBox="0 0 67 67" fill="none" xmlns="http://www.w3.org/2000/svg">
<g clip-path="url(#clip0_325_1137)">
<path d="M66.5479 38.5903C69.5826 20.5266 57.2464 3.44823 38.9942 0.444834C20.7421 -2.55856 3.48563 9.65029 0.450905 27.7141C-2.58382 45.7779 9.75237 62.8562 28.0045 65.8596C46.2567 68.863 63.5132 56.6541 66.5479 38.5903Z" fill="#F4E6E1"/>
<mask id="mask0_325_1137" style="mask-type:luminance" maskUnits="userSpaceOnUse" x="-1" y="-1" width="69" height="68">
<path d="M66.5479 38.5903C69.5826 20.5266 57.2464 3.44823 38.9942 0.444834C20.7421 -2.55856 3.48563 9.65029 0.450905 27.7141C-2.58382 45.7779 9.75237 62.8562 28.0045 65.8596C46.2567 68.863 63.5132 56.6541 66.5479 38.5903Z" fill="white"/>
</mask>
<g mask="url(#mask0_325_1137)">
<path d="M20.8981 28.4321C13.9539 19.6492 19.8412 10.2568 25.1868 7.29604C33.0219 2.95645 46.1721 4.28339 47.8841 7.58996C49.3734 10.4686 46.7879 13.0447 46.7879 13.0447C46.7879 13.0447 50.7229 14.0777 50.5744 17.5874C50.4259 21.0971 45.9843 22.8304 45.9843 22.8304C45.9843 22.8304 50.5613 25.614 42.1934 30.939C33.8255 36.2641 22.3873 30.308 20.8981 28.4278V28.4321Z" fill="#D88D48"/>
<path d="M62.6807 67H4.31934C4.31934 67 6.08812 57.3137 10.1017 51.7379C14.111 46.1578 28.9994 44.122 28.9994 44.122L33.5022 44.8093L38.0049 44.122C38.0049 44.122 52.8977 46.1578 56.907 51.7379C60.9162 57.3137 62.685 67 62.685 67H62.6807Z" fill="#9FC9C1"/>
<path d="M47.9147 45.9979C47.2378 50.9297 43.032 53.8818 39.3503 55.5459C35.6904 57.2013 31.5021 57.2013 27.8379 55.5459C24.1562 53.8818 19.9504 50.9254 19.2734 45.9979L21.872 45.5182C22.4573 49.7713 26.2525 52.2264 29.3665 53.5447C32.0699 54.6901 35.1183 54.6901 37.8217 53.5447C40.94 52.2264 44.7309 49.7713 45.3161 45.5182L47.9147 45.9979Z" fill="#79B2A7"/>
<path d="M45.3157 45.5182C44.7086 49.9528 40.612 52.4338 37.4282 53.7089C34.965 54.6944 32.2179 54.6944 29.7547 53.7089C26.5752 52.4338 22.4786 49.9528 21.8672 45.5225C26.4093 44.0399 32.6808 43.4002 32.79 43.3916C33.3054 43.357 33.5892 43.3527 33.5892 43.3527C33.5892 43.3527 33.8731 43.357 34.3885 43.3916C34.4977 43.4002 40.7692 44.0399 45.3113 45.5225L45.3157 45.5182Z" fill="#F1B69A"/>
<path d="M33.4017 49.0408C31.218 49.0408 29.4492 47.2903 29.4492 45.1291V37.6559H37.3542V45.1291C37.3542 47.2903 35.5854 49.0408 33.4017 49.0408Z" fill="#F1B69A"/>
<path d="M37.3591 36.7871V41.3774C37.3591 41.3774 36.0314 43.6639 33.4066 43.6639C31.2971 43.6639 29.4541 41.6843 29.4541 41.6843V36.7914H37.3591V36.7871Z" fill="#150A08"/>
<path d="M22.3439 28.7563C20.2082 25.5405 17.7275 27.6065 17.7275 29.8714C17.7275 33.1477 21.3175 35.9702 23.3702 33.6188C25.4229 31.2675 22.3439 28.7563 22.3439 28.7563Z" fill="#F1B69A"/>
<path d="M21.8766 30.2388C20.5446 27.7794 18.7059 30.0746 19.4091 30.9866" stroke="#E07E61" stroke-miterlimit="10" stroke-linecap="round"/>
<path d="M43.7007 28.7563C45.8363 25.5405 48.317 27.6065 48.317 29.8714C48.317 33.1477 44.727 35.9702 42.6744 33.6188C40.6217 31.2675 43.7007 28.7563 43.7007 28.7563Z" fill="#F1B69A"/>
<path d="M44.168 30.2388C45.5 27.7794 47.3387 30.0746 46.6355 30.9866" stroke="#E07E61" stroke-miterlimit="10" stroke-linecap="round"/>
<path d="M33.009 41.3774C24.5625 41.3774 19.5662 32.24 21.5402 22.8563C23.1693 15.1281 42.8705 15.1281 44.4952 22.8563C46.4692 32.2357 41.4599 41.3817 33.009 41.3774Z" fill="#F1B69A"/>
<g style="mix-blend-mode:multiply" opacity="0.5">
<path d="M31.8867 31.985C32.7558 32.3957 34.7168 31.4836 34.7561 31.985C34.7954 32.4864 33.7167 32.9273 33.3236 32.9273C32.9305 32.9273 31.8911 31.985 31.8911 31.985H31.8867Z" fill="#F1B69A"/>
</g>
<path d="M31.9176 29.4651C30.686 32.1017 32.5291 32.6161 33.0226 32.6766" stroke="#E07E61" stroke-miterlimit="10" stroke-linecap="round"/>
<path d="M30.0693 34.1116C33.3318 34.7297 35.9173 34.2153 36.9611 33.3898" stroke="#150A08" stroke-miterlimit="10" stroke-linecap="round"/>
<path d="M29.6812 22.2771C29.1527 21.1101 26.0606 21.6417 25.6239 22.4759C25.1872 23.3058 26.6328 23.5392 27.7071 23.4874C28.7815 23.4355 30.0175 23.0206 29.6812 22.2771Z" fill="#D88D48"/>
<path d="M36.2369 23.2237C36.7654 22.0567 39.8575 22.5883 40.2942 23.4225C40.731 24.2524 39.2854 24.4858 38.211 24.434C37.1366 24.3821 35.9007 23.9672 36.2369 23.2237Z" fill="#D88D48"/>
<g style="mix-blend-mode:multiply" opacity="0.5">
<path d="M32.2577 35.7022C33.4412 35.7022 35.1358 35.0971 35.3978 35.7022C35.6599 36.3073 34.2186 37.5176 33.3189 37.4311C32.4236 37.3447 30.9038 35.6979 32.2533 35.7022H32.2577Z" fill="#F1B69A"/>
</g>
<path d="M27.4453 26.7723C27.4453 27.2348 27.8253 27.6152 28.297 27.6152C28.7686 27.6152 29.1486 27.2391 29.1486 26.7723C29.1486 26.3055 28.7686 25.9295 28.297 25.9295C27.8253 25.9295 27.4453 26.3055 27.4453 26.7723Z" fill="#150A08"/>
<path d="M38.5949 26.7723C38.5949 27.2348 38.2149 27.6152 37.7432 27.6152C37.2716 27.6152 36.8916 27.2391 36.8916 26.7723C36.8916 26.3055 37.2716 25.9295 37.7432 25.9295C38.2149 25.9295 38.5949 26.3055 38.5949 26.7723Z" fill="#150A08"/>
<path d="M27.2525 14.3976C27.0473 19.7486 39.3764 22.6229 42.6476 22.1302C45.9187 21.6374 46.9014 17.4232 41.7697 13.9653C36.638 10.5075 27.3442 12.0203 27.2525 14.3976Z" fill="#D88D48"/>
</g>
</g>
<defs>
<clipPath id="clip0_325_1137">
<rect width="67" height="67" fill="white"/>
</clipPath>
</defs>
</svg>
