<svg width="67" height="67" viewBox="0 0 67 67" fill="none" xmlns="http://www.w3.org/2000/svg">
<g clip-path="url(#clip0_325_1475)">
<path d="M67 33.5C67 41.7613 64.0117 49.3194 59.0587 55.1561C57.032 57.5445 54.6744 59.6486 52.0583 61.3908C51.1483 62.0008 50.2022 62.5643 49.2302 63.0813C45.6524 64.989 41.6818 66.2711 37.4733 66.7674C36.1704 66.9224 34.8417 67 33.4974 67C31.8585 67 30.2454 66.8811 28.6685 66.6536C24.3979 66.0384 20.3911 64.6167 16.803 62.5488H16.7978C15.8827 62.0215 14.9934 61.4529 14.1352 60.8428C11.5863 59.0282 9.3011 56.8725 7.34679 54.4375C2.75052 48.7042 0 41.4252 0 33.5C0 14.9975 14.9986 0 33.4974 0C51.9962 0 67 14.9975 67 33.5Z" fill="#F4E6E1"/>
<path d="M59.0585 55.1561C57.0318 57.5445 54.6743 59.6486 52.0582 61.3908C51.1482 62.0008 50.2021 62.5643 49.2301 63.0813C45.6523 64.989 41.6817 66.2711 37.4732 66.7674C36.1703 66.9224 34.8416 67 33.4973 67C31.8584 67 30.2453 66.8811 28.6684 66.6536C24.3978 66.0384 20.391 64.6167 16.8029 62.5488H16.7977C15.8826 62.0215 14.9933 61.4529 14.1351 60.8428C11.5862 59.0282 9.301 56.8725 7.34668 54.4375C7.35185 54.4168 7.36219 54.4013 7.37253 54.3806C7.43457 54.241 7.49661 54.1066 7.56383 53.9774C7.61553 53.8688 7.6724 53.7603 7.73444 53.6569C7.75512 53.6103 7.78097 53.5638 7.81199 53.5173C7.86369 53.4242 7.92057 53.3312 7.97744 53.2433C8.02397 53.1657 8.0705 53.0934 8.11703 53.021C8.20492 52.8866 8.30316 52.7522 8.40139 52.6229C8.48411 52.504 8.57201 52.3903 8.66507 52.2817C8.75296 52.1731 8.84602 52.0646 8.93909 51.9612C8.96494 51.9302 8.99596 51.8991 9.02181 51.8733C9.12521 51.7596 9.23379 51.6458 9.34753 51.5373L9.38372 51.5011C9.49229 51.3977 9.60604 51.2943 9.71978 51.1961C9.84903 51.0823 9.97829 50.9738 10.1127 50.8704C10.2213 50.7825 10.335 50.6998 10.4488 50.6222C10.5987 50.5137 10.7486 50.4103 10.9089 50.3172C10.9968 50.2603 11.0899 50.2035 11.1881 50.1518C11.4673 49.9863 11.7568 49.8416 12.0567 49.7123C12.1601 49.6658 12.2583 49.6245 12.3617 49.5831C12.5168 49.5211 12.6719 49.4642 12.8322 49.4125C12.9873 49.3608 13.1424 49.3091 13.3027 49.2677L21.3319 47.0499L21.6008 46.9775L23.2397 46.5226L24.1755 46.2641L24.5323 46.1659H41.5938L41.9505 46.2641L42.8863 46.5226L44.5252 46.9775L44.7941 47.0499L52.8233 49.2677C55.7807 50.0846 58.0969 52.3127 59.0585 55.1561Z" fill="white"/>
<path d="M41.9508 46.2641C39.9706 48.8748 36.7289 50.5757 33.0633 50.5757C29.3976 50.5757 26.1559 48.8748 24.1758 46.2641L26.7298 45.5559L27.6967 40.1276L28.3895 36.2503L33.0633 38.0804L37.7371 36.2503L39.2571 44.7701L39.3967 45.5559L41.9508 46.2641Z" fill="#F69779"/>
<path d="M39.2568 44.7701C37.5609 45.3697 36.2425 45.3697 36.2425 45.3697C36.2425 45.3697 30.6433 45.3697 27.6963 40.1276L28.3891 36.2503L33.0629 38.0804L37.7367 36.2503L39.2568 44.7701Z" fill="#F37A67"/>
<path d="M59.0583 55.1561C57.0316 57.5445 54.674 59.6486 52.0579 61.3908C51.1479 62.0008 50.2018 62.5643 49.2298 63.0813C45.6521 64.9889 41.6814 66.271 37.4729 66.7673C36.7904 61.9491 37.6228 56.7122 37.6228 56.7122C37.6228 56.1435 37.7159 55.4714 37.871 54.758C38.4552 51.9818 39.8977 48.6112 39.8977 48.6112L40.2958 48.332L42.886 46.5226L44.525 46.9775L44.7938 47.0499L52.8231 49.2677C55.7804 50.0845 58.0966 52.3127 59.0583 55.1561Z" fill="#A1CC36"/>
<path d="M28.6684 66.6536C24.3978 66.0384 20.391 64.6167 16.8029 62.5488H16.7977C15.8826 62.0215 14.9933 61.4528 14.1351 60.8428C11.5862 59.0282 9.301 56.8724 7.34668 54.4375C7.35185 54.4168 7.36219 54.4013 7.37253 54.3806C7.43457 54.241 7.49661 54.1066 7.56383 53.9774C7.61553 53.8688 7.6724 53.7602 7.73444 53.6568C7.75512 53.6103 7.78097 53.5638 7.81199 53.5173C7.86369 53.4242 7.92057 53.3311 7.97744 53.2433C8.02397 53.1657 8.0705 53.0933 8.11703 53.021C8.20492 52.8865 8.30316 52.7521 8.40139 52.6229C8.48411 52.504 8.57201 52.3903 8.66507 52.2817C8.75296 52.1731 8.84602 52.0646 8.93909 51.9612C8.96494 51.9301 8.99596 51.8991 9.02181 51.8733C9.12521 51.7595 9.23379 51.6458 9.34753 51.5372L9.38372 51.5011C9.49229 51.3977 9.60604 51.2943 9.71978 51.196C9.84903 51.0823 9.97829 50.9737 10.1127 50.8703C10.2213 50.7825 10.335 50.6997 10.4488 50.6222C10.5987 50.5136 10.7486 50.4102 10.9089 50.3172C10.9968 50.2603 11.0899 50.2034 11.1881 50.1518C11.4673 49.9863 11.7568 49.8416 12.0567 49.7123C12.1601 49.6658 12.2583 49.6244 12.3617 49.5831C12.5168 49.521 12.6719 49.4642 12.8322 49.4125C12.9873 49.3608 13.1424 49.3091 13.3027 49.2677L21.3319 47.0499L21.6008 46.9775L23.2397 46.5226L25.83 48.332L26.2281 48.6112C26.2281 48.6112 27.6705 51.9818 28.2548 54.758C28.4099 55.4766 28.5029 56.1435 28.5029 56.7122C28.5029 56.7122 29.3198 61.8664 28.6684 66.6536Z" fill="#A1CC36"/>
<path d="M43.2739 15.959C42.0796 13.7153 39.7944 12.4798 37.685 11.7922C34.6863 10.8151 31.4394 10.8151 28.4408 11.7922C26.3365 12.4798 24.0461 13.7205 22.8518 15.959C20.6907 20.0948 21.0578 26.5363 21.0578 26.5363L23.312 28.9248L33.0629 27.6892L42.8138 28.9248L45.068 26.5363C45.068 26.5363 45.435 20.1 43.2739 15.959Z" fill="#051733"/>
<path d="M45.6932 26.1434C45.6312 25.7299 45.4761 25.3111 45.1607 25.0371C44.8764 24.789 44.4886 24.6907 44.1112 24.7063C43.7338 24.7218 43.3718 24.8458 43.0306 25.0113C43.0306 25.0113 42.9996 15.4782 39.6183 15.3697C37.4003 15.2611 36.418 15.9228 33.0626 15.9228C29.7071 15.9228 28.7196 15.2559 26.5068 15.3697C23.1255 15.4782 23.0945 25.0113 23.0945 25.0113C22.7533 24.8458 22.3914 24.7218 22.0139 24.7063C21.6365 24.6907 21.2488 24.7941 20.9644 25.0371C20.649 25.3111 20.4991 25.7299 20.4319 26.1434C20.3078 26.9706 20.5043 27.8443 20.9747 28.537C21.4452 29.2298 22.1432 29.7519 22.9601 29.938C24.4026 40.0191 33.0626 40.0191 33.0626 40.0191C33.0626 40.0191 41.7277 40.0191 43.165 29.938C43.9819 29.7519 44.6747 29.2298 45.1504 28.537C45.626 27.8443 45.8173 26.9706 45.6932 26.1434Z" fill="#F69779"/>
<path d="M40.296 50.9221C40.296 50.9221 38.1814 53.3725 37.623 56.7122L39.1793 44.4392L40.296 45.1268V50.9169V50.9221Z" fill="#718F26"/>
<path d="M38.6104 41.1616C38.6104 41.1616 42.855 43.0123 44.4164 45.6851L45.0886 53.8171L40.2907 50.9221L38.6104 41.1616Z" fill="#BFE06C"/>
<path d="M25.8301 50.9221C25.8301 50.9221 27.9447 53.3725 28.503 56.7122L26.9468 44.4392L25.8301 45.1268V50.9169V50.9221Z" fill="#718F26"/>
<path d="M27.5153 41.1616C27.5153 41.1616 23.2706 43.0123 21.7092 45.6851L21.0371 53.8171L25.835 50.9221L27.5153 41.1616Z" fill="#BFE06C"/>
<path d="M21.1197 23.1036C21.1197 23.1036 20.0288 13.9997 25.8245 9.98281V11.5596C25.8245 11.5596 32.0287 5.6092 40.4199 9.47617L38.693 10.0862C38.693 10.0862 42.4052 10.1896 44.3388 12.7279L42.5086 12.8313C42.5086 12.8313 44.799 13.6947 45.3574 16.2382L43.6305 15.3593C43.6305 15.3593 45.7658 18.2286 45.0523 23.8119L41.9554 15.835L40.5284 14.3616L33.5022 13.5499L26.7448 13.705L24.1804 15.3697L23.136 18.0786L21.1249 23.114L21.1197 23.1036Z" fill="#051733"/>
<path d="M32.5771 24.6804V30.5946H33.5802C35.2966 30.5946 32.8977 25.3577 32.5771 24.6804Z" fill="#F37A67"/>
<path d="M39.8669 22.3747C38.4813 21.6923 36.9406 21.5889 35.4982 22.1627C34.8881 22.4057 35.1518 23.4086 35.7722 23.1605C36.9561 22.69 38.197 22.7004 39.3448 23.2691C39.9393 23.5637 40.4667 22.6694 39.8669 22.3747Z" fill="#051733"/>
<path d="M37.6442 25.6575C38.1838 25.6575 38.6213 25.22 38.6213 24.6804C38.6213 24.1408 38.1838 23.7033 37.6442 23.7033C37.1045 23.7033 36.667 24.1408 36.667 24.6804C36.667 25.22 37.1045 25.6575 37.6442 25.6575Z" fill="#051733"/>
<path d="M26.2595 22.3747C27.6451 21.6923 29.1858 21.5889 30.6283 22.1627C31.2384 22.4057 30.9747 23.4086 30.3543 23.1605C29.1703 22.69 27.9295 22.7004 26.7817 23.2691C26.1871 23.5637 25.6598 22.6694 26.2595 22.3747Z" fill="#051733"/>
<path d="M28.483 25.6575C29.0227 25.6575 29.4602 25.22 29.4602 24.6804C29.4602 24.1408 29.0227 23.7033 28.483 23.7033C27.9433 23.7033 27.5059 24.1408 27.5059 24.6804C27.5059 25.22 27.9433 25.6575 28.483 25.6575Z" fill="#051733"/>
<path d="M29.8838 32.9003C30.225 34.1824 31.5176 35.1388 33.0634 35.1388C34.6093 35.1388 35.8967 34.1824 36.2431 32.9003H29.889H29.8838Z" fill="white"/>
<path d="M52.0576 61.3908C51.1476 62.0009 50.2015 62.5644 49.2295 63.0813L51.0494 53.1451L52.0576 61.3908Z" fill="#718F26"/>
<path d="M16.7974 62.5489C15.8823 62.0215 14.993 61.4529 14.1348 60.8428L15.0757 53.1451L16.7974 62.5489Z" fill="#718F26"/>
</g>
<defs>
<clipPath id="clip0_325_1475">
<rect width="67" height="67" fill="white"/>
</clipPath>
</defs>
</svg>
