<svg width="67" height="67" viewBox="0 0 67 67" fill="none" xmlns="http://www.w3.org/2000/svg">
<g clip-path="url(#clip0_325_686)">
<path d="M33.1574 66.3104C51.4691 66.3104 66.3137 51.4658 66.3137 33.154C66.3137 14.8422 51.4691 -0.00236511 33.1574 -0.00236511C14.8456 -0.00236511 0.000976562 14.8422 0.000976562 33.154C0.000976562 51.4658 14.8456 66.3104 33.1574 66.3104Z" fill="#F4E6E1"/>
<mask id="mask0_325_686" style="mask-type:luminance" maskUnits="userSpaceOnUse" x="0" y="-1" width="67" height="68">
<path d="M33.1574 66.3104C51.4691 66.3104 66.3137 51.4658 66.3137 33.154C66.3137 14.8422 51.4691 -0.00236511 33.1574 -0.00236511C14.8456 -0.00236511 0.000976562 14.8422 0.000976562 33.154C0.000976562 51.4658 14.8456 66.3104 33.1574 66.3104Z" fill="white"/>
</mask>
<g mask="url(#mask0_325_686)">
<path d="M45.6822 27.1008C50.2466 18.8841 46.6331 14.1728 43.7112 15.7159C43.7112 15.7159 43.2704 10.6199 36.5838 7.55106C28.8468 3.99813 18.8537 6.76873 16.9043 12.1197C15.1062 17.0601 18.3177 19.4417 18.3177 19.4417C18.3177 19.4417 16.3295 22.9903 19.7311 28.3024C23.1328 33.6145 43.6421 30.7791 45.6865 27.1008H45.6822Z" fill="#21191D"/>
<path d="M62.0333 67H4.27441C4.27441 67 6.02495 57.3137 9.99714 51.7379C13.9693 46.1579 28.6997 44.1221 28.6997 44.1221L33.156 44.8093L37.6123 44.1221C37.6123 44.1221 52.3514 46.1579 56.3193 51.7379C60.2871 57.3137 62.0377 67 62.0377 67H62.0333Z" fill="#C96B99"/>
<path d="M28.6996 44.1221L22.9941 45.194C22.9941 45.194 24.3081 51.6472 29.5251 54.8716L33.0651 50.532V45.8769L28.6953 44.1221H28.6996Z" fill="#9A3C6A"/>
<path d="M37.2151 44.1221L42.9206 45.194C42.9206 45.194 41.6066 51.6472 36.3896 54.8716L32.8496 50.532V45.8769L37.2195 44.1221H37.2151Z" fill="#9A3C6A"/>
<path d="M33.0562 49.0408C30.8951 49.0408 29.1445 47.2903 29.1445 45.1292V37.6559H36.9679V45.1292C36.9679 47.2903 35.2174 49.0408 33.0562 49.0408Z" fill="#F1B69A"/>
<path d="M36.9728 36.7871V41.3774C36.9728 41.3774 35.6588 43.6639 33.0611 43.6639C30.9734 43.6639 29.1494 41.6843 29.1494 41.6843V36.7914H36.9728V36.7871Z" fill="#EA9C7C"/>
<path d="M22.1126 28.7563C19.999 25.5405 17.5439 27.6065 17.5439 29.8714C17.5439 33.1477 21.0969 35.9702 23.1284 33.6189C25.1598 31.2675 22.1126 28.7563 22.1126 28.7563Z" fill="#F1B69A"/>
<path d="M21.6504 30.2388C20.332 27.7794 18.5124 30.0746 19.2082 30.9866" stroke="#E07E61" stroke-miterlimit="10" stroke-linecap="round"/>
<path d="M43.2482 28.7563C45.3618 25.5405 47.8169 27.6065 47.8169 29.8714C47.8169 33.1477 44.264 35.9702 42.2325 33.6189C40.201 31.2675 43.2482 28.7563 43.2482 28.7563Z" fill="#F1B69A"/>
<path d="M43.7109 30.2388C45.0292 27.7794 46.8489 30.0746 46.153 30.9866" stroke="#E07E61" stroke-miterlimit="10" stroke-linecap="round"/>
<path d="M32.6674 41.3774C24.3081 41.3774 19.3634 32.2401 21.317 22.8563C22.9293 15.1281 42.4272 15.1281 44.0351 22.8563C45.9887 32.2357 41.0311 41.3817 32.6674 41.3774Z" fill="#F1B69A"/>
<g style="mix-blend-mode:multiply" opacity="0.5">
<path d="M31.5566 31.985C32.4168 32.3957 34.3575 31.4836 34.3964 31.985C34.4353 32.4864 33.3677 32.9273 32.9787 32.9273C32.5897 32.9273 31.561 31.985 31.561 31.985H31.5566Z" fill="#F1B69A"/>
</g>
<path d="M31.5872 29.4651C30.3683 32.1017 32.1923 32.6161 32.6807 32.6766" stroke="#E07E61" stroke-miterlimit="10" stroke-linecap="round"/>
<path d="M29.7588 34.1116C32.9875 34.7297 35.5464 34.2153 36.5794 33.3898" stroke="#150A08" stroke-miterlimit="10" stroke-linecap="round"/>
<path d="M29.3738 22.2771C28.8508 21.1101 25.7906 21.6418 25.3584 22.476C24.9262 23.3058 26.3569 23.5393 27.4202 23.4874C28.4834 23.4355 29.7067 23.0206 29.3738 22.2771Z" fill="#150A08"/>
<path d="M35.9873 22.2771C36.5103 21.1101 39.5705 21.6418 40.0028 22.476C40.435 23.3058 39.0043 23.5393 37.941 23.4874C36.8777 23.4355 35.6545 23.0206 35.9873 22.2771Z" fill="#150A08"/>
<g style="mix-blend-mode:multiply" opacity="0.5">
<path d="M31.924 35.7022C33.0953 35.7022 34.7724 35.0971 35.0317 35.7022C35.291 36.3073 33.8647 37.5176 32.9743 37.4311C32.0882 37.3447 30.5841 35.6979 31.9197 35.7022H31.924Z" fill="#F1B69A"/>
</g>
<path d="M27.1611 26.7723C27.1611 27.2348 27.5372 27.6152 28.004 27.6152C28.4708 27.6152 28.8468 27.2391 28.8468 26.7723C28.8468 26.3055 28.4708 25.9295 28.004 25.9295C27.5372 25.9295 27.1611 26.3055 27.1611 26.7723Z" fill="#150A08"/>
<path d="M38.1955 26.7723C38.1955 27.2348 37.8194 27.6152 37.3526 27.6152C36.8858 27.6152 36.5098 27.2391 36.5098 26.7723C36.5098 26.3055 36.8858 25.9295 37.3526 25.9295C37.8194 25.9295 38.1955 26.3055 38.1955 26.7723Z" fill="#150A08"/>
<path d="M40.0806 17.0601C37.9151 21.9227 33.1692 19.1521 33.1692 19.1521C33.1692 19.1521 30.0572 22.0653 25.2767 21.6029C20.4963 21.1361 18.0023 15.4047 23.8244 12.9799C29.6466 10.5551 43.1278 10.2266 40.0806 17.0601Z" fill="#21191D"/>
</g>
</g>
<defs>
<clipPath id="clip0_325_686">
<rect width="66.3084" height="67" fill="white"/>
</clipPath>
</defs>
</svg>
