<svg width="67" height="67" viewBox="0 0 67 67" fill="none" xmlns="http://www.w3.org/2000/svg">
<g clip-path="url(#clip0_325_1510)">
<path d="M67 33.5026C67 41.6456 64.0944 49.1113 59.2603 54.9122C57.1354 57.4662 54.6382 59.7049 51.8463 61.53C51.1225 62.0056 50.378 62.4554 49.6128 62.8742C44.8304 65.5058 39.3397 67 33.4974 67C27.257 67 21.4148 65.2939 16.4152 62.321C15.7069 61.9022 15.0193 61.4576 14.3472 60.9871C11.6018 59.0742 9.16151 56.7579 7.10379 54.1263C2.65229 48.4392 0 41.2837 0 33.5026C0 14.9986 14.9986 0 33.4974 0C51.9962 0 67 14.9986 67 33.5026Z" fill="#F4E6E1"/>
<path d="M59.26 54.9122C57.1351 57.4663 54.6379 59.7049 51.846 61.53C51.1222 62.0056 50.3777 62.4555 49.6125 62.8742C44.8301 65.5058 39.3394 67 33.4971 67C27.2568 67 21.4145 65.2939 16.415 62.321C15.7066 61.9022 15.019 61.4576 14.3469 60.9871C11.6015 59.0742 9.16124 56.7579 7.10352 54.1263C8.08584 51.3293 10.3814 49.1423 13.3025 48.3358L21.3318 46.1178L24.1702 45.3319L26.7294 44.6236L27.598 39.7637L27.9961 37.5043L28.389 35.3173L33.0628 37.1476L37.7367 35.3173L38.1296 37.5043L39.0757 42.814L39.3963 44.6236L41.9555 45.3319L44.7939 46.1178L52.8232 48.3358C56.0132 49.2147 58.4586 51.7429 59.26 54.9122Z" fill="#FFA33B"/>
<path d="M41.9552 45.3319L41.8725 45.487C40.5024 52.9889 34.8566 57.2853 34.6085 57.4714C34.1535 57.8178 33.6054 57.9884 33.0626 57.9884C32.5197 57.9884 31.9717 57.8178 31.5167 57.4714C31.2685 57.2853 25.6227 52.9889 24.2526 45.487L24.1699 45.3319L26.7291 44.6236L28.3888 35.3173L33.0626 37.1476L37.7364 35.3173L39.396 44.6236L41.9552 45.3319Z" fill="#FF863B"/>
<path d="M39.3964 44.6236C38.3313 51.4585 33.0629 55.3982 33.0629 55.3982C33.0629 55.3982 27.7945 51.4585 26.7295 44.6236L27.5981 39.7637L28.3891 35.3173L33.0629 37.1476L37.7367 35.3173L39.0758 42.814L39.3964 44.6236Z" fill="#86201B"/>
<path d="M39.0754 42.814C37.028 43.7188 35.2908 43.7188 35.2908 43.7188C35.2908 43.7188 30.648 43.7188 27.5977 39.7637L28.3887 35.3173L33.0625 37.1476L37.7363 35.3173L39.0754 42.814Z" fill="#611714"/>
<path d="M46.8519 22.1851C47.0949 22.0662 47.2707 21.8181 47.2965 21.544C47.3224 21.2752 47.1828 20.8771 46.9656 20.722C47.1155 20.5152 47.1569 20.236 47.069 19.993C46.9811 19.7552 46.795 19.3726 46.5468 19.3105C46.8881 18.8194 46.8622 18.1679 46.371 17.8215C46.6916 17.3562 46.6864 16.467 46.2004 16.1723C46.3659 15.9189 46.3917 15.5777 46.2625 15.2985C46.1332 15.0193 45.8282 14.7401 45.5283 14.7039C45.611 14.3989 45.6214 14.0783 45.549 13.7681C45.5076 13.5872 45.4353 13.4062 45.3008 13.2821C45.1664 13.1581 44.8562 13.0029 44.6908 13.0805C44.6649 12.791 44.639 12.4911 44.4839 12.2481C44.3288 12.0051 43.9411 11.7725 43.6826 11.9017C43.7343 11.576 43.5947 11.2192 43.3258 11.0228C43.057 10.8263 42.5503 10.8005 42.2504 10.9401C42.1625 10.6402 42.0385 10.3455 41.811 10.1283C41.5887 9.9112 41.2474 9.7716 40.9527 9.87501C40.9424 9.38901 40.4822 8.95472 39.9911 8.98057C39.8877 8.98057 39.7688 8.98574 39.8205 9.07363C39.7894 8.72206 39.4586 8.45838 39.1173 8.39117C38.7709 8.32396 38.3677 8.47906 38.0264 8.56696C37.9023 8.25675 37.6076 8.01892 37.2716 7.96722C36.9407 7.91552 36.5064 7.97239 36.2944 8.2309C35.8911 7.71905 34.8933 7.63633 34.3246 7.95171C34.1591 7.47089 33.5749 7.3468 33.0682 7.3468C32.5616 7.3468 31.9722 7.47089 31.8119 7.95171C31.2432 7.63116 30.2453 7.71905 29.8421 8.2309C29.6301 7.97239 29.1958 7.91552 28.8649 7.96722C28.534 8.01892 28.2342 8.25675 28.1101 8.56696C27.7688 8.47906 27.3604 8.32396 27.0192 8.39117C26.6728 8.45838 26.3419 8.72206 26.316 9.07363C26.3677 8.98574 26.2488 8.98574 26.1454 8.98057C25.6594 8.95472 25.1941 9.38384 25.1838 9.87501C24.8891 9.7716 24.553 9.9112 24.3255 10.1283C24.1032 10.3455 23.9739 10.6402 23.8861 10.9401C23.5862 10.7953 23.0743 10.8211 22.8107 11.0228C22.547 11.2244 22.4022 11.576 22.4539 11.9017C22.1954 11.7725 21.8077 11.9999 21.6526 12.2481C21.4974 12.4963 21.4664 12.791 21.4457 13.0805C21.2803 12.9978 20.9701 13.1529 20.8357 13.2821C20.7012 13.4062 20.6289 13.5872 20.5875 13.7681C20.5151 14.0732 20.5255 14.3989 20.6082 14.7039C20.3031 14.7401 19.9981 15.0245 19.874 15.2985C19.7448 15.5725 19.7706 15.9189 19.9361 16.1723C19.4501 16.4618 19.4397 17.351 19.7654 17.8215C19.2743 18.1628 19.2484 18.8142 19.5897 19.3105C19.3415 19.3726 19.1502 19.7552 19.0675 19.993C18.9796 20.2308 19.0209 20.5152 19.1709 20.722C18.9537 20.8823 18.8141 21.2752 18.84 21.544C18.8658 21.8129 19.0365 22.0662 19.2846 22.1851C18.8762 22.6039 19.0261 23.5294 19.5328 23.8189C19.4294 23.9171 19.3777 24.186 19.3156 24.3152C19.2743 24.4031 19.2588 24.5014 19.2433 24.5944C19.2071 24.8064 19.1709 25.0236 19.2329 25.2252C19.295 25.4268 19.4966 25.6026 19.7086 25.5664C19.3622 25.98 19.5276 26.9572 19.9567 27.2777C19.812 27.619 20.117 28.2342 20.3807 28.4927C20.6444 28.7512 21.0735 28.8184 21.4044 28.6633C21.332 28.9529 21.3475 29.3096 21.4251 29.5991C21.5026 29.8887 21.7766 30.1523 22.0765 30.111C22.0351 30.385 22.1437 30.7159 22.2833 30.9537C22.4229 31.1915 22.7435 31.3415 22.9916 31.2122C22.883 31.4656 23.002 31.8688 23.1622 32.0963C23.3225 32.3238 23.5965 32.4582 23.8705 32.4479C23.8395 32.8615 24.1549 33.3372 24.5427 33.4768C24.8736 33.6008 25.2458 33.5336 25.5922 33.4664C25.8042 33.4251 26.0162 33.3837 26.2333 33.3423L33.0734 32.5151L39.9135 33.3423C40.1255 33.3837 40.3375 33.4251 40.5546 33.4664C40.901 33.5336 41.2733 33.6008 41.6042 33.4768C41.9919 33.332 42.3073 32.8615 42.2763 32.4479C42.5503 32.4582 42.8295 32.3238 42.9846 32.0963C43.1397 31.8688 43.2586 31.4707 43.1552 31.2122C43.4034 31.3415 43.7239 31.1915 43.8635 30.9537C44.0031 30.7159 44.1117 30.385 44.0703 30.111C44.3702 30.1523 44.6442 29.8938 44.7218 29.5991C44.7993 29.3096 44.82 28.958 44.7425 28.6633C45.0785 28.8184 45.5025 28.7512 45.7661 28.4927C46.0298 28.2342 46.3349 27.619 46.1901 27.2777C46.6192 26.952 46.7847 25.9749 46.4383 25.5664C46.6502 25.6026 46.8467 25.4268 46.9139 25.2252C46.976 25.0236 46.9398 24.8012 46.9036 24.5944C46.8881 24.5014 46.8674 24.4031 46.8312 24.3152C46.7743 24.186 46.7174 23.9171 46.614 23.8189C47.1207 23.5294 47.2707 22.6039 46.8622 22.1851H46.8519Z" fill="#051733"/>
<path d="M45.6932 25.2096C45.6312 24.796 45.4761 24.3773 45.1607 24.1032C44.8764 23.8551 44.4886 23.7568 44.1112 23.7723C43.7338 23.7879 43.3718 23.9119 43.0306 24.0774C43.0306 24.0774 42.9996 14.5436 39.6183 14.4351C37.4003 14.3265 36.418 14.9883 33.0626 14.9883C29.7071 14.9883 28.7196 14.3213 26.5068 14.4351C23.1255 14.5436 23.0945 24.0774 23.0945 24.0774C22.7533 23.9119 22.3914 23.7879 22.0139 23.7723C21.6365 23.7568 21.2488 23.8602 20.9644 24.1032C20.649 24.3773 20.4991 24.796 20.4319 25.2096C20.3078 26.0369 20.5043 26.9106 20.9747 27.6034C21.4452 28.2962 22.1432 28.8184 22.9601 29.0045C24.4026 39.0863 33.0626 39.0863 33.0626 39.0863C33.0626 39.0863 41.7277 39.0863 43.165 29.0045C43.9819 28.8184 44.6747 28.2962 45.1504 27.6034C45.626 26.9106 45.8173 26.0369 45.6932 25.2096Z" fill="#86201B"/>
<path d="M51.8458 61.53C51.122 62.0056 50.3775 62.4554 49.6123 62.8742L51.0496 55.0259L51.8458 61.53Z" fill="#FF863B"/>
<path d="M16.4147 62.321C15.7064 61.9022 15.0188 61.4576 14.3467 60.9871L15.0757 55.0259L16.4147 62.321Z" fill="#FF863B"/>
<path d="M32.5762 25.2045V31.1192H33.5792C35.2957 31.1192 32.8967 25.8818 32.5762 25.2045Z" fill="#611714"/>
<path d="M39.866 21.3631C38.4804 20.6806 36.9397 20.5772 35.4972 21.1511C34.8871 21.3941 35.1508 22.3971 35.7712 22.1489C36.9552 21.6785 38.196 21.6888 39.3438 22.2575C39.9383 22.5522 40.4657 21.6578 39.866 21.3631Z" fill="#051733"/>
<path d="M38.6203 25.2045C38.6203 25.7422 38.186 26.1817 37.6432 26.1817C37.1003 26.1817 36.666 25.7474 36.666 25.2045C36.666 24.6616 37.1003 24.2274 37.6432 24.2274C38.186 24.2274 38.6203 24.6616 38.6203 25.2045Z" fill="#051733"/>
<path d="M26.2585 21.3631C27.6441 20.6806 29.1848 20.5772 30.6273 21.1511C31.2374 21.3941 30.9737 22.3971 30.3533 22.1489C29.1693 21.6785 27.9285 21.6888 26.7807 22.2575C26.1862 22.5522 25.6588 21.6578 26.2585 21.3631Z" fill="#051733"/>
<path d="M27.5049 25.2045C27.5049 25.7422 27.9392 26.1817 28.482 26.1817C29.0249 26.1817 29.4592 25.7474 29.4592 25.2045C29.4592 24.6616 29.0249 24.2274 28.482 24.2274C27.9392 24.2274 27.5049 24.6616 27.5049 25.2045Z" fill="#051733"/>
<path d="M29.8828 32.4324C30.224 33.7146 31.5166 34.671 33.0625 34.671C34.6083 34.671 35.8957 33.7146 36.2421 32.4324H29.888H29.8828Z" fill="white"/>
</g>
<defs>
<clipPath id="clip0_325_1510">
<rect width="67" height="67" fill="white"/>
</clipPath>
</defs>
</svg>
