<svg width="90" height="16" viewBox="0 0 90 16" fill="none" xmlns="http://www.w3.org/2000/svg">
<g clip-path="url(#clip0_325_720)">
<mask id="mask0_325_720" style="mask-type:luminance" maskUnits="userSpaceOnUse" x="0" y="0" width="90" height="16">
<path d="M90 0H0V16H90V0Z" fill="white"/>
</mask>
<g mask="url(#mask0_325_720)">
<mask id="mask1_325_720" style="mask-type:luminance" maskUnits="userSpaceOnUse" x="0" y="0" width="15" height="16">
<path d="M14.8846 0.569824H0.472656V15.4301H14.8846V0.569824Z" fill="white"/>
</mask>
<g mask="url(#mask1_325_720)">
<path d="M7.22057 13.2491C7.50243 13.0737 7.8553 13.0737 8.13717 13.2491L11.0361 15.0533C11.7078 15.4713 12.5364 14.8503 12.3581 14.0626L11.5887 10.6626C11.5139 10.332 11.6228 9.98593 11.8717 9.76361L14.4341 7.47477C15.0271 6.9451 14.7101 5.94073 13.9284 5.87237L10.5565 5.5775C10.2287 5.54884 9.9433 5.33546 9.81497 5.02317L8.49546 1.81322C8.18985 1.06975 7.16792 1.06974 6.8623 1.81322L5.54281 5.02317C5.41444 5.33546 5.12897 5.54884 4.80119 5.5775L1.42938 5.87237C0.647639 5.94073 0.33064 6.9451 0.92363 7.47477L3.48605 9.76361C3.7349 9.98593 3.84386 10.332 3.76904 10.6626L2.99967 14.0626C2.8214 14.8503 3.64998 15.4713 4.32165 15.0533L7.22057 13.2491Z" fill="#FFCA64"/>
</g>
<mask id="mask2_325_720" style="mask-type:luminance" maskUnits="userSpaceOnUse" x="19" y="0" width="15" height="16">
<path d="M33.5448 0.569839H19.1328V15.4302H33.5448V0.569839Z" fill="white"/>
</mask>
<g mask="url(#mask2_325_720)">
<path d="M25.8807 13.2491C26.1626 13.0737 26.5154 13.0737 26.7973 13.2491L29.6962 15.0533C30.3679 15.4713 31.1965 14.8503 31.0182 14.0626L30.2489 10.6626C30.174 10.332 30.283 9.98593 30.5318 9.76361L33.0943 7.47479C33.6873 6.94511 33.3703 5.94075 32.5885 5.87238L29.2167 5.57752C28.889 5.54886 28.6034 5.33548 28.4751 5.02318L27.1556 1.81324C26.85 1.06976 25.8281 1.06976 25.5225 1.81324L24.203 5.02318C24.0746 5.33548 23.7891 5.54886 23.4613 5.57752L20.0895 5.87238C19.3078 5.94075 18.9908 6.94511 19.5838 7.47479L22.1462 9.76361C22.3951 9.98593 22.504 10.332 22.4292 10.6626L21.6598 14.0626C21.4816 14.8503 22.3101 15.4713 22.9818 15.0533L25.8807 13.2491Z" fill="#FFCA64"/>
</g>
<mask id="mask3_325_720" style="mask-type:luminance" maskUnits="userSpaceOnUse" x="37" y="0" width="16" height="16">
<path d="M52.2059 0.569839H37.7939V15.4302H52.2059V0.569839Z" fill="white"/>
</mask>
<g mask="url(#mask3_325_720)">
<path d="M44.5418 13.2491C44.8237 13.0737 45.1766 13.0737 45.4584 13.2491L48.3574 15.0533C49.029 15.4713 49.8577 14.8503 49.6794 14.0626L48.91 10.6626C48.8351 10.332 48.9442 9.98593 49.193 9.76361L51.7554 7.47479C52.3484 6.94511 52.0314 5.94075 51.2496 5.87238L47.8778 5.57752C47.5501 5.54886 47.2646 5.33548 47.1362 5.02318L45.8167 1.81324C45.5111 1.06976 44.4892 1.06976 44.1836 1.81324L42.8641 5.02318C42.7357 5.33548 42.4503 5.54886 42.1225 5.57752L38.7506 5.87238C37.9689 5.94075 37.6519 6.94511 38.2449 7.47479L40.8074 9.76361C41.0562 9.98593 41.1651 10.332 41.0903 10.6626L40.3209 14.0626C40.1427 14.8503 40.9712 15.4713 41.6429 15.0533L44.5418 13.2491Z" fill="#FFCA64"/>
</g>
<mask id="mask4_325_720" style="mask-type:luminance" maskUnits="userSpaceOnUse" x="56" y="0" width="15" height="16">
<path d="M70.866 0.569839H56.4541V15.4302H70.866V0.569839Z" fill="white"/>
</mask>
<g mask="url(#mask4_325_720)">
<path d="M63.2021 13.2491C63.4838 13.0737 63.8368 13.0737 64.1186 13.2491L67.0175 15.0533C67.6892 15.4713 68.5178 14.8503 68.3395 14.0626L67.5702 10.6626C67.4953 10.332 67.6043 9.98593 67.8531 9.76361L70.4156 7.47479C71.0085 6.94511 70.6915 5.94075 69.9098 5.87238L66.538 5.57752C66.2102 5.54886 65.9248 5.33548 65.7964 5.02318L64.4769 1.81324C64.1713 1.06976 63.1494 1.06976 62.8438 1.81324L61.5243 5.02318C61.3958 5.33548 61.1104 5.54886 60.7826 5.57752L57.4108 5.87238C56.6291 5.94075 56.3121 6.94511 56.9051 7.47479L59.4675 9.76361C59.7163 9.98593 59.8253 10.332 59.7505 10.6626L58.9811 14.0626C58.8028 14.8503 59.6314 15.4713 60.3031 15.0533L63.2021 13.2491Z" fill="#FFCA64"/>
</g>
<mask id="mask5_325_720" style="mask-type:luminance" maskUnits="userSpaceOnUse" x="75" y="0" width="15" height="16">
<path d="M89.5272 0.569839H75.1152V15.4302H89.5272V0.569839Z" fill="white"/>
</mask>
<g mask="url(#mask5_325_720)">
<path d="M81.8631 13.2491C82.1447 13.0737 82.4978 13.0737 82.7794 13.2491L85.6788 15.0533C86.3507 15.4713 87.1785 14.8503 87.0009 14.0626L86.2312 10.6626C86.1567 10.332 86.2653 9.98593 86.5144 9.76361L89.0763 7.47479C89.6698 6.94511 89.3525 5.94075 88.5712 5.87238L85.1993 5.57752C84.8711 5.54886 84.5856 5.33548 84.4576 5.02318L83.1378 1.81324C82.8321 1.06976 81.8103 1.06976 81.5047 1.81324L80.1857 5.02318C80.0569 5.33548 79.7714 5.54886 79.444 5.57752L76.072 5.87238C75.2902 5.94075 74.9732 6.94511 75.5662 7.47479L78.1289 9.76361C78.3771 9.98593 78.4865 10.332 78.4113 10.6626L77.6424 14.0626C77.464 14.8503 78.2926 15.4713 78.9645 15.0533L81.8631 13.2491Z" fill="#CCCCCC"/>
</g>
</g>
</g>
<defs>
<clipPath id="clip0_325_720">
<rect width="90" height="16" fill="white"/>
</clipPath>
</defs>
</svg>
