<svg width="55" height="55" viewBox="0 0 55 55" fill="none" xmlns="http://www.w3.org/2000/svg">
<circle cx="27.2361" cy="27.2361" r="27.2361" fill="#C96B99"/>
<g clip-path="url(#clip0_251_76)">
<path d="M30.75 19.5V21.375H36.9243L28.875 29.4243L24.8503 25.3997C24.7633 25.3126 24.66 25.2435 24.5462 25.1964C24.4325 25.1492 24.3106 25.125 24.1875 25.125C24.0644 25.125 23.9425 25.1492 23.8288 25.1964C23.715 25.2435 23.6117 25.3126 23.5247 25.3997L13.875 35.0493L15.2007 36.375L24.1875 27.3882L28.2122 31.4128C28.2992 31.4999 28.4025 31.569 28.5163 31.6161C28.63 31.6633 28.7519 31.6875 28.875 31.6875C28.9981 31.6875 29.12 31.6633 29.2337 31.6161C29.3475 31.569 29.4508 31.4999 29.5378 31.4128L38.25 22.7007V28.875H40.125V19.5H30.75Z" fill="white"/>
</g>
<defs>
<clipPath id="clip0_251_76">
<rect width="30" height="30" fill="white" transform="translate(12 12)"/>
</clipPath>
</defs>
</svg>
