<svg width="55" height="55" viewBox="0 0 55 55" fill="none" xmlns="http://www.w3.org/2000/svg">
<circle cx="27.2361" cy="27.2361" r="27.2361" fill="#2B58D6"/>
<path d="M35.125 23.25H32.625M32.625 23.25H30.125M32.625 23.25V20.75M32.625 23.25V25.75" stroke="white" stroke-width="2" stroke-linecap="round"/>
<path d="M27 18.9677L26.3153 19.608C26.4925 19.7976 26.7404 19.9052 27 19.9052C27.2596 19.9052 27.5075 19.7976 27.6847 19.608L27 18.9677ZM15.3145 29.1027C15.5824 29.5458 16.1588 29.6876 16.6019 29.4198C17.0449 29.1518 17.1868 28.5754 16.9189 28.1324L15.3145 29.1027ZM20.1717 32.2134C19.8105 31.8424 19.2169 31.8345 18.846 32.1958C18.475 32.5569 18.4671 33.1505 18.8283 33.5214L20.1717 32.2134ZM15.4375 23.6469C15.4375 20.0161 17.0221 17.7717 18.9825 17.004C20.9387 16.2381 23.6755 16.7848 26.3153 19.608L27.6847 18.3274C24.6997 15.1348 21.1866 14.1274 18.2989 15.2581C15.4155 16.3871 13.5625 19.4901 13.5625 23.6469H15.4375ZM31.3886 36.9513C33.2541 35.4374 35.4893 33.4085 37.2659 31.1425C39.0245 28.8995 40.4375 26.2943 40.4375 23.6469H38.5625C38.5625 25.6611 37.4634 27.8518 35.7904 29.9855C34.1355 32.0963 32.0195 34.0247 30.2071 35.4954L31.3886 36.9513ZM40.4375 23.6469C40.4375 19.4901 38.5845 16.3871 35.7011 15.2581C32.8135 14.1274 29.3003 15.1348 26.3153 18.3274L27.6847 19.608C30.3245 16.7848 33.0614 16.2381 35.0175 17.004C36.9779 17.7717 38.5625 20.0161 38.5625 23.6469H40.4375ZM22.6114 36.9513C24.2007 38.241 25.3029 39.1875 27 39.1875V37.3125C26.0964 37.3125 25.5336 36.9079 23.7929 35.4954L22.6114 36.9513ZM30.2071 35.4954C28.4664 36.9079 27.9036 37.3125 27 37.3125V39.1875C28.6971 39.1875 29.7992 38.241 31.3886 36.9513L30.2071 35.4954ZM16.9189 28.1324C15.9851 26.5885 15.4375 25.0688 15.4375 23.6469H13.5625C13.5625 25.5372 14.2831 27.3974 15.3145 29.1027L16.9189 28.1324ZM23.7929 35.4954C22.6466 34.5652 21.3737 33.4478 20.1717 32.2134L18.8283 33.5214C20.0943 34.8215 21.4249 35.9885 22.6114 36.9513L23.7929 35.4954Z" fill="white"/>
</svg>
