<svg width="60" height="60" viewBox="0 0 60 60" fill="none" xmlns="http://www.w3.org/2000/svg">
<circle cx="30" cy="30" r="30" fill="#151F2D"/>
<g clip-path="url(#clip0_251_260)">
<mask id="mask0_251_260" style="mask-type:luminance" maskUnits="userSpaceOnUse" x="15" y="14" width="30" height="31">
<path d="M45 14.975H15V44.975H45V14.975Z" fill="white"/>
</mask>
<g mask="url(#mask0_251_260)">
<path d="M27.7624 31.6375C27.5149 31.6321 27.2784 31.534 27.0999 31.3625L25.3499 29.6125C25.1743 29.4367 25.0757 29.1985 25.0757 28.95C25.0757 28.7016 25.1743 28.4633 25.3499 28.2875L27.2374 26.4C27.4131 26.2245 27.6514 26.1259 27.8999 26.1259C28.1483 26.1259 28.3866 26.2245 28.5624 26.4C28.6508 26.4862 28.7211 26.5892 28.7691 26.703C28.8171 26.8168 28.8418 26.939 28.8418 27.0625C28.8418 27.186 28.8171 27.3083 28.7691 27.422C28.7211 27.5358 28.6508 27.6388 28.5624 27.725L27.3124 28.975L28.3999 30.05C28.5732 30.2295 28.6701 30.4693 28.6701 30.7188C28.6701 30.9683 28.5732 31.2081 28.3999 31.3875C28.224 31.5442 27.9979 31.6329 27.7624 31.6375Z" fill="white"/>
<path d="M32.2373 31.6375C31.9898 31.6321 31.7533 31.534 31.5748 31.3625C31.4014 31.183 31.3045 30.9433 31.3045 30.6938C31.3045 30.4442 31.4014 30.2045 31.5748 30.025L32.6623 28.95L31.4123 27.7C31.3238 27.6138 31.2535 27.5108 31.2055 27.397C31.1575 27.2832 31.1328 27.161 31.1328 27.0375C31.1328 26.914 31.1575 26.7918 31.2055 26.678C31.2535 26.5642 31.3238 26.4612 31.4123 26.375C31.5881 26.1994 31.8263 26.1008 32.0748 26.1008C32.3232 26.1008 32.5615 26.1994 32.7373 26.375L34.6248 28.2625C34.8003 28.4383 34.8989 28.6766 34.8989 28.925C34.8989 29.1734 34.8003 29.4117 34.6248 29.5875L32.8748 31.3375C32.7064 31.5125 32.4794 31.6193 32.2373 31.6375Z" fill="white"/>
<path d="M33.75 43.4375H26.25C25.0068 43.4375 23.8145 42.9436 22.9354 42.0646C22.0564 41.1855 21.5625 39.9932 21.5625 38.75V21.25C21.5625 20.0068 22.0564 18.8145 22.9354 17.9354C23.8145 17.0564 25.0068 16.5625 26.25 16.5625H33.75C34.9932 16.5625 36.1855 17.0564 37.0646 17.9354C37.9436 18.8145 38.4375 20.0068 38.4375 21.25V38.75C38.4375 39.9932 37.9436 41.1855 37.0646 42.0646C36.1855 42.9436 34.9932 43.4375 33.75 43.4375ZM26.25 18.4375C25.5041 18.4375 24.7887 18.7338 24.2613 19.2613C23.7338 19.7887 23.4375 20.5041 23.4375 21.25V38.75C23.4375 39.4959 23.7338 40.2113 24.2613 40.7387C24.7887 41.2662 25.5041 41.5625 26.25 41.5625H33.75C34.4959 41.5625 35.2113 41.2662 35.7387 40.7387C36.2662 40.2113 36.5625 39.4959 36.5625 38.75V21.25C36.5625 20.5041 36.2662 19.7887 35.7387 19.2613C35.2113 18.7338 34.4959 18.4375 33.75 18.4375H26.25Z" fill="white"/>
<path d="M30.0002 39.6875C29.8149 39.6873 29.6338 39.6323 29.4797 39.5292C29.3257 39.4262 29.2057 39.2799 29.1348 39.1087C29.0639 38.9375 29.0453 38.7491 29.0814 38.5673C29.1176 38.3856 29.2067 38.2186 29.3377 38.0875C29.4466 37.9784 29.5809 37.8978 29.7284 37.853C29.876 37.8082 30.0324 37.8004 30.1836 37.8305C30.3349 37.8605 30.4764 37.9274 30.5957 38.0253C30.7149 38.1231 30.8082 38.2488 30.8672 38.3913C30.9262 38.5338 30.9491 38.6887 30.9339 38.8422C30.9188 38.9957 30.866 39.143 30.7802 39.2712C30.6945 39.3994 30.5784 39.5045 30.4423 39.5771C30.3063 39.6497 30.1544 39.6876 30.0002 39.6875Z" fill="white"/>
</g>
</g>
<defs>
<clipPath id="clip0_251_260">
<rect width="30" height="30" fill="white" transform="translate(15 15)"/>
</clipPath>
</defs>
</svg>
