<svg width="60" height="60" viewBox="0 0 60 60" fill="none" xmlns="http://www.w3.org/2000/svg">
<circle cx="30" cy="30" r="30" fill="#151F2D"/>
<g clip-path="url(#clip0_251_286)">
<path d="M19.0121 41.6254C19.1779 41.6254 19.3121 41.4911 19.3121 41.3254V32.8933C19.3121 32.7275 19.1779 32.5933 19.0121 32.5933H16.6121C16.5727 32.5933 16.5337 32.601 16.4973 32.6161C16.4609 32.6312 16.4278 32.6533 16.4 32.6811C16.3721 32.709 16.35 32.7421 16.3349 32.7785C16.3199 32.8149 16.3121 32.8539 16.3121 32.8933V41.3254C16.3121 41.4911 16.4464 41.6254 16.6121 41.6254H19.0121ZM19.0121 42.8254H16.6121C15.7837 42.8254 15.1121 42.1538 15.1121 41.3254V32.8933C15.1121 32.0648 15.7837 31.3933 16.6121 31.3933H19.0121C19.8406 31.3933 20.5121 32.0648 20.5121 32.8933V41.3254C20.5121 42.1538 19.8406 42.8254 19.0121 42.8254ZM27.1688 41.6254C27.3345 41.6254 27.4688 41.4911 27.4688 41.3254V31.1521C27.4688 30.9863 27.3345 30.8521 27.1688 30.8521H24.7688C24.7294 30.8521 24.6904 30.8598 24.654 30.8749C24.6176 30.89 24.5845 30.9121 24.5566 30.9399C24.5288 30.9678 24.5067 31.0008 24.4916 31.0373C24.4765 31.0737 24.4688 31.1127 24.4688 31.1521V41.3254C24.4688 41.4911 24.603 41.6254 24.7688 41.6254H27.1688ZM27.1688 42.8254H24.7688C23.9403 42.8254 23.2688 42.1538 23.2688 41.3254V31.1521C23.2688 30.3236 23.9403 29.6521 24.7688 29.6521H27.1688C27.9972 29.6521 28.6688 30.3236 28.6688 31.1521V41.3254C28.6688 42.1538 27.9972 42.8254 27.1688 42.8254ZM35.3254 41.6435C35.4912 41.6435 35.6254 41.5092 35.6254 41.3435V29.4287C35.6254 29.2631 35.491 29.1287 35.3254 29.1287H32.9254C32.7599 29.1287 32.6254 29.2631 32.6254 29.4287V41.3435C32.6254 41.5092 32.7597 41.6435 32.9254 41.6435H35.3254ZM35.3254 42.8435H32.9254C32.097 42.8435 31.4254 42.1719 31.4254 41.3435V29.4287C31.4254 28.6004 32.097 27.9287 32.9254 27.9287H35.3254C36.1538 27.9287 36.8254 28.6004 36.8254 29.4287V41.3435C36.8254 42.1719 36.1539 42.8435 35.3254 42.8435ZM43.4821 41.6435C43.6478 41.6435 43.7821 41.5093 43.7821 41.3435V27.9287C43.7821 27.763 43.6478 27.6287 43.4821 27.6287H41.0821C41.0427 27.6287 41.0037 27.6365 40.9673 27.6516C40.9309 27.6666 40.8978 27.6887 40.87 27.7166C40.8421 27.7444 40.82 27.7775 40.8049 27.8139C40.7898 27.8503 40.7821 27.8893 40.7821 27.9287V41.3435C40.7821 41.5093 40.9164 41.6435 41.0821 41.6435H43.4821ZM43.4821 42.8435H41.0821C40.2536 42.8435 39.5821 42.172 39.5821 41.3435V27.9287C39.5821 27.1003 40.2536 26.4287 41.0821 26.4287H43.4821C44.3106 26.4287 44.9821 27.1003 44.9821 27.9287V41.3435C44.9821 42.172 44.3106 42.8435 43.4821 42.8435ZM43.3003 18.1784C34.8451 22.9421 25.4082 25.7523 15.5638 26.3478C15.233 26.3678 14.9811 26.6522 15.0011 26.9829C15.0211 27.3137 15.3055 27.5656 15.6362 27.5456C25.6633 26.9391 35.2766 24.0763 43.8893 19.2239C44.178 19.0613 44.2802 18.6954 44.1175 18.4067C43.9549 18.1179 43.589 18.0158 43.3003 18.1784Z" fill="white"/>
<path d="M41.4028 18.3L44.4025 18.3045C44.7339 18.305 45.0029 18.0368 45.0034 17.7054C45.0039 17.374 44.7357 17.105 44.4043 17.1045L41.4046 17.1C41.0732 17.0995 40.8042 17.3677 40.8037 17.6991C40.8032 18.0304 41.0714 18.2995 41.4028 18.3Z" fill="white"/>
<path d="M43.8034 17.7027L43.7944 20.6859C43.7934 21.0173 44.0612 21.2867 44.3926 21.2877C44.724 21.2887 44.9934 21.0209 44.9944 20.6895L45.0034 17.7063C45.0044 17.3749 44.7366 17.1055 44.4052 17.1045C44.0739 17.1035 43.8044 17.3713 43.8034 17.7027Z" fill="white"/>
</g>
<defs>
<clipPath id="clip0_251_286">
<rect width="30" height="30" fill="white" transform="translate(15 15)"/>
</clipPath>
</defs>
</svg>
