<svg width="55" height="55" viewBox="0 0 55 55" fill="none" xmlns="http://www.w3.org/2000/svg">
<circle cx="27.2361" cy="27.2361" r="27.2361" fill="#FFA200"/>
<path d="M40.75 27C40.75 34.5939 34.5939 40.75 27 40.75C19.4061 40.75 13.25 34.5939 13.25 27C13.25 19.4061 19.4061 13.25 27 13.25C34.5939 13.25 40.75 19.4061 40.75 27ZM15.7585 27C15.7585 33.2085 20.7915 38.2415 27 38.2415C33.2085 38.2415 38.2415 33.2085 38.2415 27C38.2415 20.7915 33.2085 15.7585 27 15.7585C20.7915 15.7585 15.7585 20.7915 15.7585 27Z" fill="white"/>
<path d="M27 18.25C26.3096 18.25 25.75 18.8096 25.75 19.5V27.5834C25.75 27.5834 25.75 27.9093 25.9084 28.1544C26.0144 28.3623 26.1796 28.5429 26.3967 28.6683L32.1715 32.0024C32.7694 32.3475 33.5339 32.1426 33.879 31.5448C34.2241 30.9469 34.0194 30.1824 33.4215 29.8372L28.25 26.8515V19.5C28.25 18.8097 27.6904 18.25 27 18.25Z" fill="white"/>
</svg>
