<svg width="31" height="40" viewBox="0 0 31 40" fill="none" xmlns="http://www.w3.org/2000/svg">
<path d="M15.2328 17.1232C19.409 17.1232 22.7944 13.7377 22.7944 9.56159C22.7944 5.38544 19.409 2 15.2328 2C11.0566 2 7.6712 5.38544 7.6712 9.56159C7.6712 13.7377 11.0566 17.1232 15.2328 17.1232Z" stroke="#151F2D" stroke-width="3.75"/>
<path d="M20.904 37.1899C19.185 37.6565 17.2623 37.9176 15.2328 37.9176C7.92453 37.9176 2 34.532 2 30.356C2 26.1799 7.92453 22.7944 15.2328 22.7944C22.5411 22.7944 28.4656 26.1799 28.4656 30.356C28.4656 31.0087 28.3208 31.6422 28.0487 32.2464" stroke="#151F2D" stroke-width="3.75" stroke-linecap="round"/>
</svg>
