<svg width="37" height="32" viewBox="0 0 37 32" fill="none" xmlns="http://www.w3.org/2000/svg">
<g id="Group 23">
<path id="Vector" d="M2 30.485H35" stroke="#151F2D" stroke-width="3" stroke-miterlimit="10" stroke-linecap="round" stroke-linejoin="round"/>
<path id="Vector_2" d="M30.17 30.5001V23.81" stroke="#151F2D" stroke-width="3" stroke-miterlimit="10" stroke-linecap="round" stroke-linejoin="round"/>
<path id="Vector_3" d="M30.2001 13.8201C28.3701 13.8201 26.9001 15.2901 26.9001 17.1201V20.5251C26.9001 22.3551 28.3701 23.8251 30.2001 23.8251C32.0301 23.8251 33.5001 22.3551 33.5001 20.5251V17.1201C33.5001 15.2901 32.0301 13.8201 30.2001 13.8201Z" stroke="#151F2D" stroke-width="3" stroke-miterlimit="10" stroke-linecap="round" stroke-linejoin="round"/>
<path id="Vector_4" d="M3.65015 30.485V6.53003C3.65015 3.51503 5.15022 2 8.13522 2H17.4801C20.4651 2 21.9501 3.51503 21.9501 6.53003V30.485" stroke="#151F2D" stroke-width="3" stroke-miterlimit="10" stroke-linecap="round" stroke-linejoin="round"/>
<path id="Vector_5" d="M9.20007 9.85999H16.6251" stroke="#151F2D" stroke-width="3" stroke-miterlimit="10" stroke-linecap="round" stroke-linejoin="round"/>
<path id="Vector_6" d="M9.20007 15.485H16.6251" stroke="#151F2D" stroke-width="3" stroke-miterlimit="10" stroke-linecap="round" stroke-linejoin="round"/>
<path id="Vector_7" d="M12.875 30.485V24.86" stroke="#151F2D" stroke-width="3" stroke-miterlimit="10" stroke-linecap="round" stroke-linejoin="round"/>
</g>
</svg>
