<svg width="60" height="60" viewBox="0 0 60 60" fill="none" xmlns="http://www.w3.org/2000/svg">
<path d="M51.25 7.5H8.75C8.08696 7.5 7.45107 7.76339 6.98223 8.23223C6.51339 8.70107 6.25 9.33696 6.25 10V40C6.25 40.663 6.51339 41.2989 6.98223 41.7678C7.45107 42.2366 8.08696 42.5 8.75 42.5H51.25C51.913 42.5 52.5489 42.2366 53.0178 41.7678C53.4866 41.2989 53.75 40.663 53.75 40V10C53.75 9.33696 53.4866 8.70107 53.0178 8.23223C52.5489 7.76339 51.913 7.5 51.25 7.5ZM26.75 30.75C27.0217 30.9905 27.2347 31.2901 27.3727 31.6258C27.5106 31.9615 27.5697 32.3243 27.5456 32.6864C27.5214 33.0485 27.4147 33.4002 27.2334 33.7146C27.0521 34.029 26.8013 34.2977 26.5 34.5C25.9936 34.8739 25.3647 35.043 24.7391 34.9734C24.1134 34.9039 23.537 34.6009 23.125 34.125L15.75 26.75C15.5075 26.5275 15.3139 26.2571 15.1815 25.9558C15.049 25.6546 14.9807 25.3291 14.9807 25C14.9807 24.6709 15.049 24.3454 15.1815 24.0442C15.3139 23.7429 15.5075 23.4725 15.75 23.25L23.125 15.75C23.5749 15.3372 24.1444 15.0784 24.7512 15.011C25.358 14.9436 25.9705 15.0711 26.5 15.375C26.8034 15.5903 27.055 15.8706 27.2363 16.1955C27.4177 16.5204 27.5242 16.8817 27.5481 17.2529C27.5721 17.6242 27.5129 17.9962 27.3748 18.3417C27.2367 18.6872 27.0233 18.9975 26.75 19.25L21 25L26.75 30.75ZM44.25 26.75L36.875 34.125C36.463 34.6009 35.8866 34.9039 35.2609 34.9734C34.6353 35.043 34.0064 34.8739 33.5 34.5C33.1987 34.2977 32.9479 34.029 32.7666 33.7146C32.5853 33.4002 32.4786 33.0485 32.4544 32.6864C32.4303 32.3243 32.4894 31.9615 32.6273 31.6258C32.7653 31.2901 32.9783 30.9905 33.25 30.75L39 25L33.25 19.25C32.9767 18.9975 32.7633 18.6872 32.6252 18.3417C32.4871 17.9962 32.4279 17.6242 32.4519 17.2529C32.4758 16.8817 32.5823 16.5204 32.7637 16.1955C32.945 15.8706 33.1966 15.5903 33.5 15.375C34.0295 15.0711 34.642 14.9436 35.2488 15.011C35.8556 15.0784 36.4251 15.3372 36.875 15.75L44.25 23.25C44.4925 23.4725 44.6861 23.7429 44.8185 24.0442C44.951 24.3454 45.0193 24.6709 45.0193 25C45.0193 25.3291 44.951 25.6546 44.8185 25.9558C44.6861 26.2571 44.4925 26.5275 44.25 26.75Z" fill="#26D287"/>
<path d="M55 47.5H5C4.33696 47.5 3.70107 47.7634 3.23223 48.2322C2.76339 48.7011 2.5 49.337 2.5 50C2.5 50.663 2.76339 51.2989 3.23223 51.7678C3.70107 52.2366 4.33696 52.5 5 52.5H55C55.663 52.5 56.2989 52.2366 56.7678 51.7678C57.2366 51.2989 57.5 50.663 57.5 50C57.5 49.337 57.2366 48.7011 56.7678 48.2322C56.2989 47.7634 55.663 47.5 55 47.5Z" fill="#26D287"/>
</svg>
