<svg width="70" height="70" viewBox="0 0 70 70" fill="none" xmlns="http://www.w3.org/2000/svg">
<circle cx="35" cy="35" r="35" fill="#2B58D6"/>
<path d="M48 38.25C48 44.6139 48 47.796 46.0229 49.7729C44.046 51.75 40.8639 51.75 34.5 51.75C28.136 51.75 24.9541 51.75 22.977 49.7729C21 47.796 21 44.6139 21 38.25V31.5C21 25.136 21 21.9541 22.977 19.977C24.9541 18 28.136 18 34.5 18C40.8639 18 44.046 18 46.0229 19.977C48 21.9541 48 25.136 48 31.5" stroke="white" stroke-width="2" stroke-linecap="round"/>
<path d="M39.5625 46.6875H29.4375" stroke="white" stroke-width="2" stroke-linecap="round"/>
<path d="M37.9278 29.2374L39.0089 30.2104C39.9918 31.095 40.4833 31.5374 40.4833 32.105C40.4833 32.6726 39.9918 33.1149 39.0089 33.9996L37.9278 34.9725" stroke="white" stroke-width="2" stroke-linecap="round"/>
<path d="M36.0077 27.4343L35.3747 29.7968M34.6417 32.5322L33.4756 36.8843" stroke="white" stroke-width="2" stroke-linecap="round"/>
<path d="M31.5555 29.2374L30.4745 30.2104C29.4915 31.095 29 31.5374 29 32.105C29 32.6726 29.4915 33.1149 30.4745 33.9996L31.5555 34.9725" stroke="white" stroke-width="2" stroke-linecap="round"/>
</svg>
