<svg width="70" height="70" viewBox="0 0 70 70" fill="none" xmlns="http://www.w3.org/2000/svg">
<circle cx="35" cy="35" r="35" fill="#FFA200"/>
<path d="M36.5333 17.3906C35.6051 16.8686 34.3949 16.871 33.466 17.3906C28.8132 19.9584 24.1603 22.5269 19.5067 25.0934C18.6011 25.5698 17.9904 26.5422 18.0001 27.5515V43.066C17.9936 44.095 18.6358 45.0768 19.5647 45.5467C20.9014 46.2578 22.2 47.0411 23.5609 47.7049C25.1328 48.4774 27.0995 48.6481 28.6907 47.8426C29.9823 47.175 30.5559 45.6901 30.5542 44.3256C30.5647 39.2054 30.5559 34.0851 30.5583 28.9649C30.589 28.7373 30.4181 28.4941 30.1699 28.4996C29.5753 28.4902 28.9799 28.4941 28.3853 28.498C28.1606 28.4768 27.9413 28.6635 27.9583 28.8893C27.9504 33.9765 27.9599 39.0652 27.9535 44.1532C27.9665 44.857 27.491 45.5333 26.8127 45.7711C25.2462 46.3202 20.7749 43.417 20.7749 43.417C20.6108 43.341 20.5066 43.163 20.5227 42.9862C20.5227 37.8676 20.5235 32.7489 20.5227 27.6312C20.5001 27.4248 20.6273 27.239 20.8168 27.1547C25.4543 24.6021 30.0894 22.0432 34.7268 19.489C34.8879 19.3815 35.1125 19.3818 35.2732 19.4898C39.9107 22.0432 44.5466 24.5998 49.1848 27.1525C49.375 27.2366 49.4967 27.4256 49.4774 27.6312C49.4766 32.7489 49.4789 37.8676 49.4758 42.9856C49.4895 43.1667 49.3959 43.3422 49.2268 43.4217C44.6326 45.9604 39.9861 48.4173 35.4335 51.0298C35.2349 51.1437 35.0098 51.2728 34.7873 51.1473C33.5901 50.4851 32.4074 49.7971 31.2141 49.1285C31.0844 49.0475 30.9192 49.0127 30.7839 49.1034C30.2489 49.3853 29.7457 49.6136 29.1313 49.8568C28.2685 50.1984 28.4064 50.3381 29.1846 50.7915C30.58 51.5812 31.9778 52.3677 33.3732 53.1582C34.2919 53.7315 35.5262 53.7723 36.4744 53.2426C41.128 50.6781 45.7801 48.1105 50.4346 45.546C51.361 45.0736 52.0064 44.0957 51.9999 43.0659V27.5515C52.0089 26.5627 51.4215 25.6076 50.5433 25.1242C45.8743 22.5439 41.2031 19.9693 36.5333 17.3906Z" fill="white"/>
<path d="M43.5548 29.0389C41.7284 28.0618 39.5555 28.0098 37.5258 28.1375C36.0595 28.2824 34.5173 28.687 33.4491 29.7382C32.3534 30.7948 32.1148 32.501 32.6353 33.8804C33.0083 34.8552 33.9471 35.489 34.9179 35.8243C36.1684 36.2658 37.4819 36.4023 38.7957 36.5388C39.9941 36.6633 41.1929 36.7879 42.3447 37.144C42.8152 37.2999 43.3631 37.5384 43.5072 38.0504C43.6403 38.6566 43.4944 39.3613 43.0022 39.7825C41.4387 41.02 37.0896 40.8304 35.5448 39.8564C34.9202 39.4415 34.6511 38.707 34.5417 38.007C34.5295 37.7888 34.3539 37.5888 34.1171 37.6054C33.524 37.5983 32.931 37.5999 32.3379 37.6046C32.1311 37.5872 31.9159 37.7344 31.9046 37.9456C31.7827 41.1517 34.7272 42.5494 37.4897 42.8571C39.068 43.0074 40.6809 42.9988 42.2351 42.6601C43.4034 42.3941 44.5748 41.9043 45.379 41.0045C46.3708 39.9108 46.5658 38.2826 46.121 36.9204C45.781 35.9039 44.8093 35.2519 43.816 34.9165C42.4651 34.4533 40.8642 34.2043 39.6408 34.0878C37.8624 33.9185 35.7492 33.9876 35.2459 32.8191C35.0451 32.2072 35.2159 31.4474 35.7782 31.0711C37.266 30.0619 40.2939 30.196 41.8347 30.9499C42.5421 31.3041 42.9521 32.0317 43.1213 32.7662C43.1527 32.982 43.2978 33.2072 43.5476 33.1978C44.1366 33.2096 44.7256 33.2009 45.3144 33.2017C45.5167 33.2158 45.7383 33.1017 45.7778 32.8945C45.7528 31.3593 44.9688 29.7877 43.5548 29.0389Z" fill="white"/>
</svg>
