<svg width="40" height="41" viewBox="0 0 40 41" fill="none" xmlns="http://www.w3.org/2000/svg">
<path d="M15.2328 17.3385C19.409 17.3385 22.7944 13.9531 22.7944 9.77693C22.7944 5.60077 19.409 2.21533 15.2328 2.21533C11.0566 2.21533 7.6712 5.60077 7.6712 9.77693C7.6712 13.9531 11.0566 17.3385 15.2328 17.3385Z" stroke="#151F2D" stroke-width="3.75"/>
<path d="M32.2464 14.8647L31.2658 15.8887C31.814 16.4137 32.6787 16.4137 33.2269 15.8887L32.2464 14.8647ZM31.2757 20.6673C30.4857 20.0875 29.6151 19.3635 28.9561 18.6015C28.2599 17.7966 27.993 17.1709 27.993 16.7652H25.1574C25.1574 18.2206 25.9914 19.5085 26.8113 20.4564C27.6682 21.4473 28.7285 22.3154 29.5983 22.9536L31.2757 20.6673ZM27.993 16.7652C27.993 15.6763 28.4894 15.2024 28.9229 15.0505C29.396 14.8846 30.2724 14.9375 31.2658 15.8887L33.2269 13.8406C31.6685 12.3484 29.7093 11.77 27.9849 12.3745C26.2207 12.9929 25.1574 14.6911 25.1574 16.7652H27.993ZM34.8944 22.9536C35.7642 22.3154 36.8245 21.4473 37.6815 20.4564C38.5013 19.5085 39.3354 18.2206 39.3354 16.7652H36.4998C36.4998 17.1709 36.2328 17.7968 35.5366 18.6015C34.8776 19.3637 34.0071 20.0875 33.2171 20.6673L34.8944 22.9536ZM39.3354 16.7652C39.3354 14.6911 38.272 12.9929 36.5079 12.3745C34.7835 11.77 32.8243 12.3484 31.2658 13.8406L33.2269 15.8887C34.2203 14.9375 35.0967 14.8846 35.5699 15.0505C36.0034 15.2024 36.4998 15.6763 36.4998 16.7652H39.3354ZM29.5983 22.9536C30.2951 23.4647 31.0774 24.1016 32.2464 24.1016V21.266C32.2002 21.266 32.1717 21.2658 32.0689 21.2116C31.9065 21.1257 31.7035 20.9811 31.2757 20.6673L29.5983 22.9536ZM33.2171 20.6673C32.7893 20.9811 32.5863 21.1257 32.4239 21.2116C32.321 21.2658 32.2925 21.266 32.2464 21.266V24.1016C33.4154 24.1016 34.1976 23.4647 34.8944 22.9536L33.2171 20.6673Z" fill="#151F2D"/>
<path d="M20.904 37.4053C19.185 37.8718 17.2623 38.1329 15.2328 38.1329C7.92453 38.1329 2 34.7474 2 30.5713C2 26.3952 7.92453 23.0097 15.2328 23.0097C22.5411 23.0097 28.4656 26.3952 28.4656 30.5713C28.4656 31.2241 28.3208 31.8575 28.0487 32.4617" stroke="#151F2D" stroke-width="3.75" stroke-linecap="round"/>
</svg>
