<svg width="54" height="54" viewBox="0 0 54 54" fill="none" xmlns="http://www.w3.org/2000/svg">
<path d="M26.6667 0C21.3925 0 16.2368 1.56397 11.8515 4.49414C7.46616 7.42431 4.04823 11.5891 2.02989 16.4618C0.0115542 21.3345 -0.516535 26.6962 0.512405 31.8691C1.54134 37.0419 4.0811 41.7934 7.8105 45.5228C11.5399 49.2522 16.2914 51.792 21.4643 52.8209C26.6371 53.8499 31.9989 53.3218 36.8716 51.3035C41.7443 49.2851 45.909 45.8672 48.8392 41.4819C51.7694 37.0966 53.3333 31.9408 53.3333 26.6667C53.3333 19.5942 50.5238 12.8115 45.5229 7.81049C40.5219 2.80952 33.7391 0 26.6667 0ZM11.4833 19.8167C11.4833 19.1574 11.6788 18.5129 12.0451 17.9648C12.4114 17.4166 12.932 16.9894 13.5411 16.7371C14.1502 16.4848 14.8204 16.4188 15.467 16.5474C16.1136 16.676 16.7075 16.9935 17.1737 17.4596C17.6399 17.9258 17.9573 18.5198 18.086 19.1664C18.2146 19.813 18.1486 20.4832 17.8963 21.0923C17.644 21.7014 17.2167 22.222 16.6686 22.5882C16.1204 22.9545 15.476 23.15 14.8167 23.15C13.9326 23.15 13.0848 22.7988 12.4597 22.1737C11.8345 21.5486 11.4833 20.7007 11.4833 19.8167ZM26.8833 43.6833C23.8258 43.6873 20.8458 42.7214 18.3721 40.9245C15.8983 39.1276 14.0583 36.5923 13.1167 33.6833H40.6333C39.6926 36.5896 37.8551 39.1229 35.3847 40.9196C32.9143 42.7162 29.938 43.6838 26.8833 43.6833ZM38.4333 23.15C37.7741 23.15 37.1296 22.9545 36.5814 22.5882C36.0333 22.222 35.606 21.7014 35.3537 21.0923C35.1015 20.4832 35.0354 19.813 35.1641 19.1664C35.2927 18.5198 35.6101 17.9258 36.0763 17.4596C36.5425 16.9935 37.1364 16.676 37.783 16.5474C38.4296 16.4188 39.0999 16.4848 39.709 16.7371C40.318 16.9894 40.8386 17.4166 41.2049 17.9648C41.5712 18.5129 41.7667 19.1574 41.7667 19.8167C41.7667 20.2558 41.6799 20.6906 41.5114 21.0961C41.3428 21.5016 41.0958 21.8699 40.7845 22.1796C40.4732 22.4893 40.1038 22.7345 39.6974 22.9011C39.2911 23.0676 38.8558 23.1522 38.4167 23.15H38.4333Z" fill="#2B58D6"/>
</svg>
