<svg width="40" height="40" viewBox="0 0 40 40" fill="none" xmlns="http://www.w3.org/2000/svg">
<path d="M36.6328 40H3.33593C1.49404 40 0 38.506 0 36.6641V16.2292C0 14.3873 1.49404 12.8933 3.33593 12.8933H36.6328C38.4747 12.8933 39.9688 14.3873 39.9688 16.2292V36.6641C39.9688 38.506 38.4747 40 36.6328 40Z" fill="#FFA200"/>
<path d="M32.8822 6.48022H6.99744C5.45435 6.48022 4.20114 7.73343 4.20114 9.27652V11.4618H35.6785V9.27652C35.6785 7.72897 34.4252 6.48022 32.8822 6.48022Z" fill="#FFA200"/>
<path d="M29.8941 0H10.1683C8.62525 0 7.37204 1.25321 7.37204 2.7963V4.9816H32.6948V2.7963C32.6904 1.25321 31.4416 0 29.8941 0Z" fill="#FFA200"/>
</svg>
