<svg width="70" height="70" viewBox="0 0 70 70" fill="none" xmlns="http://www.w3.org/2000/svg">
<circle cx="35" cy="35" r="35" fill="#26D287"/>
<path d="M49.9215 53.0394H19.089C17.3835 53.0394 16 51.6559 16 49.9504V31.028C16 29.3224 17.3835 27.939 19.089 27.939H49.9215C51.6271 27.939 53.0105 29.3224 53.0105 31.028V49.9504C53.0105 51.6559 51.6271 53.0394 49.9215 53.0394Z" fill="white"/>
<path d="M46.4484 22.0005H22.4795C21.0506 22.0005 19.8902 23.1609 19.8902 24.5898V26.6134H49.0377V24.5898C49.0377 23.1568 47.8773 22.0005 46.4484 22.0005Z" fill="white"/>
<path d="M43.6815 16H25.4157C23.9869 16 22.8264 17.1605 22.8264 18.5893V20.6129H46.2749V18.5893C46.2708 17.1605 45.1145 16 43.6815 16Z" fill="white"/>
</svg>
