<svg width="146" height="43" viewBox="0 0 146 43" fill="none" xmlns="http://www.w3.org/2000/svg">
<path d="M23.83 0.186371V24.987C23.83 33.8297 30.998 41 39.8378 41V16.1994C39.8378 7.35668 32.6731 0.186371 23.83 0.186371Z" fill="#26D287"/>
<path d="M4.7674 0.186371V13.595H21.0999C21.0999 6.19086 15.0973 0.186371 7.69562 0.186371H4.7674Z" fill="#2B58D6"/>
<path d="M21.0999 19.2585C21.0999 19.2585 9.32205 29.0885 21.0999 38.5904C21.0999 38.5904 13.1982 41.9743 6.82235 40.1784C0.881498 38.506 -1.78376 31.5858 1.2808 26.2275C3.71558 21.9636 9.14999 17.073 21.0999 19.2585Z" fill="#FFA200"/>
<path d="M62.5972 2.20992C62.897 1.23604 63.445 0.625863 64.2445 0.37593C65.0423 0.125997 66.1279 0.00189209 67.4995 0.00189209C68.8711 0.00189209 70.0376 0.12772 70.8492 0.37593C71.6591 0.625863 72.2156 1.23777 72.5137 2.20992L80.0351 26.6172C80.0351 26.7671 79.9473 26.8413 79.7732 26.8413H74.871C74.6211 26.8413 74.4591 26.7292 74.385 26.5034L72.4017 20.0276C72.3276 19.7776 72.1639 19.6535 71.9158 19.6535H63.121C62.8712 19.6535 62.7092 19.7914 62.6351 20.0655L60.6518 26.4672C60.5777 26.7172 60.414 26.8413 60.1659 26.8413H55.2998C55.0999 26.8413 55 26.7671 55 26.6172L62.5972 2.20992ZM67.9492 5.54179C67.8751 5.26772 67.8114 5.08674 67.7614 4.99883C67.7114 4.91092 67.6235 4.86783 67.4995 4.86783C67.3754 4.86783 67.2376 5.09191 67.0877 5.54179L64.4685 14.0774C64.4685 14.1274 64.4616 14.1653 64.4496 14.1895C64.4358 14.2153 64.4306 14.2395 64.4306 14.2636C64.4306 14.4377 64.5305 14.5256 64.7304 14.5256H70.3064C70.5063 14.5256 70.6062 14.4394 70.6062 14.2636C70.6062 14.2395 70.5994 14.2136 70.5873 14.1895C70.5752 14.1653 70.5683 14.1274 70.5683 14.0774L67.9492 5.54179Z" fill="#151F2D"/>
<path d="M87.2963 7.33769H94.3697C95.5673 7.33769 96.5908 7.57556 97.4386 8.04957C98.2864 8.52358 98.9859 9.19064 99.5339 10.0525C100.082 10.9143 100.488 11.9554 100.75 13.1775C101.012 14.4013 101.143 15.7475 101.143 17.2213C101.143 18.3434 101.005 19.4793 100.731 20.6272C100.457 21.7752 100.046 22.8042 99.496 23.7161C98.9463 24.6279 98.2416 25.376 97.3817 25.962C96.5202 26.5481 95.5156 26.8411 94.3697 26.8411H86.2366C84.0948 26.8411 82.3579 25.1036 82.3579 22.9611V0.374038C82.3579 0.167196 82.525 0 82.7318 0H86.5485C86.7553 0 86.9224 0.167196 86.9224 0.374038V6.96193C86.9224 7.16877 87.0896 7.33597 87.2963 7.33597V7.33769ZM86.9224 21.8993C86.9224 22.1062 87.0896 22.2734 87.2963 22.2734H91.3749C92.1486 22.2734 92.8585 22.1992 93.5082 22.0493C94.156 21.8993 94.7057 21.6373 95.1555 21.2633C95.6052 20.8892 95.9533 20.3773 96.2031 19.7292C96.453 19.0811 96.577 18.2451 96.577 17.2213C96.577 16.1233 96.4512 15.2252 96.2031 14.5254C95.9533 13.8273 95.5983 13.2844 95.1365 12.8965C94.6747 12.5104 94.1268 12.2484 93.4892 12.1106C92.8534 11.9744 92.1486 11.9054 91.3749 11.9054H87.2963C87.0896 11.9054 86.9224 12.0726 86.9224 12.2795V21.8993Z" fill="#151F2D"/>
<path d="M103.611 0H107.427C107.634 0 107.801 0.167196 107.801 0.374038C107.801 2.68894 105.925 4.56602 103.611 4.56602C103.404 4.56602 103.237 4.39882 103.237 4.19198V0.374038C103.237 0.167196 103.404 0 103.611 0ZM103.237 7.71173C103.237 7.50489 103.404 7.33769 103.611 7.33769H107.427C107.634 7.33769 107.801 7.50489 107.801 7.71173V26.4671C107.801 26.6739 107.634 26.8411 107.427 26.8411H103.611C103.404 26.8411 103.237 26.6739 103.237 26.4671V7.71173Z" fill="#151F2D"/>
<path d="M111.32 0H115.137C115.343 0 115.511 0.167196 115.511 0.374038V26.4653C115.511 26.6722 115.343 26.8394 115.137 26.8394H111.32C111.113 26.8394 110.946 26.6722 110.946 26.4653V0.374038C110.946 0.167196 111.113 0 111.32 0Z" fill="#151F2D"/>
<path d="M119.029 0H122.846C123.053 0 123.22 0.167196 123.22 0.374038C123.22 2.68894 121.343 4.56602 119.029 4.56602C118.822 4.56602 118.655 4.39882 118.655 4.19198V0.374038C118.655 0.167196 118.822 0 119.029 0ZM118.655 7.71173C118.655 7.50489 118.822 7.33769 119.029 7.33769H122.846C123.053 7.33769 123.22 7.50489 123.22 7.71173V26.4671C123.22 26.6739 123.053 26.8411 122.846 26.8411H119.029C118.822 26.8411 118.655 26.6739 118.655 26.4671V7.71173Z" fill="#151F2D"/>
<path d="M145 19.2793C145 20.7772 144.869 22.0113 144.607 22.9852C144.345 23.9591 143.945 24.733 143.41 25.3053C142.872 25.8793 142.193 26.2792 141.369 26.5032C140.546 26.7273 139.56 26.8411 138.413 26.8411H131.751C130.603 26.8411 129.656 26.636 128.908 26.224C128.16 25.812 127.56 25.276 127.112 24.6141C126.663 23.9539 126.351 23.2041 126.177 22.3681C126.003 21.5322 125.915 20.6772 125.915 19.8033V13.2154C125.915 12.3174 126.07 11.5055 126.382 10.7816C126.694 10.0576 127.112 9.44056 127.636 8.92863C128.16 8.4167 128.777 8.0237 129.489 7.74964C130.2 7.47557 130.953 7.33768 131.753 7.33768H139.312C139.986 7.33768 140.665 7.46351 141.352 7.71171C142.038 7.96165 142.65 8.32879 143.186 8.81659C143.721 9.30267 144.159 9.89044 144.495 10.5765C144.833 11.2625 145 12.0554 145 12.9534V19.2793ZM140.398 13.7773C140.398 13.4774 140.305 13.2102 140.117 12.9724C139.929 12.7362 139.686 12.5363 139.386 12.3743C139.086 12.2122 138.75 12.0933 138.376 12.0192C138.002 11.9451 137.629 11.9071 137.255 11.9071H133.176C132.852 11.9071 132.526 11.9382 132.202 12.0002C131.878 12.0623 131.586 12.1691 131.324 12.3191C131.062 12.4691 130.843 12.669 130.669 12.9172C130.495 13.1672 130.407 13.4671 130.407 13.8153V19.805C130.407 20.3049 130.512 20.7169 130.726 21.0409C130.938 21.365 131.206 21.6218 131.53 21.8079C131.854 21.9958 132.204 22.1199 132.578 22.182C132.952 22.244 133.302 22.2751 133.626 22.2751H137.069C137.966 22.2751 138.747 22.063 139.407 21.639C140.067 21.215 140.399 20.6789 140.399 20.0291V13.7773H140.398Z" fill="#151F2D"/>
<path d="M54.41 33.93C54.41 33.8633 54.4433 33.83 54.51 33.83H55.76C55.8267 33.83 55.86 33.8633 55.86 33.93V40.9C55.86 40.9667 55.8267 41 55.76 41H54.51C54.4433 41 54.41 40.9667 54.41 40.9V33.93ZM59.7552 35.23V40.9C59.7552 40.9667 59.7218 41 59.6552 41H58.4052C58.3385 41 58.3052 40.9667 58.3052 40.9V35.23C58.3052 35.1633 58.2718 35.13 58.2052 35.13H56.5752C56.5085 35.13 56.4752 35.0967 56.4752 35.03V33.93C56.4752 33.8633 56.5085 33.83 56.5752 33.83H61.4852C61.5518 33.83 61.5852 33.8633 61.5852 33.93V35.03C61.5852 35.0967 61.5518 35.13 61.4852 35.13H59.8552C59.7885 35.13 59.7552 35.1633 59.7552 35.23ZM68.0057 38.02H66.8757C66.669 38.02 66.4457 37.9933 66.2057 37.94C65.9724 37.8867 65.759 37.7833 65.5657 37.63C65.4524 37.5367 65.3557 37.4267 65.2757 37.3C65.2024 37.1667 65.139 37.0267 65.0857 36.88C65.039 36.7267 65.0024 36.5733 64.9757 36.42C64.9557 36.26 64.9457 36.1033 64.9457 35.95C64.9457 35.8833 64.9457 35.82 64.9457 35.76C64.9457 35.7 64.9524 35.64 64.9657 35.58C65.0124 35 65.229 34.55 65.6157 34.23C65.729 34.1367 65.869 34.0467 66.0357 33.96C66.2024 33.8733 66.3657 33.83 66.5257 33.83H69.8357C69.9024 33.83 69.9357 33.8633 69.9357 33.93V35.03C69.9357 35.0967 69.9024 35.13 69.8357 35.13H66.9457C66.8524 35.13 66.7657 35.1733 66.6857 35.26C66.6124 35.34 66.559 35.4167 66.5257 35.49C66.4924 35.5567 66.4724 35.6233 66.4657 35.69C66.459 35.7567 66.4557 35.8233 66.4557 35.89C66.4557 35.9967 66.4624 36.1067 66.4757 36.22C66.489 36.3333 66.5357 36.4333 66.6157 36.52C66.689 36.5933 66.789 36.6367 66.9157 36.65C67.049 36.6633 67.1924 36.67 67.3457 36.67H68.4657C68.6724 36.67 68.889 36.7 69.1157 36.76C69.3424 36.8133 69.5524 36.92 69.7457 37.08C69.859 37.1733 69.9524 37.2867 70.0257 37.42C70.1057 37.5533 70.169 37.6967 70.2157 37.85C70.269 38.0033 70.3057 38.1633 70.3257 38.33C70.3457 38.4967 70.3557 38.6567 70.3557 38.81C70.3557 38.8833 70.3557 38.9533 70.3557 39.02C70.3557 39.08 70.349 39.1367 70.3357 39.19C70.2824 39.7967 70.069 40.2633 69.6957 40.59C69.5824 40.6833 69.4424 40.7767 69.2757 40.87C69.1157 40.9567 68.9624 41 68.8157 41H65.1757C65.109 41 65.0757 40.9667 65.0757 40.9V39.8C65.0757 39.7333 65.109 39.7 65.1757 39.7H68.3957C68.4957 39.7 68.5824 39.6533 68.6557 39.56C68.729 39.46 68.7824 39.37 68.8157 39.29C68.849 39.2167 68.869 39.1467 68.8757 39.08C68.8824 39.0133 68.8857 38.9433 68.8857 38.87C68.8857 38.7633 68.879 38.6533 68.8657 38.54C68.8524 38.42 68.8057 38.3133 68.7257 38.22C68.659 38.1467 68.5624 38.0967 68.4357 38.07C68.3157 38.0367 68.1724 38.02 68.0057 38.02ZM76.0795 37.29V38.98C76.0795 39.38 76.0428 39.71 75.9695 39.97C75.9028 40.23 75.7961 40.4367 75.6495 40.59C75.5095 40.7433 75.3295 40.85 75.1095 40.91C74.8895 40.97 74.6261 41 74.3195 41H72.5395C72.2328 41 71.9795 40.9467 71.7795 40.84C71.5795 40.7267 71.4195 40.5833 71.2995 40.41C71.1795 40.23 71.0961 40.03 71.0495 39.81C71.0028 39.5833 70.9795 39.3533 70.9795 39.12V37.36C70.9795 37.12 71.0195 36.9033 71.0995 36.71C71.1861 36.5167 71.2995 36.3533 71.4395 36.22C71.5795 36.08 71.7428 35.9733 71.9295 35.9C72.1228 35.8267 72.3261 35.79 72.5395 35.79H74.5595C74.7395 35.79 74.9195 35.8233 75.0995 35.89C75.2861 35.9567 75.4495 36.0567 75.5895 36.19C75.7361 36.3167 75.8528 36.4733 75.9395 36.66C76.0328 36.84 76.0795 37.05 76.0795 37.29ZM74.8495 38.38V37.51C74.8495 37.43 74.8228 37.36 74.7695 37.3C74.7228 37.2333 74.6595 37.18 74.5795 37.14C74.4995 37.0933 74.4095 37.06 74.3095 37.04C74.2095 37.02 74.1095 37.01 74.0095 37.01H72.9195C72.8328 37.01 72.7461 37.02 72.6595 37.04C72.5728 37.0533 72.4928 37.08 72.4195 37.12C72.3528 37.16 72.2961 37.2133 72.2495 37.28C72.2028 37.3467 72.1795 37.4267 72.1795 37.52V39.12C72.1795 39.2533 72.2061 39.3633 72.2595 39.45C72.3195 39.5367 72.3928 39.6067 72.4795 39.66C72.5661 39.7067 72.6595 39.74 72.7595 39.76C72.8595 39.7733 72.9528 39.78 73.0395 39.78H73.9595C74.1995 39.78 74.4061 39.7233 74.5795 39.61C74.7595 39.4967 74.8495 39.3533 74.8495 39.18V38.38ZM76.8123 33.93C76.8123 33.8633 76.8457 33.83 76.9123 33.83H77.9323C77.999 33.83 78.0323 33.8633 78.0323 33.93V39.86V39.88V40.9C78.0323 40.9667 77.999 41 77.9323 41H76.9123C76.8457 41 76.8123 40.9667 76.8123 40.9V39.88V39.86V33.93ZM82.0529 35.89C82.0529 35.8233 82.0862 35.79 82.1529 35.79H83.1729C83.2396 35.79 83.2729 35.8233 83.2729 35.89V39.83C83.2729 40.0433 83.2062 40.2267 83.0729 40.38C82.9462 40.5333 82.7762 40.66 82.5629 40.76C82.3562 40.86 82.1196 40.9333 81.8529 40.98C81.5929 41.0267 81.3296 41.05 81.0629 41.05C80.7896 41.05 80.5196 41.0267 80.2529 40.98C79.9929 40.9333 79.7596 40.86 79.5529 40.76C79.3462 40.66 79.1762 40.5333 79.0429 40.38C78.9162 40.2267 78.8529 40.0433 78.8529 39.83V35.89C78.8529 35.8233 78.8862 35.79 78.9529 35.79H79.9729C80.0396 35.79 80.0729 35.8233 80.0729 35.89V39.4C80.0729 39.46 80.0996 39.5167 80.1529 39.57C80.2129 39.6233 80.2862 39.67 80.3729 39.71C80.4662 39.75 80.5729 39.78 80.6929 39.8C80.8129 39.82 80.9362 39.83 81.0629 39.83C81.1896 39.83 81.3096 39.82 81.4229 39.8C81.5429 39.78 81.6496 39.75 81.7429 39.71C81.8362 39.67 81.9096 39.6233 81.9629 39.57C82.0229 39.5167 82.0529 39.46 82.0529 39.4V35.89ZM85.7682 37.11V39.68C85.7682 39.7467 85.8015 39.78 85.8682 39.78H86.7082C86.7615 39.7867 86.7882 39.82 86.7882 39.88V40.9C86.7882 40.9667 86.7549 41 86.6882 41H85.4282C85.1749 41 84.9649 40.9233 84.7982 40.77C84.6315 40.6167 84.5482 40.4367 84.5482 40.23V37.11C84.5482 37.0433 84.5149 37.01 84.4482 37.01H83.9182C83.8515 37.01 83.8182 36.9767 83.8182 36.91V35.89C83.8182 35.8233 83.8515 35.79 83.9182 35.79H84.4482C84.5149 35.79 84.5482 35.7567 84.5482 35.69V34.44C84.5482 34.3733 84.5815 34.34 84.6482 34.34H85.6682C85.7349 34.34 85.7682 34.3733 85.7682 34.44V35.69C85.7682 35.7567 85.8015 35.79 85.8682 35.79H86.6882C86.7549 35.79 86.7882 35.8233 86.7882 35.89V36.91C86.7882 36.9767 86.7549 37.01 86.6882 37.01H85.8682C85.8015 37.01 85.7682 37.0433 85.7682 37.11ZM87.4569 40.9V35.89C87.4569 35.8233 87.4902 35.79 87.5569 35.79H88.5769C88.6435 35.79 88.6769 35.8233 88.6769 35.89V40.9C88.6769 40.9667 88.6435 41 88.5769 41H87.5569C87.4902 41 87.4569 40.9667 87.4569 40.9ZM87.4569 33.93C87.4569 33.8633 87.4902 33.83 87.5569 33.83H88.5769C88.6435 33.83 88.6769 33.8633 88.6769 33.93V34.95C88.6769 35.0167 88.6435 35.05 88.5769 35.05H87.5569C87.4902 35.05 87.4569 35.0167 87.4569 34.95V33.93ZM94.4974 37.29V38.98C94.4974 39.38 94.4608 39.71 94.3874 39.97C94.3208 40.23 94.2141 40.4367 94.0674 40.59C93.9274 40.7433 93.7474 40.85 93.5274 40.91C93.3074 40.97 93.0441 41 92.7374 41H90.9574C90.6508 41 90.3974 40.9467 90.1974 40.84C89.9974 40.7267 89.8374 40.5833 89.7174 40.41C89.5974 40.23 89.5141 40.03 89.4674 39.81C89.4208 39.5833 89.3974 39.3533 89.3974 39.12V37.36C89.3974 37.12 89.4374 36.9033 89.5174 36.71C89.6041 36.5167 89.7174 36.3533 89.8574 36.22C89.9974 36.08 90.1608 35.9733 90.3474 35.9C90.5408 35.8267 90.7441 35.79 90.9574 35.79H92.9774C93.1574 35.79 93.3374 35.8233 93.5174 35.89C93.7041 35.9567 93.8674 36.0567 94.0074 36.19C94.1541 36.3167 94.2708 36.4733 94.3574 36.66C94.4508 36.84 94.4974 37.05 94.4974 37.29ZM93.2674 38.38V37.51C93.2674 37.43 93.2408 37.36 93.1874 37.3C93.1408 37.2333 93.0774 37.18 92.9974 37.14C92.9174 37.0933 92.8274 37.06 92.7274 37.04C92.6274 37.02 92.5274 37.01 92.4274 37.01H91.3374C91.2508 37.01 91.1641 37.02 91.0774 37.04C90.9908 37.0533 90.9108 37.08 90.8374 37.12C90.7708 37.16 90.7141 37.2133 90.6674 37.28C90.6208 37.3467 90.5974 37.4267 90.5974 37.52V39.12C90.5974 39.2533 90.6241 39.3633 90.6774 39.45C90.7374 39.5367 90.8108 39.6067 90.8974 39.66C90.9841 39.7067 91.0774 39.74 91.1774 39.76C91.2774 39.7733 91.3708 39.78 91.4574 39.78H92.3774C92.6174 39.78 92.8241 39.7233 92.9974 39.61C93.1774 39.4967 93.2674 39.3533 93.2674 39.18V38.38ZM96.4503 37.15V40.68C96.4503 40.8933 96.357 41 96.1703 41H95.5003C95.407 41 95.337 40.96 95.2903 40.88C95.2503 40.8 95.2303 40.7067 95.2303 40.6V36.45C95.2303 36.2833 95.297 36.1333 95.4303 36C95.5703 35.86 95.747 35.79 95.9603 35.79H98.2203C98.4603 35.79 98.6836 35.84 98.8903 35.94C99.097 36.0333 99.277 36.16 99.4303 36.32C99.5903 36.48 99.7136 36.6633 99.8003 36.87C99.887 37.0767 99.9303 37.29 99.9303 37.51V40.9C99.9303 40.9667 99.8936 41 99.8203 41H98.8103C98.7436 41 98.7103 40.9667 98.7103 40.9V37.72C98.7103 37.5533 98.6836 37.4167 98.6303 37.31C98.5836 37.2033 98.5136 37.12 98.4203 37.06C98.3336 37 98.2303 36.96 98.1103 36.94C97.9903 36.9133 97.8603 36.9 97.7203 36.9H96.7503C96.677 36.9 96.607 36.9267 96.5403 36.98C96.4803 37.0333 96.4503 37.09 96.4503 37.15ZM100.688 39.88C100.688 39.8133 100.722 39.78 100.788 39.78H103.538C103.632 39.78 103.705 39.7667 103.758 39.74C103.812 39.7067 103.852 39.6667 103.878 39.62C103.912 39.5733 103.932 39.5233 103.938 39.47C103.945 39.41 103.948 39.3567 103.948 39.31C103.948 39.2233 103.925 39.1367 103.878 39.05C103.838 38.9633 103.752 38.92 103.618 38.92H102.048C101.808 38.92 101.605 38.8833 101.438 38.81C101.272 38.73 101.138 38.6233 101.038 38.49C100.938 38.35 100.865 38.1867 100.818 38C100.772 37.8067 100.748 37.5967 100.748 37.37C100.748 37.0367 100.785 36.7667 100.858 36.56C100.938 36.3533 101.055 36.1933 101.208 36.08C101.368 35.9667 101.568 35.89 101.808 35.85C102.055 35.81 102.348 35.79 102.688 35.79H104.848C104.915 35.79 104.948 35.8233 104.948 35.89V36.91C104.948 36.9767 104.915 37.01 104.848 37.01H102.228C102.122 37.01 102.045 37.05 101.998 37.13C101.952 37.2033 101.928 37.2867 101.928 37.38C101.928 37.4667 101.952 37.5533 101.998 37.64C102.052 37.7267 102.128 37.77 102.228 37.77H103.688C103.948 37.77 104.172 37.8 104.358 37.86C104.545 37.9133 104.695 38.0067 104.808 38.14C104.928 38.2733 105.015 38.4567 105.068 38.69C105.128 38.9167 105.158 39.2033 105.158 39.55C105.158 39.65 105.142 39.7833 105.108 39.95C105.082 40.11 105.028 40.27 104.948 40.43C104.868 40.5833 104.755 40.7167 104.608 40.83C104.468 40.9433 104.285 41 104.058 41H100.788C100.722 41 100.688 40.9667 100.688 40.9V39.88ZM108.746 34.04V33.93C108.746 33.8633 108.779 33.83 108.846 33.83H112.036C112.409 33.83 112.726 33.89 112.986 34.01C113.246 34.1233 113.456 34.2833 113.616 34.49C113.776 34.6967 113.893 34.9433 113.966 35.23C114.039 35.5167 114.076 35.83 114.076 36.17C114.076 36.5233 114.039 36.8433 113.966 37.13C113.893 37.4167 113.776 37.6633 113.616 37.87C113.456 38.0767 113.246 38.2367 112.986 38.35C112.726 38.4567 112.409 38.51 112.036 38.51H110.296C110.229 38.51 110.196 38.5433 110.196 38.61V40.9C110.196 40.9667 110.163 41 110.096 41H108.846C108.779 41 108.746 40.9667 108.746 40.9V34.04ZM112.206 35.13H110.296C110.229 35.13 110.196 35.1633 110.196 35.23V37.11C110.196 37.1767 110.229 37.21 110.296 37.21H112.206C112.326 37.21 112.419 37.17 112.486 37.09C112.559 37.0033 112.613 36.9033 112.646 36.79C112.679 36.6767 112.699 36.5633 112.706 36.45C112.719 36.33 112.726 36.2367 112.726 36.17C112.726 36.1033 112.719 36.0133 112.706 35.9C112.699 35.78 112.679 35.6633 112.646 35.55C112.613 35.4367 112.559 35.34 112.486 35.26C112.419 35.1733 112.326 35.13 112.206 35.13ZM115.915 33.92L117.635 39.52C117.655 39.5933 117.672 39.6433 117.685 39.67C117.699 39.69 117.722 39.7 117.755 39.7C117.789 39.7 117.825 39.64 117.865 39.52L119.585 33.93C119.605 33.8633 119.649 33.83 119.715 33.83H121.015C121.069 33.83 121.095 33.85 121.095 33.89L119.065 40.41C118.985 40.67 118.839 40.8333 118.625 40.9C118.412 40.9667 118.122 41 117.755 41C117.375 41 117.075 40.9667 116.855 40.9C116.642 40.8333 116.495 40.67 116.415 40.41L114.405 33.89C114.405 33.85 114.429 33.83 114.475 33.83H115.785C115.852 33.83 115.895 33.86 115.915 33.92ZM124.775 35.23V40.9C124.775 40.9667 124.741 41 124.675 41H123.425C123.358 41 123.325 40.9667 123.325 40.9V35.23C123.325 35.1633 123.291 35.13 123.225 35.13H121.595C121.528 35.13 121.495 35.0967 121.495 35.03V33.93C121.495 33.8633 121.528 33.83 121.595 33.83H126.505C126.571 33.83 126.605 33.8633 126.605 33.93V35.03C126.605 35.0967 126.571 35.13 126.505 35.13H124.875C124.808 35.13 124.775 35.1633 124.775 35.23ZM134.565 39.7C134.632 39.7 134.665 39.7333 134.665 39.8V40.9C134.665 40.9667 134.632 41 134.565 41H131.815C131.762 41 131.712 41 131.665 41C131.619 41 131.579 40.9967 131.545 40.99C130.992 40.9433 130.599 40.7833 130.365 40.51C130.132 40.23 130.015 39.81 130.015 39.25V33.93C130.015 33.8633 130.049 33.83 130.115 33.83H131.365C131.432 33.83 131.465 33.8633 131.465 33.93V39.37C131.465 39.59 131.595 39.7 131.855 39.7H134.565ZM137.402 35.23V40.9C137.402 40.9667 137.368 41 137.302 41H136.052C135.985 41 135.952 40.9667 135.952 40.9V35.23C135.952 35.1633 135.918 35.13 135.852 35.13H134.222C134.155 35.13 134.122 35.0967 134.122 35.03V33.93C134.122 33.8633 134.155 33.83 134.222 33.83H139.132C139.198 33.83 139.232 33.8633 139.232 33.93V35.03C139.232 35.0967 139.198 35.13 139.132 35.13H137.502C137.435 35.13 137.402 35.1633 137.402 35.23ZM139.93 41C139.863 41 139.83 40.9667 139.83 40.9V33.93C139.83 33.8633 139.863 33.83 139.93 33.83H143.34C143.72 33.83 144.047 33.9033 144.32 34.05C144.6 34.1967 144.83 34.3867 145.01 34.62C145.19 34.8533 145.32 35.12 145.4 35.42C145.487 35.72 145.53 36.0233 145.53 36.33V38.73C145.53 38.99 145.487 39.2567 145.4 39.53C145.32 39.7967 145.19 40.04 145.01 40.26C144.83 40.48 144.603 40.66 144.33 40.8C144.057 40.9333 143.73 41 143.35 41H139.93ZM141.28 35.23V39.6C141.28 39.6667 141.313 39.7 141.38 39.7H143.17C143.277 39.7 143.383 39.6733 143.49 39.62C143.603 39.56 143.703 39.4867 143.79 39.4C143.877 39.3067 143.947 39.2067 144 39.1C144.053 38.9867 144.08 38.8733 144.08 38.76V36.1C144.08 35.98 144.05 35.8633 143.99 35.75C143.93 35.63 143.853 35.5267 143.76 35.44C143.667 35.3467 143.56 35.2733 143.44 35.22C143.327 35.16 143.21 35.13 143.09 35.13H141.38C141.313 35.13 141.28 35.1633 141.28 35.23Z" fill="#151F2D"/>
</svg>
