<svg width="135" height="157" viewBox="0 0 135 157" fill="none" xmlns="http://www.w3.org/2000/svg">
<path d="M73.1201 0V36.3922C73.1201 49.3679 83.6383 59.8896 96.6099 59.8896V23.4974C96.6099 10.5217 86.0964 0 73.1201 0Z" fill="#26D287"/>
<path d="M45.1478 0V19.6757H69.1139C69.1139 8.81093 60.3058 0 49.4446 0H45.1478Z" fill="#2B58D6"/>
<path d="M69.1139 27.9862C69.1139 27.9862 51.8313 42.4106 69.1139 56.3537C69.1139 56.3537 57.5191 61.319 48.1632 58.6839C39.4457 56.2298 35.5347 46.075 40.0316 38.2124C43.6044 31.9556 51.5788 24.7792 69.1139 27.9862Z" fill="#FFA200"/>
<path d="M12.1481 98.6233C12.588 97.1943 13.3921 96.2989 14.5653 95.9322C15.736 95.5654 17.3289 95.3833 19.3416 95.3833C21.3543 95.3833 23.0661 95.5679 24.257 95.9322C25.4454 96.2989 26.2621 97.1968 26.6995 98.6233L37.7363 134.438C37.7363 134.658 37.6074 134.767 37.352 134.767H30.1585C29.7918 134.767 29.5542 134.603 29.4454 134.271L26.5352 124.769C26.4264 124.402 26.1862 124.22 25.8221 124.22H12.9167C12.5501 124.22 12.3124 124.422 12.2037 124.824L9.29343 134.218C9.1847 134.585 8.9445 134.767 8.58039 134.767H1.43996C1.14665 134.767 1 134.658 1 134.438L12.1481 98.6233ZM20.0016 103.512C19.8928 103.11 19.7993 102.845 19.7259 102.716C19.6526 102.587 19.5237 102.524 19.3416 102.524C19.1596 102.524 18.9573 102.852 18.7373 103.512L14.894 116.038C14.894 116.111 14.8839 116.167 14.8662 116.202C14.846 116.24 14.8384 116.275 14.8384 116.311C14.8384 116.566 14.985 116.695 15.2783 116.695H23.4605C23.7538 116.695 23.9005 116.569 23.9005 116.311C23.9005 116.275 23.8904 116.237 23.8727 116.202C23.855 116.167 23.8448 116.111 23.8448 116.038L20.0016 103.512Z" fill="white"/>
<path d="M48.3913 106.148H58.7708C60.5281 106.148 62.03 106.497 63.274 107.192C64.518 107.888 65.5446 108.867 66.3486 110.131C67.1527 111.396 67.7494 112.924 68.1337 114.717C68.5181 116.513 68.7102 118.488 68.7102 120.651C68.7102 122.297 68.508 123.964 68.1059 125.649C67.7039 127.333 67.0996 128.843 66.293 130.181C65.4864 131.519 64.4523 132.617 63.1906 133.477C61.9263 134.337 60.4522 134.767 58.7708 134.767H46.8363C43.6934 134.767 41.1447 132.217 41.1447 129.073V95.9292C41.1447 95.6257 41.39 95.3804 41.6934 95.3804H47.294C47.5974 95.3804 47.8427 95.6257 47.8427 95.9292V105.596C47.8427 105.9 48.0879 106.145 48.3913 106.145V106.148ZM47.8427 127.515C47.8427 127.819 48.0879 128.064 48.3913 128.064H54.3763C55.5116 128.064 56.5533 127.955 57.5065 127.735C58.4572 127.515 59.2638 127.131 59.9238 126.582C60.5837 126.033 61.0944 125.282 61.4611 124.331C61.8277 123.38 62.0098 122.153 62.0098 120.651C62.0098 119.04 61.8252 117.722 61.4611 116.695C61.0944 115.67 60.5736 114.874 59.8959 114.305C59.2183 113.738 58.4143 113.354 57.4787 113.151C56.5457 112.951 55.5116 112.85 54.3763 112.85H48.3913C48.0879 112.85 47.8427 113.096 47.8427 113.399V127.515Z" fill="white"/>
<path d="M72.331 95.3804H77.9316C78.235 95.3804 78.4803 95.6257 78.4803 95.9292C78.4803 99.3261 75.7268 102.081 72.331 102.081C72.0276 102.081 71.7823 101.835 71.7823 101.532V95.9292C71.7823 95.6257 72.0276 95.3804 72.331 95.3804ZM71.7823 106.696C71.7823 106.393 72.0276 106.148 72.331 106.148H77.9316C78.235 106.148 78.4803 106.393 78.4803 106.696V134.218C78.4803 134.521 78.235 134.767 77.9316 134.767H72.331C72.0276 134.767 71.7823 134.521 71.7823 134.218V106.696Z" fill="white"/>
<path d="M83.6435 95.3804H89.2441C89.5475 95.3804 89.7927 95.6257 89.7927 95.9292V134.215C89.7927 134.519 89.5475 134.764 89.2441 134.764H83.6435C83.3401 134.764 83.0948 134.519 83.0948 134.215V95.9292C83.0948 95.6257 83.3401 95.3804 83.6435 95.3804Z" fill="white"/>
<path d="M94.9559 95.3804H100.556C100.86 95.3804 101.105 95.6257 101.105 95.9292C101.105 99.3261 98.3517 102.081 94.9559 102.081C94.6525 102.081 94.4072 101.835 94.4072 101.532V95.9292C94.4072 95.6257 94.6525 95.3804 94.9559 95.3804ZM94.4072 106.696C94.4072 106.393 94.6525 106.148 94.9559 106.148H100.556C100.86 106.148 101.105 106.393 101.105 106.696V134.218C101.105 134.521 100.86 134.767 100.556 134.767H94.9559C94.6525 134.767 94.4072 134.521 94.4072 134.218V106.696Z" fill="white"/>
<path d="M133.065 123.671C133.065 125.869 132.873 127.68 132.489 129.109C132.104 130.539 131.518 131.674 130.731 132.514C129.943 133.356 128.946 133.943 127.738 134.272C126.529 134.601 125.083 134.768 123.399 134.768H113.624C111.94 134.768 110.549 134.467 109.452 133.862C108.354 133.258 107.474 132.471 106.817 131.5C106.157 130.531 105.699 129.431 105.444 128.204C105.189 126.977 105.06 125.723 105.06 124.44V114.773C105.06 113.456 105.287 112.264 105.745 111.202C106.203 110.14 106.817 109.234 107.586 108.483C108.354 107.732 109.26 107.155 110.304 106.753C111.348 106.351 112.453 106.148 113.626 106.148H124.719C125.707 106.148 126.704 106.333 127.712 106.697C128.719 107.064 129.616 107.603 130.403 108.319C131.189 109.032 131.831 109.894 132.324 110.901C132.82 111.908 133.065 113.071 133.065 114.389V123.671ZM126.312 115.598C126.312 115.158 126.175 114.766 125.899 114.417C125.624 114.07 125.267 113.777 124.827 113.539C124.387 113.301 123.894 113.127 123.346 113.018C122.797 112.909 122.248 112.854 121.7 112.854H115.715C115.239 112.854 114.762 112.899 114.286 112.99C113.811 113.081 113.381 113.238 112.997 113.458C112.612 113.678 112.291 113.972 112.036 114.336C111.78 114.703 111.651 115.143 111.651 115.654V124.443C111.651 125.176 111.806 125.781 112.119 126.256C112.43 126.732 112.825 127.109 113.3 127.382C113.775 127.658 114.289 127.84 114.837 127.931C115.386 128.022 115.899 128.067 116.375 128.067H121.427C122.744 128.067 123.889 127.756 124.858 127.134C125.826 126.512 126.314 125.725 126.314 124.772V115.598H126.312Z" fill="white"/>
<path d="M0.574 143.972C0.574 143.878 0.620667 143.832 0.714 143.832H2.464C2.55733 143.832 2.604 143.878 2.604 143.972V153.73C2.604 153.823 2.55733 153.87 2.464 153.87H0.714C0.620667 153.87 0.574 153.823 0.574 153.73V143.972ZM8.05722 145.792V153.73C8.05722 153.823 8.01055 153.87 7.91722 153.87H6.16722C6.07389 153.87 6.02722 153.823 6.02722 153.73V145.792C6.02722 145.698 5.98055 145.652 5.88722 145.652H3.60522C3.51189 145.652 3.46522 145.605 3.46522 145.512V143.972C3.46522 143.878 3.51189 143.832 3.60522 143.832H10.4792C10.5726 143.832 10.6192 143.878 10.6192 143.972V145.512C10.6192 145.605 10.5726 145.652 10.4792 145.652H8.19722C8.10389 145.652 8.05722 145.698 8.05722 145.792ZM19.608 149.698H18.026C17.7367 149.698 17.424 149.66 17.088 149.586C16.7613 149.511 16.4627 149.366 16.192 149.152C16.0333 149.021 15.898 148.867 15.786 148.69C15.6833 148.503 15.5947 148.307 15.52 148.102C15.4547 147.887 15.4033 147.672 15.366 147.458C15.338 147.234 15.324 147.014 15.324 146.8C15.324 146.706 15.324 146.618 15.324 146.534C15.324 146.45 15.3333 146.366 15.352 146.282C15.4173 145.47 15.7207 144.84 16.262 144.392C16.4207 144.261 16.6167 144.135 16.85 144.014C17.0833 143.892 17.312 143.832 17.536 143.832H22.17C22.2633 143.832 22.31 143.878 22.31 143.972V145.512C22.31 145.605 22.2633 145.652 22.17 145.652H18.124C17.9933 145.652 17.872 145.712 17.76 145.834C17.6573 145.946 17.5827 146.053 17.536 146.156C17.4893 146.249 17.4613 146.342 17.452 146.436C17.4427 146.529 17.438 146.622 17.438 146.716C17.438 146.865 17.4473 147.019 17.466 147.178C17.4847 147.336 17.55 147.476 17.662 147.598C17.7647 147.7 17.9047 147.761 18.082 147.78C18.2687 147.798 18.4693 147.808 18.684 147.808H20.252C20.5413 147.808 20.8447 147.85 21.162 147.934C21.4793 148.008 21.7733 148.158 22.044 148.382C22.2027 148.512 22.3333 148.671 22.436 148.858C22.548 149.044 22.6367 149.245 22.702 149.46C22.7767 149.674 22.828 149.898 22.856 150.132C22.884 150.365 22.898 150.589 22.898 150.804C22.898 150.906 22.898 151.004 22.898 151.098C22.898 151.182 22.8887 151.261 22.87 151.336C22.7953 152.185 22.4967 152.838 21.974 153.296C21.8153 153.426 21.6193 153.557 21.386 153.688C21.162 153.809 20.9473 153.87 20.742 153.87H15.646C15.5527 153.87 15.506 153.823 15.506 153.73V152.19C15.506 152.096 15.5527 152.05 15.646 152.05H20.154C20.294 152.05 20.4153 151.984 20.518 151.854C20.6207 151.714 20.6953 151.588 20.742 151.476C20.7887 151.373 20.8167 151.275 20.826 151.182C20.8353 151.088 20.84 150.99 20.84 150.888C20.84 150.738 20.8307 150.584 20.812 150.426C20.7933 150.258 20.728 150.108 20.616 149.978C20.5227 149.875 20.3873 149.805 20.21 149.768C20.042 149.721 19.8413 149.698 19.608 149.698ZM30.9112 148.676V151.042C30.9112 151.602 30.8599 152.064 30.7572 152.428C30.6639 152.792 30.5146 153.081 30.3092 153.296C30.1132 153.51 29.8612 153.66 29.5532 153.744C29.2452 153.828 28.8766 153.87 28.4472 153.87H25.9552C25.5259 153.87 25.1712 153.795 24.8912 153.646C24.6112 153.487 24.3872 153.286 24.2192 153.044C24.0512 152.792 23.9346 152.512 23.8692 152.204C23.8039 151.886 23.7712 151.564 23.7712 151.238V148.774C23.7712 148.438 23.8272 148.134 23.9392 147.864C24.0606 147.593 24.2192 147.364 24.4152 147.178C24.6112 146.982 24.8399 146.832 25.1012 146.73C25.3719 146.627 25.6566 146.576 25.9552 146.576H28.7832C29.0352 146.576 29.2872 146.622 29.5392 146.716C29.8006 146.809 30.0292 146.949 30.2252 147.136C30.4306 147.313 30.5939 147.532 30.7152 147.794C30.8459 148.046 30.9112 148.34 30.9112 148.676ZM29.1892 150.202V148.984C29.1892 148.872 29.1519 148.774 29.0772 148.69C29.0119 148.596 28.9232 148.522 28.8112 148.466C28.6992 148.4 28.5732 148.354 28.4332 148.326C28.2932 148.298 28.1532 148.284 28.0132 148.284H26.4872C26.3659 148.284 26.2446 148.298 26.1232 148.326C26.0019 148.344 25.8899 148.382 25.7872 148.438C25.6939 148.494 25.6146 148.568 25.5492 148.662C25.4839 148.755 25.4512 148.867 25.4512 148.998V151.238C25.4512 151.424 25.4886 151.578 25.5632 151.7C25.6472 151.821 25.7499 151.919 25.8712 151.994C25.9926 152.059 26.1232 152.106 26.2632 152.134C26.4032 152.152 26.5339 152.162 26.6552 152.162H27.9432C28.2792 152.162 28.5686 152.082 28.8112 151.924C29.0632 151.765 29.1892 151.564 29.1892 151.322V150.202ZM31.9373 143.972C31.9373 143.878 31.9839 143.832 32.0773 143.832H33.5053C33.5986 143.832 33.6453 143.878 33.6453 143.972V152.274V152.302V153.73C33.6453 153.823 33.5986 153.87 33.5053 153.87H32.0773C31.9839 153.87 31.9373 153.823 31.9373 153.73V152.302V152.274V143.972ZM39.274 146.716C39.274 146.622 39.3207 146.576 39.414 146.576H40.842C40.9354 146.576 40.982 146.622 40.982 146.716V152.232C40.982 152.53 40.8887 152.787 40.702 153.002C40.5247 153.216 40.2867 153.394 39.988 153.534C39.6987 153.674 39.3674 153.776 38.994 153.842C38.63 153.907 38.2614 153.94 37.888 153.94C37.5054 153.94 37.1274 153.907 36.754 153.842C36.39 153.776 36.0634 153.674 35.774 153.534C35.4847 153.394 35.2467 153.216 35.06 153.002C34.8827 152.787 34.794 152.53 34.794 152.232V146.716C34.794 146.622 34.8407 146.576 34.934 146.576H36.362C36.4554 146.576 36.502 146.622 36.502 146.716V151.63C36.502 151.714 36.5394 151.793 36.614 151.868C36.698 151.942 36.8007 152.008 36.922 152.064C37.0527 152.12 37.202 152.162 37.37 152.19C37.538 152.218 37.7107 152.232 37.888 152.232C38.0654 152.232 38.2334 152.218 38.392 152.19C38.56 152.162 38.7094 152.12 38.84 152.064C38.9707 152.008 39.0734 151.942 39.148 151.868C39.232 151.793 39.274 151.714 39.274 151.63V146.716ZM44.4755 148.424V152.022C44.4755 152.115 44.5222 152.162 44.6155 152.162H45.7915C45.8662 152.171 45.9035 152.218 45.9035 152.302V153.73C45.9035 153.823 45.8568 153.87 45.7635 153.87H43.9995C43.6448 153.87 43.3508 153.762 43.1175 153.548C42.8842 153.333 42.7675 153.081 42.7675 152.792V148.424C42.7675 148.33 42.7208 148.284 42.6275 148.284H41.8855C41.7922 148.284 41.7455 148.237 41.7455 148.144V146.716C41.7455 146.622 41.7922 146.576 41.8855 146.576H42.6275C42.7208 146.576 42.7675 146.529 42.7675 146.436V144.686C42.7675 144.592 42.8142 144.546 42.9075 144.546H44.3355C44.4288 144.546 44.4755 144.592 44.4755 144.686V146.436C44.4755 146.529 44.5222 146.576 44.6155 146.576H45.7635C45.8568 146.576 45.9035 146.622 45.9035 146.716V148.144C45.9035 148.237 45.8568 148.284 45.7635 148.284H44.6155C44.5222 148.284 44.4755 148.33 44.4755 148.424ZM46.8396 153.73V146.716C46.8396 146.622 46.8863 146.576 46.9796 146.576H48.4076C48.501 146.576 48.5476 146.622 48.5476 146.716V153.73C48.5476 153.823 48.501 153.87 48.4076 153.87H46.9796C46.8863 153.87 46.8396 153.823 46.8396 153.73ZM46.8396 143.972C46.8396 143.878 46.8863 143.832 46.9796 143.832H48.4076C48.501 143.832 48.5476 143.878 48.5476 143.972V145.4C48.5476 145.493 48.501 145.54 48.4076 145.54H46.9796C46.8863 145.54 46.8396 145.493 46.8396 145.4V143.972ZM56.6964 148.676V151.042C56.6964 151.602 56.6451 152.064 56.5424 152.428C56.4491 152.792 56.2997 153.081 56.0944 153.296C55.8984 153.51 55.6464 153.66 55.3384 153.744C55.0304 153.828 54.6617 153.87 54.2324 153.87H51.7404C51.3111 153.87 50.9564 153.795 50.6764 153.646C50.3964 153.487 50.1724 153.286 50.0044 153.044C49.8364 152.792 49.7197 152.512 49.6544 152.204C49.5891 151.886 49.5564 151.564 49.5564 151.238V148.774C49.5564 148.438 49.6124 148.134 49.7244 147.864C49.8457 147.593 50.0044 147.364 50.2004 147.178C50.3964 146.982 50.6251 146.832 50.8864 146.73C51.1571 146.627 51.4417 146.576 51.7404 146.576H54.5684C54.8204 146.576 55.0724 146.622 55.3244 146.716C55.5857 146.809 55.8144 146.949 56.0104 147.136C56.2157 147.313 56.3791 147.532 56.5004 147.794C56.6311 148.046 56.6964 148.34 56.6964 148.676ZM54.9744 150.202V148.984C54.9744 148.872 54.9371 148.774 54.8624 148.69C54.7971 148.596 54.7084 148.522 54.5964 148.466C54.4844 148.4 54.3584 148.354 54.2184 148.326C54.0784 148.298 53.9384 148.284 53.7984 148.284H52.2724C52.1511 148.284 52.0297 148.298 51.9084 148.326C51.7871 148.344 51.6751 148.382 51.5724 148.438C51.4791 148.494 51.3997 148.568 51.3344 148.662C51.2691 148.755 51.2364 148.867 51.2364 148.998V151.238C51.2364 151.424 51.2737 151.578 51.3484 151.7C51.4324 151.821 51.5351 151.919 51.6564 151.994C51.7777 152.059 51.9084 152.106 52.0484 152.134C52.1884 152.152 52.3191 152.162 52.4404 152.162H53.7284C54.0644 152.162 54.3537 152.082 54.5964 151.924C54.8484 151.765 54.9744 151.564 54.9744 151.322V150.202ZM59.4304 148.48V153.422C59.4304 153.72 59.2998 153.87 59.0384 153.87H58.1004C57.9698 153.87 57.8718 153.814 57.8064 153.702C57.7504 153.59 57.7224 153.459 57.7224 153.31V147.5C57.7224 147.266 57.8158 147.056 58.0024 146.87C58.1984 146.674 58.4458 146.576 58.7444 146.576H61.9084C62.2444 146.576 62.5571 146.646 62.8464 146.786C63.1358 146.916 63.3878 147.094 63.6024 147.318C63.8264 147.542 63.9991 147.798 64.1204 148.088C64.2418 148.377 64.3024 148.676 64.3024 148.984V153.73C64.3024 153.823 64.2511 153.87 64.1484 153.87H62.7344C62.6411 153.87 62.5944 153.823 62.5944 153.73V149.278C62.5944 149.044 62.5571 148.853 62.4824 148.704C62.4171 148.554 62.3191 148.438 62.1884 148.354C62.0671 148.27 61.9224 148.214 61.7544 148.186C61.5864 148.148 61.4044 148.13 61.2084 148.13H59.8504C59.7478 148.13 59.6498 148.167 59.5564 148.242C59.4724 148.316 59.4304 148.396 59.4304 148.48ZM65.3637 152.302C65.3637 152.208 65.4104 152.162 65.5037 152.162H69.3537C69.4844 152.162 69.587 152.143 69.6617 152.106C69.7364 152.059 69.7924 152.003 69.8297 151.938C69.8764 151.872 69.9044 151.802 69.9137 151.728C69.923 151.644 69.9277 151.569 69.9277 151.504C69.9277 151.382 69.895 151.261 69.8297 151.14C69.7737 151.018 69.6524 150.958 69.4657 150.958H67.2677C66.9317 150.958 66.647 150.906 66.4137 150.804C66.1804 150.692 65.9937 150.542 65.8537 150.356C65.7137 150.16 65.611 149.931 65.5457 149.67C65.4804 149.399 65.4477 149.105 65.4477 148.788C65.4477 148.321 65.499 147.943 65.6017 147.654C65.7137 147.364 65.877 147.14 66.0917 146.982C66.3157 146.823 66.5957 146.716 66.9317 146.66C67.277 146.604 67.6877 146.576 68.1637 146.576H71.1877C71.281 146.576 71.3277 146.622 71.3277 146.716V148.144C71.3277 148.237 71.281 148.284 71.1877 148.284H67.5197C67.3704 148.284 67.263 148.34 67.1977 148.452C67.1324 148.554 67.0997 148.671 67.0997 148.802C67.0997 148.923 67.1324 149.044 67.1977 149.166C67.2724 149.287 67.3797 149.348 67.5197 149.348H69.5637C69.9277 149.348 70.2404 149.39 70.5017 149.474C70.763 149.548 70.973 149.679 71.1317 149.866C71.2997 150.052 71.421 150.309 71.4957 150.636C71.5797 150.953 71.6217 151.354 71.6217 151.84C71.6217 151.98 71.5984 152.166 71.5517 152.4C71.5144 152.624 71.4397 152.848 71.3277 153.072C71.2157 153.286 71.057 153.473 70.8517 153.632C70.6557 153.79 70.399 153.87 70.0817 153.87H65.5037C65.4104 153.87 65.3637 153.823 65.3637 153.73V152.302ZM76.6443 144.126V143.972C76.6443 143.878 76.691 143.832 76.7843 143.832H81.2503C81.773 143.832 82.2163 143.916 82.5803 144.084C82.9443 144.242 83.2383 144.466 83.4623 144.756C83.6863 145.045 83.8496 145.39 83.9523 145.792C84.055 146.193 84.1063 146.632 84.1063 147.108C84.1063 147.602 84.055 148.05 83.9523 148.452C83.8496 148.853 83.6863 149.198 83.4623 149.488C83.2383 149.777 82.9443 150.001 82.5803 150.16C82.2163 150.309 81.773 150.384 81.2503 150.384H78.8143C78.721 150.384 78.6743 150.43 78.6743 150.524V153.73C78.6743 153.823 78.6276 153.87 78.5343 153.87H76.7843C76.691 153.87 76.6443 153.823 76.6443 153.73V144.126ZM81.4883 145.652H78.8143C78.721 145.652 78.6743 145.698 78.6743 145.792V148.424C78.6743 148.517 78.721 148.564 78.8143 148.564H81.4883C81.6563 148.564 81.787 148.508 81.8803 148.396C81.983 148.274 82.0576 148.134 82.1043 147.976C82.151 147.817 82.179 147.658 82.1883 147.5C82.207 147.332 82.2163 147.201 82.2163 147.108C82.2163 147.014 82.207 146.888 82.1883 146.73C82.179 146.562 82.151 146.398 82.1043 146.24C82.0576 146.081 81.983 145.946 81.8803 145.834C81.787 145.712 81.6563 145.652 81.4883 145.652ZM86.6814 143.958L89.0894 151.798C89.1174 151.9 89.1408 151.97 89.1594 152.008C89.1781 152.036 89.2108 152.05 89.2574 152.05C89.3041 152.05 89.3554 151.966 89.4114 151.798L91.8194 143.972C91.8474 143.878 91.9081 143.832 92.0014 143.832H93.8214C93.8961 143.832 93.9334 143.86 93.9334 143.916L91.0914 153.044C90.9794 153.408 90.7741 153.636 90.4754 153.73C90.1768 153.823 89.7708 153.87 89.2574 153.87C88.7254 153.87 88.3054 153.823 87.9974 153.73C87.6988 153.636 87.4934 153.408 87.3814 153.044L84.5674 143.916C84.5674 143.86 84.6001 143.832 84.6654 143.832H86.4994C86.5928 143.832 86.6534 143.874 86.6814 143.958ZM99.0846 145.792V153.73C99.0846 153.823 99.0379 153.87 98.9446 153.87H97.1946C97.1012 153.87 97.0546 153.823 97.0546 153.73V145.792C97.0546 145.698 97.0079 145.652 96.9146 145.652H94.6326C94.5392 145.652 94.4926 145.605 94.4926 145.512V143.972C94.4926 143.878 94.5392 143.832 94.6326 143.832H101.507C101.6 143.832 101.647 143.878 101.647 143.972V145.512C101.647 145.605 101.6 145.652 101.507 145.652H99.2246C99.1312 145.652 99.0846 145.698 99.0846 145.792ZM112.791 152.05C112.885 152.05 112.931 152.096 112.931 152.19V153.73C112.931 153.823 112.885 153.87 112.791 153.87H108.941C108.867 153.87 108.797 153.87 108.731 153.87C108.666 153.87 108.61 153.865 108.563 153.856C107.789 153.79 107.238 153.566 106.911 153.184C106.585 152.792 106.421 152.204 106.421 151.42V143.972C106.421 143.878 106.468 143.832 106.561 143.832H108.311C108.405 143.832 108.451 143.878 108.451 143.972V151.588C108.451 151.896 108.633 152.05 108.997 152.05H112.791ZM116.762 145.792V153.73C116.762 153.823 116.716 153.87 116.622 153.87H114.872C114.779 153.87 114.732 153.823 114.732 153.73V145.792C114.732 145.698 114.686 145.652 114.592 145.652H112.31C112.217 145.652 112.17 145.605 112.17 145.512V143.972C112.17 143.878 112.217 143.832 112.31 143.832H119.184C119.278 143.832 119.324 143.878 119.324 143.972V145.512C119.324 145.605 119.278 145.652 119.184 145.652H116.902C116.809 145.652 116.762 145.698 116.762 145.792ZM120.302 153.87C120.209 153.87 120.162 153.823 120.162 153.73V143.972C120.162 143.878 120.209 143.832 120.302 143.832H125.076C125.608 143.832 126.065 143.934 126.448 144.14C126.84 144.345 127.162 144.611 127.414 144.938C127.666 145.264 127.848 145.638 127.96 146.058C128.081 146.478 128.142 146.902 128.142 147.332V150.692C128.142 151.056 128.081 151.429 127.96 151.812C127.848 152.185 127.666 152.526 127.414 152.834C127.162 153.142 126.845 153.394 126.462 153.59C126.079 153.776 125.622 153.87 125.09 153.87H120.302ZM122.192 145.792V151.91C122.192 152.003 122.239 152.05 122.332 152.05H124.838C124.987 152.05 125.137 152.012 125.286 151.938C125.445 151.854 125.585 151.751 125.706 151.63C125.827 151.499 125.925 151.359 126 151.21C126.075 151.051 126.112 150.892 126.112 150.734V147.01C126.112 146.842 126.07 146.678 125.986 146.52C125.902 146.352 125.795 146.207 125.664 146.086C125.533 145.955 125.384 145.852 125.216 145.778C125.057 145.694 124.894 145.652 124.726 145.652H122.332C122.239 145.652 122.192 145.698 122.192 145.792Z" fill="white"/>
</svg>
