<svg width="97" height="36" viewBox="0 0 97 36" fill="none" xmlns="http://www.w3.org/2000/svg">
<path d="M40.8418 26H36.9844V14.877H33.498V11.7227H44.3184V14.877H40.8418V26ZM51.1152 14.7402C52.1895 14.7402 53.1172 14.929 53.8984 15.3066C54.6797 15.6777 55.2819 16.2376 55.7051 16.9863C56.1283 17.735 56.3398 18.6725 56.3398 19.7988V21.498H49.5137C49.5462 22.0775 49.7611 22.5527 50.1582 22.9238C50.5618 23.2949 51.1543 23.4805 51.9355 23.4805C52.6257 23.4805 53.2572 23.4121 53.8301 23.2754C54.4095 23.1387 55.0052 22.9271 55.6172 22.6406V25.3848C55.0833 25.6647 54.5007 25.8698 53.8691 26C53.2376 26.1302 52.4401 26.1953 51.4766 26.1953C50.3633 26.1953 49.3672 25.9967 48.4883 25.5996C47.6094 25.2025 46.916 24.5872 46.4082 23.7539C45.9069 22.9206 45.6562 21.8496 45.6562 20.541C45.6562 19.2129 45.8841 18.1224 46.3398 17.2695C46.7956 16.4102 47.4336 15.7754 48.2539 15.3652C49.0742 14.9486 50.028 14.7402 51.1152 14.7402ZM51.252 17.3379C50.8027 17.3379 50.4251 17.4811 50.1191 17.7676C49.8197 18.0475 49.6439 18.4902 49.5918 19.0957H52.873C52.8665 18.7702 52.8014 18.474 52.6777 18.207C52.554 17.9401 52.3717 17.7285 52.1309 17.5723C51.8965 17.416 51.6035 17.3379 51.252 17.3379ZM63.5371 26.1953C62.4173 26.1953 61.444 25.9967 60.6172 25.5996C59.7904 25.196 59.1491 24.5775 58.6934 23.7441C58.2441 22.9043 58.0195 21.8301 58.0195 20.5215C58.0195 19.1803 58.2702 18.0833 58.7715 17.2305C59.2793 16.3776 59.9727 15.7493 60.8516 15.3457C61.7305 14.9421 62.7266 14.7402 63.8398 14.7402C64.5169 14.7402 65.1582 14.8151 65.7637 14.9648C66.3757 15.1146 66.9421 15.3197 67.4629 15.5801L66.3398 18.4023C65.8841 18.2005 65.4577 18.041 65.0605 17.9238C64.6699 17.8001 64.263 17.7383 63.8398 17.7383C63.4557 17.7383 63.1172 17.8392 62.8242 18.041C62.5312 18.2428 62.3034 18.5488 62.1406 18.959C61.9779 19.3626 61.8965 19.877 61.8965 20.502C61.8965 21.14 61.9779 21.6543 62.1406 22.0449C62.3099 22.4355 62.541 22.7188 62.834 22.8945C63.1335 23.0703 63.4753 23.1582 63.8594 23.1582C64.4128 23.1582 64.9629 23.0736 65.5098 22.9043C66.0632 22.7285 66.5872 22.4876 67.082 22.1816V25.2188C66.6263 25.5182 66.112 25.7559 65.5391 25.9316C64.9661 26.1074 64.2988 26.1953 63.5371 26.1953ZM73.0977 10.8047V12.9629C73.0977 13.7832 73.0781 14.4733 73.0391 15.0332C73.0065 15.5866 72.974 16.0098 72.9414 16.3027H73.1172C73.3581 15.9186 73.6315 15.6126 73.9375 15.3848C74.2435 15.1569 74.582 14.9941 74.9531 14.8965C75.3242 14.7923 75.7279 14.7402 76.1641 14.7402C76.8932 14.7402 77.5508 14.8802 78.1367 15.1602C78.7292 15.4401 79.2012 15.8796 79.5527 16.4785C79.9043 17.071 80.0801 17.8457 80.0801 18.8027V26H76.2422V19.9648C76.2422 19.2292 76.1348 18.6758 75.9199 18.3047C75.7051 17.9271 75.373 17.7383 74.9238 17.7383C74.4616 17.7383 74.097 17.8717 73.8301 18.1387C73.5632 18.3991 73.3743 18.7832 73.2637 19.291C73.153 19.7923 73.0977 20.4076 73.0977 21.1367V26H69.2793V10.8047H73.0977ZM95.041 11.7227V20.3164C95.041 21.5143 94.8132 22.556 94.3574 23.4414C93.9017 24.3203 93.2181 25.0007 92.3066 25.4824C91.3952 25.9577 90.2526 26.1953 88.8789 26.1953C86.9128 26.1953 85.4121 25.6908 84.377 24.6816C83.3418 23.6725 82.8242 22.2467 82.8242 20.4043V11.7227H86.7012V20.1016C86.7012 21.1107 86.89 21.8431 87.2676 22.2988C87.6452 22.7546 88.2018 22.9824 88.9375 22.9824C89.4648 22.9824 89.8945 22.8848 90.2266 22.6895C90.5586 22.4876 90.7995 22.1719 90.9492 21.7422C91.1055 21.3125 91.1836 20.7591 91.1836 20.082V11.7227H95.041Z" fill="white"/>
<path d="M0 25.4722L16.0287 30.7609C18.5017 31.5772 21.1653 30.226 21.9768 27.745L27.2633 11.5674L11.1104 6.23796C8.62456 5.41738 5.94812 6.78788 5.15161 9.29044L0 25.4722Z" fill="url(#paint0_linear_140_56)"/>
<path d="M14.9602 17.6875H16.1357V13.793H7.27991V18.2439H9.28403V24.0309H10.4424V17.0646H8.48323V14.953H14.9688L14.9602 17.6875Z" fill="white"/>
<path d="M12.136 17.6596H13.5L13.4935 20.7078C13.4893 22.1771 14.6755 23.3693 16.14 23.3693C17.6003 23.3693 18.7843 22.1835 18.7865 20.7164L18.795 13.793H20.1354V21.088C20.1354 23.0514 18.5488 24.6431 16.5918 24.6431H15.6797C13.7226 24.6431 12.136 23.0514 12.136 21.088V17.6596Z" fill="white"/>
<defs>
<linearGradient id="paint0_linear_140_56" x1="13.6327" y1="30.9994" x2="13.6327" y2="5.99952" gradientUnits="userSpaceOnUse">
<stop stop-color="#C96B99"/>
<stop offset="1" stop-color="#3D155F"/>
</linearGradient>
</defs>
</svg>
