<svg width="125" height="42" viewBox="0 0 125 42" fill="none" xmlns="http://www.w3.org/2000/svg">
<path d="M0 32.036L26.4565 40.7371C30.5384 42.08 34.9348 39.8571 36.2742 35.7751L45 9.15966L18.3386 0.391496C14.2355 -0.958539 9.8178 1.29623 8.5031 5.41349L0 32.036Z" fill="url(#paint0_linear_246_294)"/>
<path d="M24.6929 19.2284H26.6332V12.821H12.016V20.1438H15.324V29.6647H17.2359V18.2035H14.0022V14.7295H24.7071L24.6929 19.2284Z" fill="white"/>
<path d="M20.0314 19.1825H22.2826L22.272 24.1974C22.265 26.6147 24.2229 28.5762 26.6402 28.5762C29.0505 28.5762 31.0049 26.6253 31.0084 24.2115L31.0225 12.821H33.2349V24.8229C33.2349 28.0531 30.6161 30.6719 27.3859 30.6719H25.8804C22.6502 30.6719 20.0314 28.0531 20.0314 24.8229V19.1825Z" fill="white"/>
<path d="M99.8092 27.9881H96.1854V12.7681H99.8092V18.9739H99.8771C100.089 18.2944 100.474 17.7735 101.032 17.4111C101.606 17.0336 102.353 16.8449 103.274 16.8449C104.196 16.8449 104.867 16.9883 105.426 17.2752C106 17.5621 106.423 18.0679 106.694 18.7927C106.981 19.5023 107.125 20.5064 107.125 21.805V27.9881H103.501L103.478 22.5071C103.478 21.6615 103.35 21.0576 103.093 20.6952C102.837 20.3328 102.353 20.1516 101.644 20.1516C101.01 20.1516 100.549 20.3177 100.262 20.6499C99.9753 20.9821 99.8243 21.5407 99.8092 22.3259V27.9881ZM94.1545 24.7946V27.739C93.777 27.89 93.2184 28.0032 92.4785 28.0787C91.7386 28.1542 90.9535 28.192 90.123 28.192C88.9302 28.192 87.9336 28.0259 87.1334 27.6937C86.3482 27.3615 85.7593 26.7877 85.3668 25.9724C84.9893 25.157 84.793 24.0246 84.7779 22.575C84.7779 21.0802 84.9817 19.9176 85.3894 19.0871C85.8122 18.2566 86.4237 17.6753 87.224 17.3431C88.0242 17.011 88.983 16.8449 90.1004 16.8449C90.7647 16.8449 91.4669 16.8902 92.2067 16.9808C92.9466 17.0714 93.5505 17.1921 94.0186 17.3431L94.0413 20.3781L93.9733 20.4234C93.5204 20.3328 93.0372 20.2648 92.5238 20.2195C92.0104 20.1742 91.5046 20.1516 91.0063 20.1516C89.9947 20.1516 89.2926 20.3403 88.9 20.7178C88.5074 21.0953 88.3111 21.7295 88.3111 22.6203C88.3111 23.2998 88.3942 23.8056 88.5602 24.1378C88.7263 24.47 89.0057 24.6889 89.3983 24.7946C89.7908 24.9003 90.3269 24.9532 91.0063 24.9532C91.5348 24.9532 92.0406 24.9305 92.5238 24.8852C93.007 24.8399 93.5204 24.7871 94.0639 24.7267L94.1545 24.7946ZM80.4972 21.2614C80.4972 20.899 80.4368 20.5895 80.3161 20.3328C80.2104 20.061 79.9914 19.8572 79.6592 19.7213C79.3271 19.5703 78.8363 19.4948 78.1871 19.4948C77.2358 19.4948 76.6092 19.6609 76.3072 19.9931C76.0203 20.3102 75.8769 20.7329 75.8769 21.2614H80.4972ZM83.0792 27.6257C82.6564 27.7767 82.0676 27.9126 81.3126 28.0334C80.5727 28.1391 79.6894 28.192 78.6627 28.192C77.3641 28.192 76.2544 28.0259 75.3333 27.6937C74.4273 27.3464 73.7403 26.7651 73.2722 25.9497C72.8042 25.1193 72.5701 23.9717 72.5701 22.5071C72.5701 20.514 73.0231 19.072 73.9291 18.1811C74.8501 17.2903 76.2695 16.8449 78.1871 16.8449C79.5611 16.8449 80.6407 17.0412 81.4258 17.4337C82.2261 17.8263 82.7923 18.385 83.1245 19.1098C83.4718 19.8194 83.6454 20.665 83.6454 21.6464C83.6454 21.9333 83.6303 22.2429 83.6001 22.575C83.585 22.9072 83.5473 23.2319 83.4869 23.5489L83.3963 23.6395H75.9448C76.0505 24.3039 76.36 24.7418 76.8734 24.9532C77.4019 25.1646 78.255 25.2703 79.4327 25.2703C80.2179 25.2703 80.8672 25.2552 81.3806 25.225C81.909 25.1797 82.445 25.1193 82.9886 25.0438L83.0792 25.1117V27.6257ZM64.0768 27.9881V16.709H60V13.6514H71.7774V16.709H67.7006V27.9881H64.0768Z" fill="#151F2D"/>
<path d="M122.294 14.7227V23.3164C122.294 24.5143 122.066 25.556 121.61 26.4414C121.154 27.3203 120.471 28.0007 119.559 28.4824C118.648 28.9577 117.505 29.1953 116.132 29.1953C114.165 29.1953 112.665 28.6908 111.63 27.6816C110.594 26.6725 110.077 25.2467 110.077 23.4043V14.7227H113.954V23.1016C113.954 24.1107 114.143 24.8431 114.52 25.2988C114.898 25.7546 115.455 25.9824 116.19 25.9824C116.718 25.9824 117.147 25.8848 117.479 25.6895C117.811 25.4876 118.052 25.1719 118.202 24.7422C118.358 24.3125 118.436 23.7591 118.436 23.082V14.7227H122.294Z" fill="url(#paint1_linear_246_294)"/>
<defs>
<linearGradient id="paint0_linear_246_294" x1="22.5018" y1="41.1293" x2="22.5018" y2="-0.00079185" gradientUnits="userSpaceOnUse">
<stop stop-color="#C96B99"/>
<stop offset="1" stop-color="#3D155F"/>
</linearGradient>
<linearGradient id="paint1_linear_246_294" x1="116.612" y1="3" x2="116.612" y2="39" gradientUnits="userSpaceOnUse">
<stop offset="0.355318" stop-color="#3E155F"/>
<stop offset="1" stop-color="#C76A98"/>
</linearGradient>
</defs>
</svg>
