<svg width="148" height="47" viewBox="0 0 148 47" fill="none" xmlns="http://www.w3.org/2000/svg">
<g clip-path="url(#clip0_247_303)">
<path d="M142.209 0H5.79118C2.5928 0 0 2.60696 0 5.82281V41.1772C0 44.393 2.5928 47 5.79118 47H142.209C145.407 47 148 44.393 148 41.1772V5.82281C148 2.60696 145.407 0 142.209 0Z" fill="#33295E"/>
<path d="M36.4354 12.8498C36.3422 13.8115 34.5922 13.9286 34.5922 13.9286C34.8718 14.9606 34.3785 16.931 34.3785 16.931L32.586 16.344L32.4462 17.4463C37.3919 19.9788 36.1778 26.6862 36.1778 26.6862C35.8667 26.3142 34.695 25.8126 34.3154 25.6555C34.2401 25.6239 34.1948 25.6073 34.1948 25.6073L34.2387 25.6252C34.5635 22.3831 33.0985 21.1748 33.0985 21.1748C32.819 23.4262 29.8562 25.8416 29.8562 25.8416C36.1942 25.927 38.7691 30.4767 39.1748 31.2786C40.7219 29.0809 41.6318 26.3968 41.6318 23.4992C41.6318 19.046 39.7462 15.3023 36.434 12.8484L36.4354 12.8498Z" fill="#F76B5C"/>
<path d="M24.2364 30.4865C18.907 31.8216 16.4924 29.3911 15.5126 27.7817C17.2927 33.1278 22.3124 36.9803 28.2269 36.9803C30.858 36.9803 33.311 36.2183 35.3816 34.9011C34.1263 31.451 31.7597 28.6016 24.2364 30.4865Z" fill="#F76B5C"/>
<path d="M21.0873 27.8119C28.342 25.7245 27.5253 18.4784 27.5253 18.4784C23.7704 18.0099 21.3668 20.5892 21.3668 20.5892L20.2239 19.768C24.912 13.9287 30.5798 16.3909 30.5798 16.3909C31.1636 15.9224 31.7227 11.8647 31.7227 11.8647C34.4922 13.1102 35.631 12.3662 35.7064 12.3138C33.57 10.8671 30.9964 10.0225 28.2269 10.0225C21.0475 10.0225 15.1864 15.6978 14.8384 22.8296C15.7236 28.7751 21.0873 27.8133 21.0873 27.8133V27.8119ZM17.6065 19.5145C17.7435 19.2899 18.0382 19.2238 18.2588 19.3671L22.8605 22.3763C23.0811 22.521 23.1401 22.82 22.9893 23.0377L20.8913 26.069C20.7433 26.2825 20.45 26.3349 20.239 26.1833L15.9237 23.1052C15.7236 22.9619 15.6674 22.6877 15.7963 22.4769L17.6079 19.5145H17.6065Z" fill="#F76B5C"/>
<path d="M70.9167 24.5383C70.9167 30.2082 67.0371 33.0424 59.2767 33.0424C50.2885 33.0424 46.409 30.2082 46.409 24.5383V13.9578H52.159V24.5383C52.159 27.3174 53.3307 28.2144 59.2767 28.2144C63.7154 28.2144 65.1104 27.1755 65.1104 24.5383V13.9578H70.9167V24.5383Z" fill="white"/>
<path d="M97.9363 27.9057L94.2239 32.7323H84.8451C78.3687 32.7323 73.5957 28.607 73.5957 23.1617C73.5957 17.7165 78.3687 13.9563 84.8451 13.9563H97.9363L94.2239 18.8394H84.8451C81.7193 18.8394 79.3746 20.7202 79.3746 23.4139C79.3746 26.1076 81.6919 27.9043 84.8451 27.9043H97.9363V27.9057Z" fill="white"/>
<path d="M105.806 32.7338H100.029V13.9578H105.806V32.7338Z" fill="white"/>
<path d="M121.912 32.7338H109.408V21.0303H115.214V27.9058H121.912C125.122 27.9058 127.439 26.1091 127.439 23.4154C127.439 20.7217 125.038 18.8409 121.912 18.8409H109.408L113.093 13.9578H121.914C128.445 13.9578 133.163 17.7469 133.163 23.1632C133.163 28.5796 128.39 32.7338 121.914 32.7338H121.912Z" fill="white"/>
</g>
<defs>
<clipPath id="clip0_247_303">
<rect width="148" height="47" fill="white"/>
</clipPath>
</defs>
</svg>
